<?xml version="1.0" encoding="utf-8"?>
<!-- Generator: Adobe Illustrator 26.0.3, SVG Export Plug-In . SVG Version: 6.00 Build 0)  -->
<svg version="1.1" id="Layer_1" xmlns="http://www.w3.org/2000/svg" xmlns:xlink="http://www.w3.org/1999/xlink" x="0px" y="0px"
	 viewBox="0 0 3839 1395.9" style="enable-background:new 0 0 3839 1395.9;" xml:space="preserve">
<style type="text/css">
	.st0{fill:none;stroke:#000000;stroke-width:29.0143;stroke-miterlimit:10;}
	.st1{fill:none;stroke:#000000;stroke-width:30.4864;stroke-miterlimit:10;}
	.st2{fill:none;stroke:#000000;stroke-width:18.6654;stroke-miterlimit:10;}
	.st3{fill:none;stroke:#000000;stroke-width:19.2639;stroke-miterlimit:10;}
	.st4{fill:#FFFFFF;}
	.st5{fill:none;stroke:#FFFFFF;stroke-width:29.0143;stroke-miterlimit:10;}
	.st6{fill:none;stroke:#FFFFFF;stroke-width:30.4864;stroke-miterlimit:10;}
	.st7{fill:none;stroke:#FFFFFF;stroke-width:18.6654;stroke-miterlimit:10;}
	.st8{fill:none;stroke:#FFFFFF;stroke-width:19.2639;stroke-miterlimit:10;}
</style>
<g>
	<g>
		<path class="st4" d="M2626.9,1231.4c20.2,0.8,41.3-6.4,41.3-29.3c0-15.7-12.3-26.4-29-26.4c-21.1,0-31.4,18.9-30.9,38.1H2578
			c1.6-36.2,24.2-63.5,61.7-63.5c29.1,0,58.8,16.8,58.8,49.9c0,18.6-8.5,33.6-26.3,40v0.5c21,4.3,33.7,22.7,33.7,46.7
			c0,35.2-30.3,57.1-65.9,57.1c-43.1,0-64.7-26.2-65.5-65.1h30.3c-0.8,22.7,11.4,39.7,35.1,39.7c20.2,0,35.7-12,35.7-33.3
			c0-29.1-24.8-32.8-48.7-31.7V1231.4z"/>
		<path class="st4" d="M1133,1150.4h84.1c54.5,0,64.9,35.2,64.9,59.1c0,23.5-10.4,58.8-64.9,58.5h-50.8v73.2H1133V1150.4z
			 M1166.3,1240.6h48.9c15,0,33.4-7.4,33.4-31.5c0-25.1-15.2-31.5-32.8-31.5h-49.5V1240.6z"/>
		<line class="st6" x1="1317.3" y1="1341.1" x2="1317.3" y2="1150.4"/>
		<path class="st4" d="M1481.9,1310.4c0,7.4,1.6,10.4,7.2,10.4c1.9,0,4.3,0,7.4-0.5v21.1c-4.5,1.6-14.2,3.5-19.2,3.5
			c-12.3,0-21.1-4.3-23.5-16.8c-12.1,11.8-31.6,16.8-47.9,16.8c-24.8,0-47.2-13.4-47.2-40.4c0-34.4,27.5-40.1,53.2-43
			c21.8-4,41.3-1.6,41.3-19.5c0-15.7-16.2-18.7-28.6-18.7c-17.1,0-29.1,7-30.4,21.9h-30.5c2.2-35.6,32.3-46,62.8-46
			c26.9,0,55.3,11,55.3,40.1V1310.4z M1451.4,1271.9c-9.3,6.2-24,5.9-37.4,8.3c-13.1,2.1-24.9,6.9-24.9,23
			c0,13.6,17.4,17.6,28.1,17.6c13.4,0,34.2-7,34.2-26.2V1271.9z"/>
		<path class="st4" d="M1494.6,1203h33.4l36.1,103.1h0.5l35-103.1h31.8l-53.7,145.6c-10,24.8-17.1,47.2-48.9,47.2
			c-7.2,0-14.1-0.5-21.1-1.5v-25.6c4.8,0.8,9.6,1.8,14.4,1.8c14.2,0,17.7-7.4,21.4-19.2l3.4-10.7L1494.6,1203z"/>
		<path class="st4" d="M1671.4,1277.6c0,29.4,21.5,40.9,48.3,40.9c29.4,0,40.4-14.4,40.4-28.9c0-14.7-8.1-20.6-15.8-23.5
			c-13.3-5.1-30.8-8.6-56.9-15.8c-32.6-8.8-42.2-28.6-42.2-48.4c0-38.2,35.3-56.1,69.8-56.1c39.8,0,73.2,21.1,73.2,61h-33.4
			c-1.5-24.6-18.1-33.7-41.2-33.7c-15.5,0-35,5.6-35,24.9c0,13.4,9.1,20.8,22.7,24.6c3,0.8,45.1,11.8,55,14.7
			c25.1,7.4,37.2,28.9,37.2,48.6c0,42.8-37.9,59.9-75.9,59.9c-43.5,0-78.8-20.8-79.6-68.1H1671.4z"/>
		<path class="st4" d="M1804.3,1203h23v-41.4h30.4v41.4h27.5v22.7h-27.5v73.7c0,12.6,1,19,14.7,19c4.2,0,8.5,0,12.8-1.1v23.5
			c-6.7,0.5-13.1,1.6-19.7,1.6c-31.8,0-37.7-12.3-38.2-35.3v-81.5h-23V1203z"/>
		<path class="st4" d="M2025.4,1310.4c0,7.4,1.5,10.4,7.2,10.4c1.9,0,4.3,0,7.5-0.5v21.1c-4.5,1.6-14.2,3.5-19.3,3.5
			c-12.3,0-21.1-4.3-23.5-16.8c-12,11.8-31.6,16.8-47.9,16.8c-24.8,0-47.3-13.4-47.3-40.4c0-34.4,27.5-40.1,53.2-43
			c21.9-4,41.4-1.6,41.4-19.5c0-15.7-16.3-18.7-28.6-18.7c-17.1,0-29.1,7-30.5,21.9h-30.4c2.2-35.6,32.3-46,62.8-46
			c26.9,0,55.3,11,55.3,40.1V1310.4z M1994.9,1271.9c-9.4,6.2-24.1,5.9-37.4,8.3c-13.1,2.1-24.9,6.9-24.9,23
			c0,13.6,17.3,17.6,28.1,17.6c13.4,0,34.2-7,34.2-26.2V1271.9z"/>
		<path class="st4" d="M2043.1,1203h23v-41.4h30.5v41.4h27.5v22.7h-27.5v73.7c0,12.6,1,19,14.7,19c4.2,0,8.5,0,12.8-1.1v23.5
			c-6.8,0.5-13.1,1.6-19.8,1.6c-31.8,0-37.7-12.3-38.3-35.3v-81.5h-23V1203z"/>
		<path class="st4" d="M2150.3,1150.4h30.5v28.8h-30.5V1150.4z M2150.3,1203h30.5v138.1h-30.5V1203z"/>
		<path class="st4" d="M2203.6,1271.9c0-42.2,25.4-72.7,69.8-72.7c44.3,0,69.7,30.5,69.7,72.7c0,42.5-25.4,72.9-69.7,72.9
			C2229,1344.9,2203.6,1314.4,2203.6,1271.9 M2312.6,1271.9c0-23.8-12-48.6-39.2-48.6c-27.3,0-39.3,24.8-39.3,48.6
			c0,24.1,12,48.9,39.3,48.9C2300.6,1320.8,2312.6,1296,2312.6,1271.9"/>
		<path class="st4" d="M2366.1,1203h28.8v20.3l0.5,0.6c9.1-15.3,24.9-24.6,43-24.6c29.9,0,48.9,16,48.9,47v94.8h-30.5v-86.8
			c-0.6-21.6-9.1-31-27-31c-20.3,0-33.4,16.1-33.4,36.3v81.5h-30.4V1203z"/>
	</g>
	<path class="st4" d="M2457.6,0l-503.8,0.1c-155.4,0-231.5,95.7-231.5,220.4v378.8c0,77.1-36.5,132.6-113.8,132.6h-440.5
		c-3.2,0-5.7,2.6-5.7,5.8v76.1c0,3.2,2.6,5.7,5.8,5.7h498.6c155.4,0,231.5-95.5,231.5-220.1v-379c0-77.2,36.6-132.8,113.7-132.8
		h445.6c3.3,0,5.7-2.6,5.7-5.7v-76C2463.3,2.6,2460.7,0,2457.6,0"/>
	<path class="st4" d="M974.7,0.1L5.7,0.1C2.6,0.1,0,2.6,0,5.8v76.1c0,3.2,2.6,5.7,5.7,5.7h910.8c77.2,0,113.8,55.6,113.8,132.8
		c0,77.1-36.5,132.6-113.8,132.6H196.1C84.2,353,0,447,0,571.7v242c0,3.2,2.6,5.7,5.7,5.7h164.3c3.1,0,5.7-2.6,5.7-5.7v-242
		c0-77.2,44.5-131.1,108.3-131.1h690.6c155.4,0,231.5-95.5,231.5-220.1C1206.1,95.9,1130.1,0.1,974.7,0.1"/>
	<path class="st4" d="M3766.9,399.6c-2.5-2.5-2.6-6.7-0.1-9.2c48.1-39.9,72.1-100.2,72.1-169.9c0-124.6-76.1-220.4-231.5-220.4
		l-969-0.1c-3.1,0-5.8,2.6-5.8,5.8v76c0,3.2,2.6,5.7,5.8,5.7h910.8c77.2,0,113.8,55.6,113.8,132.8c0,77.1-36.5,132.6-113.8,132.6
		h-0.8l-0.3-0.1l-909.7,0.1c-3.1,0-5.8,2.6-5.8,5.8v76.1c0,3.1,2.6,5.7,5.8,5.7h910.8c100.5,0.8,113.7,98.5,113.7,148.6l0.1,10
		c0,77.2-36.6,132.8-113.8,132.8h-910.8c-3.1,0-5.8,2.6-5.8,5.7v76c0,3.2,2.6,5.7,5.8,5.7l969,0c155.4,0,231.5-103.2,231.5-220.4
		v-9.9C3839,514.6,3815,443.4,3766.9,399.6"/>
</g>
</svg>
