<?xml version="1.0" encoding="UTF-8" standalone="no"?>
<!-- Created with Inkscape (http://www.inkscape.org/) -->
<svg
   xmlns:svg="http://www.w3.org/2000/svg"
   xmlns="http://www.w3.org/2000/svg"
   version="1.0"
   width="736"
   height="682"
   viewBox="0 0 736 682"
   id="Layer_1"
   xml:space="preserve"><defs
   id="defs3579" />
<g
   id="g3516">
	<polygon
   points="40.665,104.387 76.699,104.387 76.699,24.314 52.318,24.314 52.318,70.23 52.11,70.23 36.033,24.314 0,24.314 0,104.387 24.367,104.387 24.367,58.166 24.586,58.166 40.665,104.387 "
   style="fill:#7b7692;fill-rule:evenodd"
   id="polygon3518" />
	<polygon
   points="176.612,104.387 212.648,104.387 212.648,24.314 188.279,24.314 188.279,70.23 188.06,70.23 171.984,24.314 135.951,24.314 135.951,104.387 160.328,104.387 160.328,58.166 160.54,58.166 176.612,104.387 "
   style="fill:#7b7692;fill-rule:evenodd"
   id="polygon3520" />
	<polygon
   points="410.703,104.387 446.744,104.387 446.744,24.314 422.369,24.314 422.369,70.23 422.151,70.23 406.077,24.314 370.041,24.314 370.041,104.387 394.411,104.387 394.411,58.166 394.627,58.166 410.703,104.387 "
   style="fill:#7b7692;fill-rule:evenodd"
   id="polygon3522" />
	<polygon
   points="91.421,24.314 121.476,24.314 121.476,104.387 91.421,104.387 91.421,24.314 "
   style="fill:#7b7692;fill-rule:evenodd"
   id="polygon3524" />
	<polygon
   points="240.464,46.066 221.365,46.066 221.365,24.314 289.677,24.314 289.677,46.066 270.511,46.066 270.511,104.387 240.464,104.387 240.464,46.066 "
   style="fill:#7b7692;fill-rule:evenodd"
   id="polygon3526" />
	
	
	
	
	<polygon
   points="298.552,24.293 357.995,24.293 357.995,45.47 328.135,45.47 328.135,53.845 355.628,53.845 355.628,74.373 328.135,74.373 328.135,83.359 358.945,83.359 358.945,104.364 298.552,104.364 298.552,24.293 "
   style="fill:#7b7692;fill-rule:evenodd"
   id="polygon3536" />
	
	
	
	
	
	
	
	
	
	
	
	
	
	
	
	
	
	
	
	
</g>
<g
   style="display:inline"
   id="layer2"><polygon
     points="348.859,190.552 285.138,304.273 348.859,279.855 409.681,303.144 425.969,284.864 425.969,160.65 348.859,190.552 "
     style="fill:#0222a9;fill-opacity:1;fill-rule:evenodd"
     id="polygon3542" /><polygon
     points="546.82,599.126 431.729,448.924 431.729,647.514 348.859,682.567 348.859,343.34 431.729,311.605 546.82,476.102 546.82,266.959 625.082,236.777 625.082,566.257 546.82,599.126 "
     style="fill:#011da9;fill-opacity:1;fill-rule:evenodd"
     id="polygon3558" /><polygon
     points="150.899,599.126 224.326,566.618 150.899,424.061 150.899,599.126 "
     style="fill:#0222a9;fill-opacity:1;fill-rule:evenodd"
     id="polygon3560" /></g><g
   id="layer3"><polygon
     points="229.163,236.777 265.997,311.596 285.138,304.273 348.859,190.552 271.745,160.563 229.163,236.777 "
     style="fill:#069330;fill-opacity:1;fill-rule:evenodd"
     id="polygon3538" /><polygon
     points="409.681,303.144 468.582,236.777 546.82,266.959 546.82,476.102 431.729,311.605 409.681,303.144 "
     style="fill:#069330;fill-opacity:1;fill-rule:evenodd"
     id="polygon3540" /><polygon
     points="150.899,266.959 72.638,236.777 72.638,566.257 150.899,599.126 150.899,424.061 265.997,647.514 348.859,682.567 348.859,343.34 265.997,311.596 265.997,483.808 150.899,266.959 "
     style="fill:#069330;fill-opacity:1;fill-rule:evenodd"
     id="polygon3552" /></g><g
   id="layer4"><polygon
     points="265.997,311.596 265.997,483.808 150.899,266.959 229.163,236.777 265.997,311.596 "
     style="fill:#fe2015;fill-opacity:1;fill-rule:evenodd"
     id="polygon3554" /><polygon
     points="546.82,599.126 431.729,448.924 431.729,530.988 455.231,563.957 546.82,599.126 "
     style="fill:#fe2015;fill-opacity:1;fill-rule:evenodd"
     id="polygon3556" /></g><g
   id="layer5"><polygon
     points="431.729,311.596 348.859,343.34 265.997,311.596 348.859,279.855 431.729,311.596 "
     style="fill:#ffc001;fill-opacity:1;fill-rule:evenodd"
     id="polygon3544" /><polygon
     points="468.551,236.777 546.82,206.669 625.082,236.777 546.82,266.959 468.551,236.777 "
     style="fill:#ffc001;fill-opacity:1;fill-rule:evenodd"
     id="polygon3546" /><polygon
     points="72.638,236.777 150.899,206.669 229.163,236.777 150.899,266.959 72.638,236.777 "
     style="fill:#ffc001;fill-opacity:1;fill-rule:evenodd"
     id="polygon3548" /><polygon
     points="425.969,160.65 348.859,130.871 271.745,160.563 348.859,190.552 425.969,160.65 "
     style="fill:#ffc001;fill-opacity:1;fill-rule:evenodd"
     id="polygon3550" /></g><g
   id="layer6"><path
     d="M 459.681,24.314 L 495.294,24.314 C 525.66,24.314 535.326,41.506 535.326,65.241 C 535.326,89.414 520.411,104.387 497.087,104.387 L 459.681,104.387 L 459.681,24.314 L 459.681,24.314 z M 489.1,86.193 L 492.034,86.193 C 496.868,86.193 500.105,84.711 502.001,81.494 C 503.992,78.168 504.22,72.104 504.22,64.347 C 504.22,56.587 503.992,50.533 502.001,47.198 C 500.105,43.979 496.868,42.497 492.034,42.497 L 489.1,42.497 L 489.1,86.193 L 489.1,86.193 z "
     style="fill:#0124a6;fill-opacity:1;fill-rule:evenodd"
     id="path3528" /><path
     d="M 582.438,22.214 C 608.597,22.214 621.621,39.397 621.621,64.346 C 621.621,89.305 608.598,106.495 582.438,106.495 C 556.267,106.495 543.248,89.305 543.248,64.346 C 543.248,39.397 556.268,22.214 582.438,22.214 L 582.438,22.214 z M 582.438,86.205 C 587.056,86.205 590.528,83.934 590.528,64.347 C 590.528,45.201 587.263,42.496 582.438,42.496 C 577.604,42.496 574.343,45.201 574.343,64.347 C 574.344,83.934 577.813,86.205 582.438,86.205 L 582.438,86.205 z "
     style="fill:#0124a6;fill-opacity:1;fill-rule:evenodd"
     id="path3530" /><path
     d="M 635.664,87.495 C 630.422,87.495 626.174,91.745 626.174,96.991 C 626.174,102.243 630.422,106.496 635.664,106.496 C 640.916,106.496 645.174,102.243 645.174,96.991 C 645.174,91.746 640.916,87.495 635.664,87.495 L 635.664,87.495 z M 635.664,104.835 C 631.345,104.835 627.843,101.326 627.843,96.991 C 627.843,92.661 631.345,89.157 635.664,89.157 C 640.001,89.157 643.513,92.661 643.513,96.991 C 643.513,101.326 640.001,104.835 635.664,104.835 L 635.664,104.835 z "
     style="fill:#0124a6;fill-opacity:1;fill-rule:evenodd"
     id="path3562" /><path
     d="M 634.118,102.21 L 631.88,102.21 L 631.88,91.759 L 636.321,91.759 C 638.121,91.79 639.951,92.364 639.951,94.484 C 639.951,95.839 639.074,96.747 637.782,97.02 L 637.782,97.043 C 639.505,97.247 639.505,98.289 639.693,99.741 C 639.793,100.402 639.878,101.638 640.304,102.211 L 637.828,102.211 C 637.639,101.286 637.531,100.346 637.432,99.409 C 637.378,98.833 637.237,98.034 636.494,98.002 L 634.118,98.002 L 634.118,102.21 L 634.118,102.21 z M 634.118,96.266 L 636.007,96.266 C 636.986,96.255 637.568,95.753 637.568,94.835 C 637.568,93.912 636.987,93.517 636.007,93.507 L 634.118,93.507 L 634.118,96.266 L 634.118,96.266 z "
     style="fill:#0124a6;fill-opacity:1;fill-rule:evenodd"
     id="path3564" /><polygon
     points="40.665,104.387 76.699,104.387 76.699,24.314 52.318,24.314 52.318,70.23 52.11,70.23 36.033,24.314 0,24.314 0,104.387 24.367,104.387 24.367,58.166 24.586,58.166 40.665,104.387 "
     style="fill:#0124a6;fill-opacity:1;fill-rule:evenodd"
     id="polygon3566" /><polygon
     points="176.612,104.387 212.648,104.387 212.648,24.314 188.279,24.314 188.279,70.23 188.06,70.23 171.984,24.314 135.951,24.314 135.951,104.387 160.328,104.387 160.328,58.166 160.54,58.166 176.612,104.387 "
     style="fill:#0124a6;fill-opacity:1;fill-rule:evenodd"
     id="polygon3568" /><polygon
     points="410.703,104.387 446.744,104.387 446.744,24.314 422.369,24.314 422.369,70.23 422.151,70.23 406.077,24.314 370.041,24.314 370.041,104.387 394.411,104.387 394.411,58.166 394.627,58.166 410.703,104.387 "
     style="fill:#0124a6;fill-opacity:1;fill-rule:evenodd"
     id="polygon3570" /><polygon
     points="91.421,24.314 121.476,24.314 121.476,104.387 91.421,104.387 91.421,24.314 "
     style="fill:#0124a6;fill-opacity:1;fill-rule:evenodd"
     id="polygon3572" /><polygon
     points="240.464,46.066 221.365,46.066 221.365,24.314 289.677,24.314 289.677,46.066 270.511,46.066 270.511,104.387 240.464,104.387 240.464,46.066 "
     style="fill:#0124a6;fill-opacity:1;fill-rule:evenodd"
     id="polygon3574" /><polygon
     points="298.552,24.293 357.995,24.293 357.995,45.47 328.135,45.47 328.135,53.845 355.628,53.845 355.628,74.373 328.135,74.373 328.135,83.359 358.945,83.359 358.945,104.364 298.552,104.364 298.552,24.293 "
     style="fill:#0124a6;fill-opacity:1;fill-rule:evenodd"
     id="polygon3576" /></g><g
   id="layer7"><path
     d="M 675.382,13.667 C 673.774,13.526 672.225,13.592 670.056,13.688 C 657.374,14.276 652.252,19.677 650.51,25.783 L 650.815,25.783 C 653.972,23.024 657.875,21.734 663.104,21.734 C 673.163,21.734 682.345,29.048 682.345,42.765 C 682.345,55.893 672.255,66.116 658.716,66.116 C 640.87,66.116 633.111,52.494 633.111,37.882 C 633.111,26.01 637.326,15.959 644.235,9.477 C 650.815,3.383 659.294,0.303 669.672,0.066 C 672.425,-0.091 674.06,0.066 675.383,0.186 L 675.383,13.667 L 675.382,13.667 z M 658.485,53.209 C 662.598,53.209 665.09,49.008 665.09,43.646 C 665.056,39.116 662.984,34.183 657.469,34.183 C 654.101,34.183 651.479,36.315 650.49,38.895 C 650.105,39.684 649.959,40.812 649.959,42.721 C 650.313,47.835 652.782,53.209 658.384,53.209 L 658.485,53.209 L 658.485,53.209 z "
     style="fill:#ff2d1e;fill-opacity:1;fill-rule:evenodd"
     id="path3532" /><path
     d="M 713.783,65.039 L 713.783,50.673 L 687.071,50.673 L 687.071,39.191 L 708.514,0.973 L 729.86,0.973 L 729.86,37.509 L 736.65,37.509 L 736.65,50.673 L 729.86,50.673 L 729.86,65.039 L 713.783,65.039 L 713.783,65.039 z M 713.783,37.509 L 713.783,26.498 C 713.783,22.428 714.025,18.198 714.233,13.744 L 713.886,13.744 C 711.898,18.07 710.172,22.184 707.91,26.649 L 702.662,37.317 L 702.6,37.51 L 713.783,37.51 L 713.783,37.509 z "
     style="fill:#ff2d1e;fill-opacity:1;fill-rule:evenodd"
     id="path3534" /></g></svg>