<?xml version="1.0" standalone="no"?>
<!DOCTYPE svg PUBLIC "-//W3C//DTD SVG 20010904//EN"
 "http://www.w3.org/TR/2001/REC-SVG-20010904/DTD/svg10.dtd">
<svg version="1.0" xmlns="http://www.w3.org/2000/svg"
 width="900.000000pt" height="900.000000pt" viewBox="0 0 900.000000 900.000000"
 preserveAspectRatio="xMidYMid meet">
<metadata>
Created by potrace 1.13, written by Peter Selinger 2001-2015
</metadata>
<g transform="translate(0.000000,900.000000) scale(0.100000,-0.100000)"
fill="#000000" stroke="none">
<path d="M2965 8314 c-481 -86 -868 -442 -990 -910 -44 -169 -47 -268 -42
-1579 3 -1204 4 -1232 24 -1325 111 -501 467 -858 973 -976 66 -15 150 -18
691 -21 560 -4 618 -3 633 12 15 15 16 208 16 2396 0 1622 -3 2386 -10 2400
-10 18 -27 19 -613 18 -476 -1 -619 -4 -682 -15z m905 -2400 l0 -2026 -407 5
c-375 4 -415 6 -490 25 -322 83 -561 331 -628 654 -22 101 -22 2589 -1 2688
60 281 255 514 518 619 132 53 193 59 621 60 l387 1 0 -2026z"/>
<path d="M3051 7329 c-63 -12 -159 -60 -210 -105 -105 -91 -157 -220 -149
-372 4 -79 9 -100 41 -164 47 -97 118 -168 215 -216 67 -33 84 -37 171 -40 79
-3 107 0 160 18 217 73 348 284 311 500 -43 257 -287 429 -539 379z"/>
<path d="M4757 8323 c-4 -3 -7 -1087 -7 -2409 0 -2181 1 -2402 16 -2408 27
-10 803 -6 899 4 406 46 764 293 959 660 25 47 58 126 75 175 63 188 61 138
61 1575 0 1147 -2 1318 -16 1391 -99 521 -496 914 -1018 1004 -70 12 -178 15
-526 15 -240 0 -440 -3 -443 -7z m1068 -2178 c156 -41 284 -160 336 -312 33
-94 32 -232 -1 -318 -61 -158 -181 -269 -335 -310 -250 -65 -516 86 -589 334
-22 76 -21 204 4 282 75 245 335 389 585 324z"/>
<path d="M7493 2776 c-155 -51 -247 -200 -221 -362 16 -104 76 -186 168 -233
125 -62 258 -46 358 44 75 68 107 139 107 240 0 95 -28 166 -91 229 -79 79
-221 115 -321 82z m177 -146 c60 -31 93 -81 98 -149 6 -89 -32 -153 -111 -186
-134 -56 -286 73 -248 212 16 62 43 97 93 122 54 26 117 27 168 1z"/>
<path d="M790 2465 l0 -306 63 3 62 3 5 193 5 193 145 -195 145 -196 60 2 60
3 0 300 0 300 -62 3 -63 3 0 -197 0 -198 -147 197 -148 197 -62 0 -63 0 0
-305z"/>
<path d="M1790 2465 l0 -305 65 0 65 0 0 305 0 305 -65 0 -65 0 0 -305z"/>
<path d="M2375 2757 c-3 -7 -4 -143 -3 -302 l3 -290 63 -3 62 -3 0 202 0 203
150 -202 150 -202 60 0 60 0 0 305 0 305 -65 0 -65 0 -2 -192 -3 -192 -144
192 -143 192 -59 0 c-39 0 -61 -4 -64 -13z"/>
<path d="M3347 2763 c-4 -3 -7 -33 -7 -65 l0 -58 100 0 100 0 0 -240 0 -240
65 0 65 0 0 240 0 240 95 0 95 0 0 65 0 65 -253 0 c-140 0 -257 -3 -260 -7z"/>
<path d="M4300 2465 l0 -305 235 0 235 0 0 60 0 60 -175 0 -175 0 0 70 0 70
160 0 160 0 0 55 0 55 -160 0 -160 0 0 60 0 60 173 2 172 3 3 58 3 57 -236 0
-235 0 0 -305z"/>
<path d="M5265 2757 c-3 -7 -4 -143 -3 -302 l3 -290 63 -3 62 -3 0 203 0 202
150 -202 150 -202 60 0 60 0 0 305 0 305 -65 0 -65 0 -2 -192 -3 -192 -144
192 -143 192 -59 0 c-39 0 -61 -4 -64 -13z"/>
<path d="M6320 2466 l0 -306 133 0 c154 0 227 15 293 61 195 134 165 421 -54
522 -41 19 -69 22 -209 25 l-163 4 0 -306z m327 155 c84 -39 120 -146 78 -235
-32 -66 -97 -96 -211 -96 l-74 0 0 175 0 175 83 0 c59 0 94 -6 124 -19z"/>
<path d="M6018 1889 c-139 -18 -263 -83 -365 -192 -223 -240 -216 -605 17
-837 86 -87 164 -132 276 -160 184 -47 370 -10 522 105 59 44 136 130 130 145
-2 4 -43 41 -92 84 l-88 77 -27 -35 c-129 -169 -390 -187 -541 -36 -22 22 -52
63 -67 92 -25 48 -28 63 -28 153 0 86 3 107 25 150 74 153 257 236 416 190 74
-21 144 -65 188 -118 l34 -41 44 36 c24 19 66 56 93 80 l50 45 -39 48 c-130
158 -340 240 -548 214z"/>
<path d="M1072 1850 c-238 -63 -361 -222 -308 -402 38 -133 164 -198 499 -258
225 -40 291 -73 291 -144 0 -49 -29 -85 -92 -114 -54 -25 -66 -27 -202 -27
-161 0 -224 13 -343 67 -37 17 -69 29 -71 27 -12 -15 -107 -192 -104 -194 10
-11 170 -69 236 -87 110 -29 345 -36 465 -14 224 42 335 145 345 318 8 143
-32 217 -155 281 -88 46 -164 68 -358 107 -169 33 -217 49 -252 82 -31 29 -31
81 1 113 72 72 330 75 530 5 33 -11 63 -17 67 -13 7 8 79 177 79 187 0 9 -153
54 -239 70 -116 22 -296 20 -389 -4z"/>
<path d="M1924 1843 c3 -10 73 -259 156 -553 83 -294 153 -543 156 -552 5 -16
21 -18 144 -18 l139 0 11 38 c99 358 199 694 204 682 3 -8 50 -172 104 -365
l98 -350 140 -3 140 -3 159 558 c87 307 160 564 163 571 3 9 -25 12 -122 12
l-125 0 -14 -47 c-8 -27 -56 -207 -107 -400 -52 -194 -96 -353 -100 -353 -3 0
-50 152 -104 338 -54 185 -107 365 -118 400 l-19 63 -102 -3 -102 -3 -117
-400 c-64 -220 -117 -402 -118 -405 -1 -3 -46 159 -99 360 -54 201 -104 384
-110 408 l-12 42 -125 0 c-115 0 -125 -1 -120 -17z"/>
<path d="M3820 1290 l0 -570 130 0 130 0 -2 568 -3 567 -127 3 -128 3 0 -571z"/>
<path d="M4350 1735 l0 -125 180 0 180 0 0 -445 0 -445 125 0 125 0 0 445 0
445 178 2 177 3 0 120 0 120 -482 3 -483 2 0 -125z"/>
<path d="M6860 1290 l0 -570 120 0 120 0 0 225 0 225 265 0 265 0 0 -225 0
-225 120 0 120 0 -2 568 -3 567 -117 3 -118 3 0 -226 0 -225 -265 0 -265 0 0
225 0 225 -120 0 -120 0 0 -570z"/>
</g>
</svg>
