<svg enable-background="new 0 0 400 130.569" viewBox="0 0 400 130.569" xmlns="http://www.w3.org/2000/svg"><path d="m72.845 113.531c3.762 0 6.019-.767 6.019-4.343 0-2.647-1.642-4.063-5.403-4.063h-5.199v8.407h4.583zm-6.566 11.045v-21.155h7.729c5.472 0 6.909 2.735 6.909 5.909 0 4.727-4.241 5.903-8.14 5.903h-4.515v9.343zm17.305 0h1.71v-21.155h-1.71zm16.074-7.996c-1.504.615-3.078.739-4.582.856-2.668.204-4.309 1.175-4.309 3.228 0 1.861 1.642 2.736 3.284 2.736 2.804 0 5.608-1.355 5.608-4.439zm-3.009-.875c.684-.061 1.779-.239 2.326-.507.616-.26.684-1.053.684-1.579 0-1.792-1.094-3.085-3.83-3.085-2.394 0-4.104.793-4.446 3.434h-1.779c.274-3.585 2.941-5.028 6.293-5.028 3.078 0 5.472 1.211 5.472 4.733v8.284c0 1.381.41 1.703 1.846 1.175v1.382c-.205.089-.821.294-1.367.294-.274 0-.479-.027-.752-.088-1.231-.171-1.437-1.204-1.437-2.265-1.437 1.65-3.488 2.532-5.677 2.532-2.668 0-5.062-1.444-5.062-4.377 0-2.551 1.779-4.111 5.335-4.583zm9.096 13.01c.479.089.957.185 1.437.185 2.052 0 2.326-2.886 3.009-4.207l-5.951-15.335h1.984l4.925 13.078 4.856-13.078h1.916l-5.678 15.014c-1.437 3.816-2.394 6.198-4.856 6.198-.616 0-1.163-.088-1.642-.205zm16.347-10.458c.342 3.789 2.805 5.17 6.088 5.17 3.762 0 5.335-2.05 5.335-4.377 0-6.552-12.859-2.202-12.859-10.512 0-2.942 2.394-5.671 7.182-5.671 4.719 0 7.113 2.873 7.045 6.321h-1.846c0-3.236-2.531-4.617-5.199-4.617-4.104 0-5.541 2.496-5.199 4.671.889 5.458 12.928 1.525 12.928 9.719 0 3.886-2.873 6.171-7.729 6.171-4.446 0-7.729-2.285-7.729-6.874zm22.642 6.375c-.411.088-1.163.356-2.052.356-1.71 0-2.668-.766-2.668-3.03v-11.136h-2.189v-1.463h2.189v-4.234h1.779v4.234h2.805v1.463h-2.805v10.432c0 1.505 0 2.147 1.504 2.147.479 0 .957-.089 1.437-.205zm13.199-8.052c-1.504.615-3.008.739-4.514.856-2.667.204-4.309 1.175-4.309 3.228 0 1.861 1.642 2.736 3.284 2.736 2.804 0 5.539-1.355 5.539-4.439zm-2.941-.875c.616-.061 1.711-.239 2.326-.507.548-.26.615-1.053.615-1.579 0-1.792-1.026-3.085-3.762-3.085-2.462 0-4.104.793-4.446 3.434h-1.779c.273-3.585 2.941-5.028 6.224-5.028 3.079 0 5.541 1.211 5.541 4.733v8.284c0 1.381.343 1.703 1.848 1.175v1.382c-.274.089-.89.294-1.368.294-.274 0-.547-.027-.821-.088-1.163-.171-1.368-1.204-1.368-2.265-1.506 1.65-3.488 2.532-5.677 2.532-2.668 0-5.13-1.444-5.13-4.377 0-2.551 1.779-4.111 5.335-4.583zm15.118 8.927c-.41.088-1.163.356-2.052.356-1.71 0-2.668-.766-2.668-3.03v-11.136h-2.121v-1.463h2.121v-4.234h1.779v4.234h2.805v1.463h-2.805v10.432c0 1.505 0 2.147 1.504 2.147.478 0 .958-.089 1.437-.205zm5.267-.056h-1.711v-15.218h1.711zm-1.848-18.544v-2.611h1.984v2.611zm12.244 4.502c-3.694 0-5.13 3.139-5.13 6.429 0 3.79 1.779 6.436 5.13 6.436 3.693 0 5.199-3.174 5.199-6.436-.001-3.584-1.437-6.429-5.199-6.429zm-7.045 6.429c0-4.432 2.394-8.023 7.045-8.023 4.787 0 7.113 3.556 7.113 8.023 0 4.824-2.805 8.024-7.113 8.024-3.831-.061-7.045-2.702-7.045-8.024m18.399 7.613h-1.779v-15.218h1.779v2.113c1.367-1.498 2.805-2.531 4.856-2.531 1.915 0 3.557.588 4.651 2.175.751 1.094.821 2.236.821 3.495v9.965h-1.779v-9.931c0-2.728-1.162-4.111-3.967-4.111-2.189 0-3.694 1.409-4.24 2.961-.343.972-.343 1.827-.343 2.887v8.194m17.237-4.943c-.205-.096-.478-.144-.888-.144h-.548v1.409h.617c.272 0 .546-.027.683-.08.273-.109.411-.315.411-.616 0-.282-.138-.474-.275-.569zm-.752-.623c.48 0 .821.042 1.094.137.411.171.547.5.547.999 0 .349-.069.602-.341.766-.138.089-.341.151-.547.191.273.047.478.185.615.39.138.212.205.418.205.616v.287c0 .095 0 .198.069.295v.259h-.616v-.09l-.068-.122v-.315c0-.464-.138-.766-.343-.909-.136-.089-.409-.13-.752-.13h-.546v1.566h-.685v-3.94zm-2.119-.205c-.616.602-.89 1.334-.89 2.181 0 .869.274 1.602.89 2.203.615.609 1.299.909 2.189.909s1.573-.301 2.189-.909c.616-.603.89-1.334.89-2.203 0-.847-.274-1.579-.89-2.181-.615-.603-1.299-.904-2.189-.904s-1.574.301-2.189.904zm4.719 4.718c-.684.699-1.573 1.053-2.53 1.053-.959 0-1.848-.356-2.531-1.053-.685-.697-1.027-1.545-1.027-2.538 0-.978.341-1.826 1.027-2.517.683-.704 1.572-1.046 2.531-1.046.957 0 1.846.341 2.53 1.046.684.684 1.027 1.532 1.027 2.517 0 .995-.344 1.842-1.027 2.538m13.064-9.991c3.762 0 6.088-.767 6.088-4.343 0-2.647-1.71-4.063-5.472-4.063h-5.199v8.407h4.583zm-6.566 11.045v-21.155h7.73c5.472 0 6.907 2.735 6.907 5.909 0 4.727-4.173 5.903-8.139 5.903h-4.516v9.343zm22.503-14.042c-3.693 0-5.197 3.139-5.197 6.429 0 3.79 1.846 6.436 5.197 6.436 3.695 0 5.199-3.174 5.199-6.436-.068-3.584-1.437-6.429-5.199-6.429zm-7.045 6.429c0-4.432 2.326-8.023 7.044-8.023 4.789 0 7.046 3.556 7.046 8.023 0 4.824-2.805 8.024-7.046 8.024-3.897-.061-7.044-2.702-7.044-8.024m18.468 7.613h-1.779v-15.218h1.779v2.853h.069c.955-2.443 2.393-3.27 4.925-3.27v1.916c-3.968-.089-4.993 2.846-4.993 6.252v7.468m14.843.055c-.411.088-1.163.356-1.985.356-1.777 0-2.736-.766-2.736-3.03v-11.136h-2.12v-1.463h2.12v-4.234h1.779v4.234h2.872v1.463h-2.872v10.432c0 1.505.069 2.147 1.504 2.147.481 0 1.027-.089 1.437-.205zm12.653-8.052c-1.505.615-3.009.739-4.514.856-2.668.204-4.309 1.175-4.309 3.228 0 1.861 1.642 2.736 3.282 2.736 2.805 0 5.541-1.355 5.541-4.439zm-2.942-.875c.615-.061 1.71-.239 2.326-.507.548-.26.616-1.053.616-1.579 0-1.792-1.027-3.085-3.762-3.085-2.462 0-4.104.793-4.446 3.434h-1.779c.273-3.585 2.941-5.028 6.224-5.028 3.078 0 5.541 1.211 5.541 4.733v8.284c0 1.381.341 1.703 1.847 1.175v1.382c-.274.089-.89.294-1.367.294-.274 0-.548-.027-.821-.088-1.162-.171-1.367-1.204-1.367-2.265-1.505 1.65-3.488 2.532-5.679 2.532-2.666 0-5.13-1.444-5.13-4.377 0-2.551 1.779-4.111 5.335-4.583zm16.895 7.695c2.941 0 5.13-2.147 5.199-5.963.135-3.817-1.573-6.902-5.199-6.902-3.215 0-5.13 2.934-5.13 6.368-.001 3.679 1.779 6.497 5.13 6.497zm-5.131 1.176h-1.779v-21.155h1.779v8.371c1.096-1.847 3.283-2.853 5.405-2.853 4.65 0 6.771 3.796 6.771 8.057 0 4.487-1.915 7.989-6.84 7.989-1.984 0-4.24-1.087-5.334-3.085v2.675m16.074.001h1.777v-21.155h-1.777zm17.099-8.672c0-2.962-1.641-5.369-4.787-5.369-3.147 0-4.789 2.496-5.13 5.369zm-9.918 1.476c0 3.284 1.779 6.02 5.13 6.02 2.258 0 4.104-1.266 4.582-3.495h1.984c-.889 2.872-2.667 5.082-6.566 5.082-4.858 0-6.978-3.468-6.978-7.96 0-4.44 2.6-8.086 6.978-8.086 4.173 0 6.703 2.976 6.703 8.44zm-316.211-117.38h124.624v36.957h-119.7v32.032h-4.924v-36.957h119.699v-27.108h-119.699zm280.302 36.957v32.032h-4.925v-36.957h119.698v-27.108h-119.698v-4.924h124.623v36.957zm-92.135-36.957v64.063h-63.543v4.925h68.741v-64.064h63.544v-4.924z"/></svg>