<?xml version="1.0" encoding="UTF-8"?><svg xmlns="http://www.w3.org/2000/svg" xmlns:xlink="http://www.w3.org/1999/xlink" width="144" height="56"><rect width="113.41608" height="25.41016" rx="12.70508" ry="12.70508" x="15.291962" y="3.9132285" style="fill:#fff;stroke:red;stroke-width:3.40867996"/><path d="M39.3,23.3L39.3,10L35.3,10L35.3,19.3L29.4,10L25.1,10L25.1,23.3L29.1,23.3L29.1,13.7L35.3,23.3L39.3,23.3z" fill="red"/><path d="M45.8,23.3L45.8,14.3L41.8,14.3L41.8,23.3L45.8,23.3z" fill="red"/><path d="M45.8,12.4L45.8,10L41.8,10L41.8,12.4L45.8,12.4z" fill="red"/><path d="M59.8,23.3L59.8,17.1C59.8,15.8 57.3,14 56,14L54.8,14C53.9,14 52.9,14.8 52,15.2L52,14.3L48,14.3L48,23.3L52,23.3L52,17.1C52,16.5 53.4,15.8 54,15.8C54.6,15.8 55.7,16.5 55.7,17.1L55.7,23.3L59.8,23.3z" id="3162" fill="red"/><use transform="translate(33.46704,0.30988)" fill="red" width="467" height="187" xlink:href="#3162" href="#3162"/><path d="M66.3,23.3L66.3,14.3L68.4,14.3L68.4,13.1L66.3,13.1L66.3,11.2L62.2,11.2L62.2,13.1L60.1,13.1L60.1,14.3L62.2,14.3L62.2,23.3L66.3,23.3z" fill="red"/><path d="M74,14C70.8,14 68.1,16.2 68.1,18.9C68.1,21.7 70.8,23.9 74,23.9C76.8,23.9 79.1,22.3 79.7,20.2L75.6,20.2L75.6,21.4C75.6,22.4 74.9,22.7 74,22.7C73.1,22.7 72.5,22.4 72.5,21.4L72.5,18.9L79.9,18.9C79.9,16.2 77.3,14 74,14z M74,14.9C74.9,14.9 75.6,15.5 75.6,16.5L75.6,17.4L72.5,17.4L72.5,16.5C72.5,15.5 73.1,14.9 74,14.9z" style="fill:red;stroke:none;stroke-width:11"/><path d="M113.4,14C110.1,14 107.5,16.2 107.5,18.9C107.5,21.7 110.1,23.9 113.4,23.9C116.6,23.9 119.3,21.7 119.3,18.9C119.3,16.2 116.6,14 113.4,14z M113.4,14.9C114.3,14.9 114.9,15.5 114.9,16.5L114.9,21.4C114.9,22.4 114.3,22.7 113.4,22.7C112.4,22.7 111.8,22.4 111.8,21.4L111.8,16.5C111.8,15.5 112.4,14.9 113.4,14.9z" style="fill:red;stroke:none;stroke-width:11"/><path d="M101.9,10L101.9,14.9C101.9,14.9 100.7,14 99.1,14C96.6,14 94.5,16.2 94.5,18.6C94.5,21.1 96.6,23.6 99.1,23.6C100.7,23.6 101.9,23 101.9,23L101.9,23.3L105.9,23.3L105.9,10L101.9,10z M100.4,15.5C101.3,15.5 101.9,16.2 101.9,17.1L101.9,20.8C101.9,21.7 101.3,22 100.4,22C99.4,22 98.8,21.7 98.8,20.8L98.8,17.1C98.8,16.2 99.4,15.5 100.4,15.5z" fill="red"/><path d="M121.7,12.1C121.7,13.1 120.8,14 119.8,14C118.7,14 117.9,13.1 117.9,12.1C117.9,11 118.7,10.1 119.8,10.1C120.8,10.1 121.7,11 121.7,12.1z M120.3,12.9L119.9,12.2L119.2,12.2L119.9,12.2C120.5,12.2 120.5,11.2 119.9,11.2L119.2,11.2L119.2,12.9" style="fill:none;fill-opacity:0.5;stroke:red;stroke-width:0.31939518"/><path d="M23.6,42.8L23.6,37C23.6,35.9 22.5,34.8 21.4,34.8L13,34.8L13,42.8L15.6,42.8L15.6,37.4C15.6,37 15.9,36.6 16.3,36.6L20.3,36.6C20.7,36.6 21.1,37 21.1,37.4L21.1,42.8L23.6,42.8z" id="2399"/><use transform="translate(69.392541,0)" id="use3171" width="467" height="187" xlink:href="#2399" href="#2399"/><use transform="translate(37.983286,0)" width="467" height="187" xlink:href="#use3171" href="#use3171"/><path d="M108.3,42.8L108.3,37C108.3,35.9 107.2,34.8 106.1,34.8L94.8,34.8L94.8,42.8L97.4,42.8L97.4,37.4C97.4,37 97.7,36.6 98.1,36.6L99.6,36.6C99.9,36.6 100.3,37 100.3,37.4L100.3,42.8L102.9,42.8L102.9,37.4C102.9,37 103.2,36.6 103.6,36.6L105.1,36.6C105.4,36.6 105.8,37 105.8,37.4L105.8,42.8L108.3,42.8z" id="3177"/><path d="M11.2,42.8L4.6,42.8C3.5,42.8 2.4,42.1 2.4,41L2.4,34.7L11.2,34.7L11.2,36.6L5.3,36.6C5,36.6 4.6,36.9 4.6,37.3C4.6,37.7 5,38 5.3,38L10.8,38L10.8,39.6L5.3,39.6C5,39.6 4.6,40 4.6,40.3C4.6,40.7 5,41.1 5.3,41.1L11.2,41.1L11.2,42.8z" id="3181"/><use transform="translate(32.504927,0)" width="467" height="187" xlink:href="#3181" href="#3181"/><use transform="translate(107.74105,-1.1764415e-7)" width="467" height="187" xlink:href="#3181" href="#3181"/><path d="M24.7,34.8L24.7,36.6L27.3,36.6C28,36.6 28,36.6 28,37.4L28,42.8L30.5,42.8L30.5,37.4C30.5,36.6 30.5,36.6 31.3,36.6L33.8,36.6L33.8,34.8L24.7,34.8z" id="2391"/><use transform="translate(31.774479,0)" width="467" height="187" xlink:href="#2391" href="#2391"/><use transform="translate(107.74105,0)" width="467" height="187" xlink:href="#2391" href="#2391"/><path d="M45.5,34.8L45.5,42.8L48.1,42.8L48.1,41.4C48.1,41 48.4,40.6 48.8,40.6L52.1,40.6C52.5,40.6 52.8,41 52.8,41.4L52.8,42.8L55,42.8L55,40.6C55,40.3 54.7,39.9 54.7,39.5C54.7,39.2 55.4,38.5 55.4,37.7L55.4,37C55.4,36.3 54.3,34.8 53.6,34.8L45.5,34.8z M48.8,36.6L52.1,36.6C52.5,36.6 52.8,37 52.8,37.4L52.8,38.1C52.8,38.5 52.5,38.8 52.1,38.8L48.8,38.8C48.4,38.8 48.1,38.5 48.1,38.1L48.1,37.4C48.1,37 48.4,36.6 48.8,36.6z"/><path d="M68.5,34.8C67.8,34.8 66.7,36.3 66.7,37L66.7,42.8L69.3,42.8L69.3,40.6L74,40.6L74,42.8L76.6,42.8L76.6,37C76.6,36.3 75.5,34.8 74.7,34.8L68.5,34.8z M70,36.6L73.3,36.6C73.6,36.6 74,37 74,37.4L74,38.8L69.3,38.8L69.3,37.4C69.3,37 69.6,36.6 70,36.6z"/><path d="M80.9,42.8L80.9,34.8L78.4,34.8L78.4,42.8L80.9,42.8z"/><use transform="translate(-3.2870161,10.957013)" width="467" height="187" xlink:href="#3177" href="#3177"/><use transform="translate(78.523138,10.957013)" width="467" height="187" xlink:href="#3181" href="#3181"/><use transform="translate(46.01821,10.957013)" width="467" height="187" xlink:href="#2391" href="#2391"/><path d="M41.1,45.8C40.4,45.8 38.9,46.9 38.9,47.6L38.9,48.7C38.9,49.4 40.4,50.5 41.1,50.5L45.5,50.5C45.9,50.5 46.3,50.9 46.3,51.2C46.3,51.6 45.9,52 45.5,52L38.9,52L38.9,53.8L46.3,53.8C47,53.8 48.4,52.7 48.4,52L48.4,50.9C48.4,50.1 47,49 46.3,49L41.9,49C41.5,49 41.1,48.7 41.1,48.3C41.1,47.9 41.5,47.6 41.9,47.6L48.4,47.6L48.4,45.8L41.1,45.8z" id="3187"/><use transform="translate(21.182986,0)" width="467" height="187" xlink:href="#3187" href="#3187"/><path d="M49.2,45.8L49.2,49.4C49.2,50.1 50.3,51.2 51,51.2L52.8,51.2L52.8,53.8L55.4,53.8L55.4,51.2L57.2,51.2C57.9,51.2 59,50.1 59,49.4L59,45.8L56.5,45.8L56.5,48.7C56.5,49 56.1,49.4 55.7,49.4L52.5,49.4C52.1,49.4 51.7,49 51.7,48.7L51.7,45.8L49.2,45.8z"/></svg>