<?xml version="1.0" encoding="utf-8"?>
<!-- Generator: Adobe Illustrator 26.0.3, SVG Export Plug-In . SVG Version: 6.00 Build 0)  -->
<svg version="1.1" id="Layer_1" xmlns="http://www.w3.org/2000/svg" xmlns:xlink="http://www.w3.org/1999/xlink" x="0px" y="0px"
	 viewBox="0 0 3839 1526.6" style="enable-background:new 0 0 3839 1526.6;" xml:space="preserve">
<style type="text/css">
	.st0{fill:#FFFFFF;}
	.st1{fill:#E31E26;}
</style>
<g>
	<g>
		<g>
			<g>
				<path class="st1" d="M773,531.4L591.1,236.6H459v422h130.7V363.8l183.1,294.8h130.7v-422H773V531.4z M1807.3,378v-41.7h-69v-57
					h-127.2v57h-69V378h69v280.6h127.2V378H1807.3z M976.2,658.6h127.2V378H976.2V658.6z M976.2,322.2h127.2v-86.7H976.2V322.2z
					 M3199.4,359c-102.2,0-185.4,70.2-185.4,158.1c0,86.7,83.2,158.1,185.4,158.1s185.4-70.2,185.4-158.1
					C3384.8,429.2,3304.1,359,3199.4,359z M3250.6,575.4c0,45.2-26.2,63-52.3,63c-25,0-52.3-19-52.3-63c0-16.7,0-60.7,0-60.7
					s0-41.7,0-58.2c0-44,26.2-63,52.3-63c25,0,52.3,17.8,52.3,63c0,16.7,0,48.7,0,59.5C3250.6,517.2,3250.6,558.8,3250.6,575.4z
					 M2848.7,392.3c-20.2-11.9-41.7-22.5-71.4-25c-91.5-8.3-161.7,72.5-161.7,147.4c0,97.5,74.9,134.4,86.7,139.1
					c42.8,20.2,97.5,20.2,146.2-10.7c0,2.4,0,16.7,0,16.7h125v-422h-124.9C2848.7,236.6,2848.7,327,2848.7,392.3z M2848.7,517.2
					c0,0,0,32.1,0,49.9c0,42.8-29.7,54.7-49.9,54.7s-49.9-11.9-49.9-54.7c0-15.5,0-49.9,0-49.9s0-35.7,0-49.9
					c0-44,29.7-54.7,49.9-54.7s49.9,10.7,49.9,54.7C2848.7,481.5,2848.7,517.2,2848.7,517.2z M1400.6,365
					c-41.7,1.2-77.2,19-101,42.8c0-7.2,0-29.7,0-29.7h-126v280.6h126c0,0,0-172.4,0-184.3c0-25,26.2-51.2,60.7-51.2
					s58.2,27.3,58.2,51.2c0,17.8,0,184.3,0,184.3h126c0,0,0-133.2,0-152.2C1544.5,394.7,1448.3,363.8,1400.6,365z M2432.6,365
					c-41.7,1.2-77.2,19-101,42.8c0-7.2,0-29.7,0-29.7h-126v280.6h125.9c0,0,0-172.4,0-184.3c0-25,26.2-51.2,60.7-51.2
					s58.2,27.3,58.2,51.2c0,17.8,0,184.3,0,184.3h126c0,0,0-133.2,0-152.2C2575.3,394.7,2478.9,363.8,2432.6,365z M2165.1,519.6
					c0-86.7-84.4-159.3-187.9-159.3c-103.4,0-186.6,70.2-186.6,158.1c0,86.7,83.2,158.1,186.6,158.1c85.6,0,158.1-48.7,180.7-115.4
					h-126c0,0,0,1.2,0,16.7c0,51.2-33.3,63-52.3,63s-53.5-11.9-53.5-63c0-15.5,0-58.2,0-58.2H2165.1z M1935.7,420.9
					c9.5-17.8,28.5-25,45.2-26.2c16.7,0,34.5,8.3,45.2,26.2c8.3,14.3,8.3,30.9,8.3,54.7h-105.9
					C1926.2,450.6,1926.2,435.2,1935.7,420.9z M3437.2,288.9c0-14.3-10.7-20.2-30.9-20.2h-28.5v72.5h17.8v-29.7h8.3l14.3,29.7h19
					l-15.5-32.1C3431.3,305.5,3437.2,298.4,3437.2,288.9z M3403.9,299.6h-8.3v-21.4h7.2c10.7,0,15.5,3.5,15.5,10.7
					C3419.3,297.3,3413.4,299.6,3403.9,299.6z M3403.9,240.1c-35.7,0-65.4,28.5-65.4,65.4c0,35.7,29.7,65.4,65.4,65.4
					s65.4-29.7,65.4-65.4C3469.3,268.6,3439.5,240.1,3403.9,240.1z M3403.9,357.8c-28.5,0-52.3-23.8-52.3-52.3s23.8-52.3,52.3-52.3
					s52.3,23.8,52.3,52.3C3456.1,334.1,3433.6,357.8,3403.9,357.8z M3262.4,0H573.2C289.1-1.2,97.7,204.5,97.7,449.4
					s190.2,447,476.7,447h2688c285.3,0,476.7-202.1,476.7-447C3738,203.3,3546.5-1.2,3262.4,0z M3261.2,787H574.4
					c-227.1,1.2-365-151-365-338.8s139.1-337.6,365-338.8h2686.8c225.9,0,365,151,365,338.8S3487.2,787,3261.2,787z M3262.4,0H573.2
					C289.1-1.2,97.7,204.5,97.7,449.4s190.2,447,476.7,447h2688c285.3,0,476.7-202.1,476.7-447C3738,203.3,3546.5-1.2,3262.4,0z
					 M3261.2,787H574.4c-227.1,1.2-365-151-365-338.8s139.1-337.6,365-338.8h2686.8c225.9,0,365,151,365,338.8
					S3487.2,787,3261.2,787z M3262.4,0H573.2C289.1-1.2,97.7,204.5,97.7,449.4s190.2,447,476.7,447h2688
					c285.3,0,476.7-202.1,476.7-447C3738,203.3,3546.5-1.2,3262.4,0z M3261.2,787H574.4c-227.1,1.2-365-151-365-338.8
					s139.1-337.6,365-338.8h2686.8c225.9,0,365,151,365,338.8S3487.2,787,3261.2,787z"/>
			</g>
		</g>
	</g>
	<g>
		<path class="st0" d="M1429.8,1137.6C1429.8,1137.6,1430.1,1137.8,1429.8,1137.6c19.5-12.6,32.6-35,32.6-60.4
			c0-39.4-31.1-71.4-69.7-71.4h-15.5h-188.4v79.7v137.9h72.6V1181c0-7.5,6.1-13.5,13.5-13.5h98.9c7.5,0,13.5,6.1,13.5,13.5v1.3v41
			h69.3v-41C1456.4,1171.7,1451.9,1152.2,1429.8,1137.6z M1275.2,1112.9c-7.5,0-13.5-6.1-13.5-13.5v-27.7c0-7.5,6.1-13.5,13.5-13.5
			h98.9c7.5,0,13.5,6.1,13.5,13.5v27.7c0,7.5-6.1,13.5-13.5,13.5H1275.2z"/>
		<path class="st0" d="M1977.1,1005.8h-16.5H1922h-26.2h-38.6h-16.5c-35.7,0-64.6,28.9-64.6,64.6v17.4v135.6h71.2v-53.6h123.2v53.6
			h71.2v-135.6v-17.4C2041.7,1034.7,2012.8,1005.8,1977.1,1005.8z M1847.6,1112.8v-34.5c0-9.9,8-17.9,17.9-17.9h30.5h26.2h30.5
			c9.9,0,17.9,8,17.9,17.9v34.5H1847.6z"/>
		<rect x="2090.2" y="1005.8" class="st0" width="73.7" height="217.6"/>
		<path class="st0" d="M2440.6,1005.8h-231.5v217.6h70.2v-145.8c0-8.8,7.2-16,16-16h120.3c8.8,0,16,7.2,16,16v44.4v101.4h69V1122
			v-17.5v-26.3v-12.5C2500.5,1032.6,2473.7,1005.8,2440.6,1005.8z"/>
		<path class="st0" d="M2863.4,1005.8h-316.7v217.6h64.2v-136.1V1077c0-8.5,6.9-15.4,15.4-15.4h54.9c8.5,0,15.4,6.9,15.4,15.4v26.5
			l0,0v119.9h72.5v-136.1V1077c0-8.5,6.9-15.4,15.4-15.4h54.9c8.5,0,15.4,6.9,15.4,15.4v10.3v136.1h3.5h69v-153.8
			C2927.2,1034.3,2898.6,1005.8,2863.4,1005.8z"/>
		<path class="st0" d="M3485.6,1005.8h-231.5v217.6h70.2v-145.8c0-8.8,7.2-16,16-16h120.3c8.8,0,16,7.2,16,16v44.4v101.4h69V1122
			v-17.5v-26.3v-12.5C3545.5,1032.6,3518.7,1005.8,3485.6,1005.8z"/>
		<path class="st0" d="M520.6,1005.8H289.1v217.6h70.2v-145.8c0-8.8,7.2-16,16-16h120.3c8.8,0,16,7.2,16,16v44.4v101.4h69V1122
			v-17.5v-26.3v-12.5C580.5,1032.6,553.7,1005.8,520.6,1005.8z"/>
		<path class="st0" d="M243.7,1061.1v-55.3H64.1l0,0H0v153.7c0,35.4,28.6,64,64,64h179.7v-55.3H81.3c-9.5,0-17.2-7.7-17.2-17.2l0,0
			c0-9.5,7.7-17.2,17.2-17.2h152.9v-38.4H81.3c-9.5,0-17.2-7.7-17.2-17.2l0,0c0-9.5,7.7-17.2,17.2-17.2L243.7,1061.1z"/>
		<path class="st0" d="M1147,1061.1v-55.3H967.4l0,0h-64.1v153.7c0,35.4,28.6,64,64,64H1147v-55.3H984.6c-9.5,0-17.2-7.7-17.2-17.2
			l0,0c0-9.5,7.7-17.2,17.2-17.2h152.9v-38.4H984.6c-9.5,0-17.2-7.7-17.2-17.2l0,0c0-9.5,7.7-17.2,17.2-17.2L1147,1061.1z"/>
		<path class="st0" d="M3211.2,1061.1v-55.3h-179.6l0,0h-64.1v153.7c0,35.4,28.6,64,64,64h179.7v-55.3h-162.4
			c-9.5,0-17.2-7.7-17.2-17.2l0,0c0-9.5,7.7-17.2,17.2-17.2h152.9v-38.4h-152.9c-9.5,0-17.2-7.7-17.2-17.2l0,0
			c0-9.5,7.7-17.2,17.2-17.2L3211.2,1061.1L3211.2,1061.1z"/>
		<path class="st0" d="M3839,1005.8h-261.7v54.7h77c8.4,0,15.2,6.8,15.2,15.2v147.7h77.3v-147.7c0-8.4,6.8-15.2,15.2-15.2h77V1005.8
			z"/>
		<path class="st0" d="M1746.9,1005.8h-261.7v54.7h77c8.4,0,15.2,6.8,15.2,15.2v147.7h77.3v-147.7c0-8.4,6.8-15.2,15.2-15.2h77
			L1746.9,1005.8L1746.9,1005.8z"/>
		<path class="st0" d="M870.5,1005.8H608.9v54.7h77c8.4,0,15.2,6.8,15.2,15.2v147.7h77.3v-147.7c0-8.4,6.8-15.2,15.2-15.2h77v-54.7
			H870.5z"/>
	</g>
	<g>
		<path class="st0" d="M1779.9,1397.4h-102.2c-11.9,0-20.2-4.8-20.2-15.6c0-9.6,7.2-17.9,16.7-17.9H1849v-55h-191.4
			c-35.7,0-65.4,29.9-65.4,63.3c0,47.8,30.9,65.8,72.5,65.8h102.2c10.7,0,21.4,4.8,21.4,15.6c0,9.6-7.2,17.9-16.7,17.9H1592v55
			h196.1c32.1,0,65.4-26.3,65.4-63.3C1853.6,1418.9,1817.9,1397.4,1779.9,1397.4z"/>
		<path class="st0" d="M1195,1397.5h-99.9c-11.9,0-21.4-4.8-21.4-15.6c0-9.5,9.5-17.9,17.8-17.9h174.8v-55h-191.4
			c-38,0-69,29.9-69,63.3c0,47.7,33.3,65.7,74.9,65.7h99.9c11.9,0,21.4,4.8,21.4,15.6c0,9.5-9.5,17.9-17.8,17.9h-177.2v55h196.1
			c35.7,0,67.7-26.3,67.7-63.3C1271.1,1419,1236.6,1397.5,1195,1397.5z"/>
		<path class="st0" d="M2768.3,1309h-316.7v217.6h64.2v-136.1v-10.3c0-8.5,6.9-15.4,15.4-15.4h54.9c8.5,0,15.4,6.9,15.4,15.4v26.5
			l0,0v119.9h72.5v-136.1v-10.3c0-8.5,6.9-15.4,15.4-15.4h54.9c8.5,0,15.4,6.9,15.4,15.4v10.3v136.1h3.5h69v-153.8
			C2832.1,1337.5,2803.5,1309,2768.3,1309z"/>
		<path class="st0" d="M1560,1309h-65.4h-0.4v81.2c0,9.1-7.4,16.4-16.4,16.4h-97.7c-9.1,0-16.4-7.4-16.4-16.4V1309h-1.5h-67.4v79.7
			v11.4c0,34.4,27.9,62.3,62.3,62.3h32.8v64.2h76.1v-64.2h33.4c34.4,0,62.3-27.9,62.3-62.3V1309H1560L1560,1309z"/>
		<path class="st0" d="M2408.5,1364.2v-55.3h-179.6l0,0h-64.1v153.7c0,35.4,28.6,64,64,64h179.7v-55.3h-162.4
			c-9.5,0-17.2-7.7-17.2-17.2l0,0c0-9.5,7.7-17.2,17.2-17.2H2399v-38.4h-152.9c-9.5,0-17.2-7.7-17.2-17.2l0,0
			c0-9.5,7.7-17.2,17.2-17.2L2408.5,1364.2L2408.5,1364.2z"/>
		<path class="st0" d="M2137.2,1308.9h-261.7v54.7h77c8.4,0,15.2,6.8,15.2,15.2v147.7h77.3v-147.7c0-8.4,6.8-15.2,15.2-15.2h77
			V1308.9z"/>
	</g>
</g>
</svg>
