<?xml version="1.0" encoding="utf-8"?>
<!-- Generator: Adobe Illustrator 26.0.3, SVG Export Plug-In . SVG Version: 6.00 Build 0)  -->
<svg version="1.1" id="Layer_1" xmlns="http://www.w3.org/2000/svg" xmlns:xlink="http://www.w3.org/1999/xlink" x="0px" y="0px"
	 viewBox="0 0 2140.5 2159" style="enable-background:new 0 0 2140.5 2159;" xml:space="preserve">
<style type="text/css">
	.st0{fill:#FFFFFF;}
	.st1{fill-rule:evenodd;clip-rule:evenodd;fill:#FFFFFF;}
	.st2{fill-rule:evenodd;clip-rule:evenodd;}
	.st3{fill:#00AD9C;}
	.st4{fill:#FBB817;}
	.st5{fill:#0174BA;}
	.st6{fill:#EB2027;}
</style>
<g>
	<g>
		<g>
			<g>
				<path class="st0" d="M143.1,1778.1v275.4h43v-249h39.8c0,0,28.9,0,38.8,13c8.3,11,10,30.9,10,44.3c0,14.4-1,36.6-5.8,44.8
					c-7.4,12.4-19.4,14.9-30.4,14.9h-26.2v24.4H250c0,0,34.1,1.5,48.8-13.4c17.9-18.3,22.5-42.8,22.5-75.7c0-29.9-10.8-60-33-70.2
					c-18.4-8.5-51.4-8.5-51.4-8.5H143.1z"/>
				<rect x="355" y="1778.1" class="st0" width="43" height="275.4"/>
				<polygon class="st0" points="626.7,1842.3 705.3,2048.5 660.3,2159 695.9,2159 825.9,1842.3 786,1842.3 729.4,1996.7 
					676.7,1842.3 				"/>
				<path class="st0" d="M858.3,2051.8v-26c0,0,45.5,1.8,54.9,1.8c21,0,31.5-4.5,39.3-12.9c4.7-5,8.9-27.6,8.9-35.6
					c0-7.9-1.5-25.2-4.7-32.2c-3.1-7-10.4-13.4-21.4-14.4c-7.8-0.7-19.9-2.2-34.1-2.9c-19.9-0.9-33-11.3-39.3-18.7
					c-6.3-7.5-14.7-18.7-14.7-53c0-34.4,8.9-53.7,17.8-62.7c8.9-8.9,22-12.9,32-14.7c11.5-1.9,30.4-2.1,30.4-2.1l60.1,1.8v26
					c0,0-43.8-1.7-53.3-1.7c-21,0-27.3,4.5-35.2,13c-4.6,5-8.2,18.9-8.2,26.9c0,8,1,24.1,4.1,31.1c3.1,7,10.5,13.4,21.5,14.4
					c7.8,0.7,19.9,2.2,34,2.9c19.9,1,33.1,11.3,39.3,18.7c6.3,7.5,14.7,23.2,14.7,57.5c0,34.4-8.9,58.9-17.8,67.9
					c-8.9,8.9-22,12.9-32,14.6c-11.5,2-30.4,2.1-30.4,2.1L858.3,2051.8z"/>
				<path class="st0" d="M1092.8,1804.5h-43v202.2c0,0,1,18.5,2.1,24.9c1.1,6.5,10.4,21.9,35.1,21.9l44.5-0.9v-26
					c0,0-12.1,0.9-19.4,0.9c-7.4,0-16.3-0.5-17.8-12.9c-1.6-12.4-1.6-27.3-1.6-27.3v-119h48.4v-25.9h-48.4V1804.5z"/>
				<rect x="1507.5" y="1842.3" class="st0" width="43" height="211.1"/>
				<rect x="1507.5" y="1778.1" class="st0" width="43" height="38.3"/>
				<path class="st0" d="M1686.4,1840.5c29.2,0,51.8,6.6,64.1,16.5c12.3,9.8,27.4,30.7,27.4,90.9c0,60.3-15.1,81.1-27.4,90.9
					c-12.3,9.9-34.9,16.5-64.1,16.5c-29.3,0-51.9-6.6-64.2-16.5c-12.2-9.8-27.4-30.7-27.4-90.9c0-60.3,15.1-81.1,27.4-90.9
					C1634.5,1847.1,1657,1840.5,1686.4,1840.5 M1656.8,1881c-5.8,7.2-13.1,22.5-13.1,66.8c0,44.3,7.2,59.6,13.1,66.8
					c5.9,7.3,16.8,12.1,30.9,12.1c14,0,24.9-4.8,30.8-12.1c5.9-7.2,13.1-22.6,13.1-66.8c0-44.3-7.2-59.6-13.1-66.8
					c-5.9-7.3-16.8-12.1-30.8-12.1C1673.6,1869,1662.7,1873.7,1656.8,1881"/>
				<path class="st0" d="M1866.9,1872l42.1-1.8c11,0,24,3,30.2,11c5.9,7.5,9.6,16.4,9.6,30.9v141.2h43v-144.7
					c0-27.4-8.3-43.3-20.9-53.2c-18.1-14.3-50.3-13-50.3-13l-96.3,1.7v209.1h42.6V1872z"/>
				<path class="st0" d="M1421.9,1804.5h-43v202.2c0,0,1.2,18.5,2.2,24.9c1,6.5,10.5,21.9,35.1,21.9l44.5-0.9v-26
					c0,0-12,0.9-19.4,0.9c-7.4,0-16.2-0.5-17.8-12.9c-1.6-12.4-1.6-27.3-1.6-27.3v-119h48.5v-25.9h-48.5V1804.5z"/>
				<path class="st0" d="M561.1,1912c0-14.5-3.6-23.4-9.5-30.9c-6.3-8-19.3-11-30.3-11l-56.7,1.8v-27.9l68.2-1.7
					c0,0,32.3-1.3,50.3,13c12.6,10,21,25.9,21,53.2v142.7l-82.3,1.8c0,0-37.4,0.1-56.1-7.5c-18.4-7.5-28.3-27.9-28.3-56.3
					c0-27.4,8.3-43.3,20.9-53.3c18.1-14.3,50.3-13,50.3-13h26.3v24.4h-14.6c-11,0-22.5,2-28.8,9.9c-5.9,7.5-9,13.9-9,28.4
					c0,18.9,3.7,27.4,12.6,33.9c7.9,5.7,22,7,37.8,7l28.3-1.8V1912z"/>
				<path class="st0" d="M1285.9,1912c0-14.5-3.7-23.4-9.6-30.9c-6.3-8-19.2-11-30.3-11l-56.7,1.8v-27.9l68.2-1.7
					c0,0,32.3-1.3,50.3,13c12.6,10,21,25.9,21,53.2v142.7l-82.3,1.8c0,0-37.4,0.1-56.1-7.5c-18.3-7.5-28.3-27.9-28.3-56.3
					c0-27.4,8.4-43.3,21-53.3c18-14.3,50.3-13,50.3-13h26.2v24.4h-14.7c-11,0-22.4,2-28.7,9.9c-5.9,7.5-9,13.9-9,28.4
					c0,18.9,3.7,27.4,12.6,33.9c7.9,5.7,22,7,37.7,7l28.4-1.8V1912z"/>
			</g>
		</g>
	</g>
	<g>
		<g>
			<path class="st3" d="M956.8,1052.7l-311.3-91.5c0,0-382.2,136.7-412.5,146.9c-30.3,10.3-72.2,26.8-72.2,26.8l298.9,95.9
				L956.8,1052.7"/>
			<path class="st3" d="M951.1,1388.6l-303.2-97.3l505.3-180.8l321.1,94.4c0,0-422.2,149.5-447.8,158.7
				C1000.8,1372.7,951.1,1388.6,951.1,1388.6"/>
			<path class="st3" d="M1977.9,1352.8l-307.7-90.4l-525.9,188.2l296.7,95.2c0,0,457.4-164.4,480-172.1
				C1943.6,1366.1,1977.9,1352.8,1977.9,1352.8"/>
			<polyline class="st4" points="1441,1545.8 1147.7,1651.7 848.9,1556.2 1144.3,1450.6 1441,1545.8 			"/>
			<path class="st4" d="M647.9,1291.3l303.2,97.3c-338.5,111.6-591.9,71.3-747.9,28.2c-155.9-43.1-199-88.7-203.1-144.1
				c-4.1-55.3,80.5-104.6,160.7-137.8l298.9,95.9l-75.9,27c-33.3,11.3-100.5,44.6-44.6,70.8c59.9,28,172.4,13.3,233.4-9.7
				L647.9,1291.3"/>
			<polyline class="st5" points="956.8,1052.7 645.4,961.2 803.9,905.3 1111.8,997.5 956.8,1052.7 			"/>
			<path class="st5" d="M1474.3,1204.8l-321.1-94.4c146.7-56.3,262-85.9,428.2-91.1c183.6-5.6,324.4,38.2,372.9,53.3
				c102,31.8,179,73.8,185.7,130.2c8.8,74.1-99.6,127.3-162.1,149.9l-307.7-90.4c0,0,75.4-26.6,105.1-36.8
				c29.7-10.3,60.5-30.8,54.4-49.2c-6.2-18.4-43.1-26.9-52.3-28.2c-18.4-2.6-50.9-7.1-106.7-2.1c-45.7,4.1-79,16.9-79,16.9
				L1474.3,1204.8"/>
			<path class="st6" d="M798.8,0v1541.8l348.9,109.8V359.4c0-60.6,27.1-101.1,70.7-87.2c57,15.9,68,71.7,68,132.3V921
				c217.5,104.9,388.7-0.2,388.7-277.3c0-284.4-100.2-410.6-395.6-512C1163.3,92.6,947.2,27.5,798.8,0"/>
		</g>
	</g>
</g>
</svg>
