<?xml version="1.0" encoding="utf-8"?>
<!-- Generator: Adobe Illustrator 26.0.3, SVG Export Plug-In . SVG Version: 6.00 Build 0)  -->
<svg version="1.1" id="Layer_1" xmlns="http://www.w3.org/2000/svg" xmlns:xlink="http://www.w3.org/1999/xlink" x="0px" y="0px"
	 viewBox="0 0 3839 730.7" style="enable-background:new 0 0 3839 730.7;" xml:space="preserve">
<style type="text/css">
	.st0{fill:#FFFFFF;}
	.st1{fill-rule:evenodd;clip-rule:evenodd;fill:#FFFFFF;}
	.st2{fill-rule:evenodd;clip-rule:evenodd;}
	.st3{fill:#00AD9C;}
	.st4{fill:#FBB817;}
	.st5{fill:#0174BA;}
	.st6{fill:#EB2027;}
</style>
<g>
	<g>
		<path class="st0" d="M1215.8,213.1v374.2h58.4V249h54.1c0,0,39.2,0,52.7,17.6c11.3,14.9,13.6,42,13.6,60.2
			c0,19.6-1.3,49.8-7.8,60.9c-10,16.8-26.4,20.2-41.4,20.2h-35.6v33.2h51.3c0,0,46.3,2,66.3-18.3c24.3-24.8,30.5-58.2,30.5-102.9
			c0-40.7-14.7-81.5-44.8-95.4c-25-11.5-69.9-11.5-69.9-11.5H1215.8z"/>
		<rect x="1503.8" y="213.1" class="st0" width="58.5" height="374.2"/>
		<polygon class="st0" points="1873,300.4 1979.9,580.5 1918.6,730.7 1967,730.7 2143.7,300.4 2089.5,300.4 2012.6,510.1 
			1941,300.4 		"/>
		<path class="st0" d="M2187.7,585v-35.3c0,0,61.8,2.4,74.6,2.4c28.6,0,42.7-6.1,53.4-17.6c6.4-6.8,12.1-37.4,12.1-48.4
			c0-10.8-2.1-34.3-6.4-43.8c-4.2-9.5-14.1-18.3-29.1-19.5c-10.7-0.9-27.1-3-46.4-3.9c-27-1.3-44.8-15.3-53.4-25.4
			c-8.5-10.2-20-25.4-20-72c0-46.8,12.2-72.9,24.2-85.2c12.1-12.1,29.9-17.5,43.5-20c15.6-2.6,41.3-2.8,41.3-2.8l81.6,2.4v35.3
			c0,0-59.5-2.4-72.4-2.4c-28.6,0-37.1,6.1-47.8,17.6c-6.3,6.8-11.2,25.7-11.2,36.5c0,10.9,1.3,32.8,5.5,42.2
			c4.3,9.5,14.3,18.3,29.3,19.5c10.6,0.9,27,3,46.3,4c27,1.3,44.9,15.3,53.4,25.4c8.6,10.2,20,31.5,20,78.1
			c0,46.7-12.1,80.1-24.2,92.3c-12.1,12.2-29.9,17.6-43.4,19.9c-15.6,2.7-41.3,2.9-41.3,2.9L2187.7,585z"/>
		<path class="st0" d="M2506.4,249H2448v274.7c0,0,1.4,25.1,2.8,33.8c1.4,8.8,14.2,29.8,47.7,29.8l60.5-1.2v-35.3
			c0,0-16.4,1.2-26.3,1.2c-10,0-22.1-0.7-24.2-17.6c-2.1-16.9-2.1-37.1-2.1-37.1V335.5h65.8v-35.1h-65.8V249z"/>
		<rect x="3070" y="300.4" class="st0" width="58.4" height="286.8"/>
		<rect x="3070" y="213.1" class="st0" width="58.4" height="52.1"/>
		<path class="st0" d="M3313,297.9c39.7,0,70.5,9,87.1,22.4c16.7,13.4,37.2,41.7,37.2,123.6c0,81.9-20.5,110.2-37.2,123.5
			c-16.6,13.5-47.4,22.4-87.1,22.4c-39.8,0-70.5-8.9-87.3-22.4c-16.6-13.4-37.2-41.7-37.2-123.5c0-81.9,20.6-110.2,37.2-123.6
			C3242.5,306.9,3273.1,297.9,3313,297.9 M3272.8,353c-7.9,9.8-17.7,30.6-17.7,90.8c0,60.1,9.8,81,17.7,90.8
			c8,9.9,22.8,16.5,42,16.5c19.1,0,33.8-6.6,41.8-16.5c8-9.8,17.8-30.7,17.8-90.8c0-60.2-9.8-81-17.8-90.8
			c-8-9.9-22.8-16.4-41.8-16.4C3295.6,336.6,3280.8,343.1,3272.8,353"/>
		<path class="st0" d="M3558.3,340.7l57.3-2.4c14.9,0,32.5,4.1,41.1,14.9c8,10.2,13,22.3,13,42V587h58.4V390.4
			c0-37.2-11.3-58.8-28.4-72.4c-24.5-19.4-68.3-17.6-68.3-17.6l-130.9,2.4V587h57.9V340.7z"/>
		<path class="st0" d="M2953.6,249h-58.5v274.7c0,0,1.6,25.1,2.9,33.8c1.4,8.8,14.2,29.8,47.7,29.8l60.5-1.2v-35.3
			c0,0-16.3,1.2-26.3,1.2c-10,0-22.1-0.7-24.1-17.6c-2.2-16.9-2.2-37.1-2.2-37.1V335.5h65.9v-35.1h-65.9V249z"/>
		<path class="st0" d="M1783.9,395.1c0-19.6-5-31.8-12.9-42c-8.5-10.8-26.2-14.9-41.2-14.9l-77,2.4v-37.9l92.7-2.4
			c0,0,43.9-1.8,68.4,17.6c17.1,13.6,28.5,35.1,28.5,72.3v193.9l-111.9,2.4c0,0-50.8,0.2-76.2-10.2c-25-10.2-38.4-38-38.4-76.5
			c0-37.2,11.3-58.9,28.4-72.4c24.6-19.4,68.4-17.6,68.4-17.6h35.7v33.2h-19.9c-15,0-30.6,2.7-39.1,13.5c-8,10.2-12.3,19-12.3,38.6
			c0,25.7,5,37.2,17.1,46.1c10.7,7.7,29.9,9.5,51.3,9.5l38.5-2.4V395.1z"/>
		<path class="st0" d="M2768.8,395.1c0-19.6-5-31.8-13.1-42c-8.6-10.8-26.1-14.9-41.1-14.9l-77,2.4v-37.9l92.7-2.4
			c0,0,43.8-1.8,68.3,17.6c17.1,13.6,28.5,35.1,28.5,72.3v193.9l-111.9,2.4c0,0-50.8,0.2-76.2-10.2c-24.9-10.2-38.5-38-38.5-76.5
			c0-37.2,11.4-58.9,28.6-72.4c24.5-19.4,68.3-17.6,68.3-17.6h35.7v33.2h-20c-15,0-30.4,2.7-39,13.5c-8,10.2-12.3,19-12.3,38.6
			c0,25.7,5,37.2,17.1,46.1c10.7,7.7,30,9.5,51.3,9.5l38.6-2.4V395.1z"/>
	</g>
	<g>
		<path class="st2" d="M3822,568.5c-0.2-0.6-0.3-1.5-0.3-2.7l-0.2-4.6c-0.1-2.2-0.5-3.7-1.3-4.7c-0.5-0.7-1.2-1.2-2.1-1.7
			c1.1-0.7,2-1.6,2.6-2.6c0.9-1.4,1.4-3.2,1.4-5.4c0-4.2-1.7-7.1-5.2-8.7c-1.8-0.8-4-1.2-6.6-1.2h-15.5h-0.6v0.8v34v0.8h0.8h4.5h0.8
			v-0.8v-13.8h9.5c1.7,0,3,0.2,3.7,0.5c1.3,0.6,1.9,1.9,2,3.8l0.3,5.7c0.1,1.4,0.1,2.3,0.3,2.8c0.1,0.5,0.2,1,0.4,1.3l0.2,0.4h0.5
			h5.5h0.8v-0.7v-0.8v-0.5l-0.5-0.2C3822.6,569.9,3822.3,569.3,3822,568.5z M3814.5,551.1c-1.1,0.8-2.7,1.2-4.6,1.2h-9.7v-10h10.3
			c1.4,0,2.6,0.2,3.4,0.6c1.5,0.7,2.2,2.1,2.2,4.2C3816,549,3815.5,550.4,3814.5,551.1z"/>
		<path class="st1" d="M3829.8,532.6c-5.9-6-13.8-9.3-22.3-9.3c-17.4,0-31.5,14.3-31.5,32c0,8.5,3.3,16.5,9.2,22.6
			c5.9,6,13.8,9.4,22.3,9.4c8.4,0,16.3-3.3,22.3-9.4c5.9-6,9.2-14,9.2-22.6C3839,546.6,3835.7,538.6,3829.8,532.6z M3807.5,581.8
			c-7,0-13.5-2.8-18.6-7.8c-4.9-5-7.7-11.7-7.7-18.9c0-7.1,2.7-13.8,7.7-18.9c4.9-5,11.5-7.8,18.6-7.8c7,0,13.5,2.8,18.6,7.8
			c4.9,5,7.7,11.7,7.7,18.9C3833.7,569.9,3822,581.8,3807.5,581.8z"/>
		<path class="st1" d="M3822,568.5c-0.2-0.6-0.3-1.5-0.3-2.7l-0.2-4.6c-0.1-2.2-0.5-3.7-1.3-4.7c-0.5-0.7-1.2-1.2-2.1-1.7
			c1.1-0.7,2-1.6,2.6-2.6c0.9-1.4,1.4-3.2,1.4-5.4c0-4.2-1.7-7.1-5.2-8.7c-1.8-0.8-4-1.2-6.6-1.2h-15.5h-0.6v0.8v34v0.8h0.8h4.5h0.8
			v-0.8v-13.8h9.5c1.7,0,3,0.2,3.7,0.5c1.3,0.6,1.9,1.9,2,3.8l0.3,5.7c0.1,1.4,0.1,2.3,0.3,2.8c0.1,0.5,0.2,1,0.4,1.3l0.2,0.4h0.5
			h5.5h0.8v-0.7v-0.8v-0.5l-0.5-0.2C3822.6,569.9,3822.3,569.3,3822,568.5z M3814.5,551.1c-1.1,0.8-2.7,1.2-4.6,1.2h-9.7v-10h10.3
			c1.4,0,2.6,0.2,3.4,0.6c1.5,0.7,2.2,2.1,2.2,4.2C3816,549,3815.5,550.4,3814.5,551.1z"/>
	</g>
	<g>
		<g>
			<path class="st1" d="M923.2,668.5c-5.9-6-13.8-9.3-22.3-9.3c-17.4,0-31.5,14.3-31.5,32c0,8.5,3.3,16.5,9.2,22.6
				c5.9,6,13.8,9.4,22.3,9.4c8.4,0,16.3-3.3,22.3-9.4c5.9-6,9.2-14,9.2-22.6C932.4,682.6,929.1,674.5,923.2,668.5z M900.9,717.8
				c-7,0-13.5-2.8-18.6-7.8c-4.9-5-7.7-11.7-7.7-18.9c0-7.1,2.7-13.8,7.7-18.9c4.9-5,11.5-7.8,18.6-7.8c7,0,13.5,2.8,18.6,7.8
				c4.9,5,7.7,11.7,7.7,18.9C927.1,705.8,915.3,717.8,900.9,717.8z"/>
			<path class="st1" d="M915.3,704.4c-0.2-0.6-0.3-1.5-0.3-2.7l-0.2-4.6c-0.1-2.2-0.5-3.7-1.3-4.7c-0.5-0.7-1.2-1.2-2.1-1.7
				c1.1-0.7,2-1.6,2.6-2.6c0.9-1.4,1.4-3.2,1.4-5.4c0-4.2-1.7-7.1-5.2-8.7c-1.8-0.8-4-1.2-6.6-1.2h-15.5h-0.6v0.8v34v0.8h0.8h4.5
				h0.8v-0.8v-13.8h9.5c1.7,0,3,0.2,3.7,0.5c1.3,0.6,1.9,1.9,2,3.8l0.3,5.7c0.1,1.4,0.1,2.3,0.3,2.8c0.1,0.5,0.2,1,0.4,1.3l0.2,0.4
				h0.5h5.5h0.8v-0.7v-0.8v-0.5l-0.5-0.2C915.9,705.8,915.6,705.2,915.3,704.4z M907.9,687.1c-1.1,0.8-2.7,1.2-4.6,1.2h-9.7v-10
				h10.3c1.4,0,2.6,0.2,3.4,0.6c1.5,0.7,2.2,2.1,2.2,4.2C909.4,685,908.9,686.4,907.9,687.1z"/>
		</g>
		<g>
			<path class="st3" d="M423,465.4L285.4,425c0,0-169,60.4-182.3,65c-13.4,4.5-31.9,11.8-31.9,11.8l132.1,42.4L423,465.4"/>
			<path class="st3" d="M420.5,613.9l-134-43l223.4-79.9l141.9,41.7c0,0-186.7,66.1-198,70.2C442.5,606.9,420.5,613.9,420.5,613.9"
				/>
			<path class="st3" d="M874.4,598.1l-136-40l-232.5,83.2l131.2,42.1c0,0,202.2-72.7,212.2-76.1
				C859.3,603.9,874.4,598.1,874.4,598.1"/>
			<polyline class="st4" points="637.1,683.4 507.4,730.2 375.3,688 505.9,641.3 637.1,683.4 			"/>
			<path class="st4" d="M286.5,570.9l134,43c-149.6,49.4-261.7,31.5-330.6,12.5c-68.9-19-88-39.2-89.8-63.7
				c-1.8-24.5,35.6-46.2,71-60.9l132.1,42.4l-33.5,11.9c-14.7,5-44.4,19.7-19.7,31.3c26.5,12.4,76.2,5.9,103.2-4.3L286.5,570.9"/>
			<polyline class="st5" points="423,465.4 285.4,425 355.4,400.2 491.5,441 423,465.4 			"/>
			<path class="st5" d="M651.8,532.7l-141.9-41.7c64.8-24.9,115.8-38,189.3-40.3c81.2-2.5,143.4,16.9,164.8,23.6
				c45.1,14.1,79.1,32.6,82.1,57.6c3.9,32.7-44,56.3-71.7,66.3l-136-40c0,0,33.3-11.8,46.5-16.3c13.1-4.5,26.8-13.6,24-21.8
				c-2.7-8.2-19-11.9-23.1-12.5c-8.2-1.1-22.5-3.1-47.2-0.9c-20.2,1.8-34.9,7.5-34.9,7.5L651.8,532.7"/>
			<path class="st6" d="M353.1,0v681.7l154.3,48.6V158.9c0-26.8,12-44.7,31.3-38.5c25.2,7,30.1,31.7,30.1,58.5v228.4
				c96.2,46.4,171.8-0.1,171.8-122.6c0-125.7-44.3-181.5-174.9-226.4C514.3,40.9,418.7,12.2,353.1,0"/>
		</g>
	</g>
</g>
</svg>
