<?xml version="1.0" encoding="utf-8"?><!DOCTYPE svg PUBLIC "-//W3C//DTD SVG 1.1//EN" "http://www.w3.org/Graphics/SVG/1.1/DTD/svg11.dtd" [<!ENTITY st0 "fill:none;stroke:#333333;stroke-width:1.44;stroke-linecap:round;stroke-linejoin:round;"><!ENTITY st1 "fill:none;stroke:#333333;stroke-linecap:round;stroke-linejoin:round;"><!ENTITY st2 "fill:#CCCCCC;"><!ENTITY st3 "fill:url(#SVGID_16_);stroke:#33317A;stroke-width:2.88;stroke-linecap:round;stroke-linejoin:round;"><!ENTITY st4 "fill:url(#SVGID_11_);"><!ENTITY st5 "fill:url(#SVGID_12_);"><!ENTITY st6 "fill:url(#SVGID_13_);"><!ENTITY st7 "fill:url(#SVGID_14_);"><!ENTITY st8 "fill:url(#SVGID_15_);"><!ENTITY st9 "fill:url(#SVGID_17_);"><!ENTITY st10 "fill:url(#SVGID_1_);stroke:#484848;stroke-width:1.44;stroke-linecap:round;stroke-linejoin:round;"><!ENTITY st11 "fill:url(#SVGID_2_);stroke:#484848;stroke-width:1.44;stroke-linecap:round;stroke-linejoin:round;"><!ENTITY st12 "fill:url(#SVGID_3_);stroke:#484848;stroke-width:1.44;stroke-linecap:round;stroke-linejoin:round;"><!ENTITY st13 "fill:url(#SVGID_4_);stroke:#484848;stroke-width:1.44;stroke-linecap:round;stroke-linejoin:round;"><!ENTITY st14 "fill:url(#SVGID_5_);stroke:#484848;stroke-width:1.44;stroke-linecap:round;stroke-linejoin:round;"><!ENTITY st15 "fill:url(#SVGID_6_);stroke:#484848;stroke-width:1.44;stroke-linecap:round;stroke-linejoin:round;"><!ENTITY st16 "fill:url(#SVGID_7_);stroke:#484848;stroke-width:1.44;stroke-linecap:round;stroke-linejoin:round;"><!ENTITY st17 "fill:url(#SVGID_8_);stroke:#484848;stroke-width:1.44;stroke-linecap:round;stroke-linejoin:round;"><!ENTITY st18 "fill:url(#SVGID_9_);stroke:#484848;stroke-width:1.44;stroke-linecap:round;stroke-linejoin:round;"><!ENTITY st19 "fill:url(#SVGID_10_);stroke:#484848;stroke-width:1.44;stroke-linecap:round;stroke-linejoin:round;">]><svg version="1.1" xmlns="http://www.w3.org/2000/svg" xmlns:xlink="http://www.w3.org/1999/xlink" x="0px" y="0px" width="210px" height="200px" viewBox="0 0 210 200"><title>Sega Saturn Logo</title><linearGradient id="SVGID_1_" gradientUnits="userSpaceOnUse" x1="38.5122" y1="155.3213" x2="70.1321" y2="123.7017"><stop offset="0" stop-color="#999999"/><stop offset="0.98" stop-color="#F3F3F3"/></linearGradient><path style="&st10;" d="M69.257,126.199c-0.447-0.744-1.049-1.191-1.797-1.439c-13.635-3.826-22.427-3.277-26.321,1.74c-1.4,1.641-2.249,3.23-2.499,4.869c-0.301,1.639-0.101,3.18,0.647,4.672h-0.05c0.551,1.141,1.399,2.184,2.499,3.129h0.05c0.899,0.744,1.847,1.342,2.946,1.84c0.748,0.396,2.499,0.645,5.294,0.693c0.551,0.051,1.6,0.051,3.197,0.051c1.399,0.051,2.499,0.051,3.297,0.1h0.05c2.499,0.051,5.033,0.293,5.846,0.545c0.809,0.254,2.233,1.725,2.344,2.387c0.115,0.658,0,0,0,0c0.15,0.398,0.301,0.502,0.158,1.508c-0.146,1.006-0.455,0.826-0.855,1.324v-0.051c-0.451,0.398-1.199,0.695-2.248,0.996c-1.497,0.348-3.297,0.594-5.395,0.645c-2.098,0.051-4.196,0-6.343-0.248c-2.048-0.25-3.845-0.598-5.345-1.045c-0.748-0.246-1.546-0.197-2.248,0.201c-0.748,0.348-1.249,0.945-1.497,1.74c-0.25,0.744-0.15,1.539,0.197,2.283c0.401,0.695,1.002,1.191,1.75,1.443c1.797,0.594,3.945,0.99,6.443,1.291c2.449,0.248,4.843,0.348,7.242,0.297c2.599-0.1,4.847-0.396,6.694-0.844c2.595-0.648,4.396-1.641,5.344-2.932h0.05c0.798-0.996,1.396-1.891,1.747-2.686v-0.051c0.401-0.99,0.601-1.986,0.601-3.027v-0.1c-0.05-0.746,0.014-1.834-0.387-2.879c-0.15-0.545-0.297-0.846-1.099-2.582c-0.805-1.732-2.663-2.838-5.91-3.533h-0.05c-1.597-0.299-3.895-0.547-6.841-0.646c-0.848-0.051-1.998-0.051-3.497-0.102c-1.497,0-2.545,0-3.097-0.049c-1.597-0.047-2.646-0.098-3.046-0.197c-0.551-0.25-1.049-0.547-1.45-0.895c-0.447-0.398-0.798-0.795-0.999-1.191v-0.051c-0.201-0.297-0.251-0.645-0.15-0.996c0.15-0.645,0.501-1.338,1.149-1.986c2.996-2.881,9.69-2.881,20.129,0.1c0.802,0.197,1.55,0.15,2.248-0.297c0.752-0.396,1.25-0.994,1.45-1.789C69.759,127.693,69.659,126.945,69.257,126.199z"/><linearGradient id="SVGID_2_" gradientUnits="userSpaceOnUse" x1="4.4209" y1="193.5391" x2="36.6375" y2="161.3224"><stop offset="0" stop-color="#999999"/><stop offset="0.98" stop-color="#F3F3F3"/></linearGradient><path style="&st11;" d="M35.751,163.83c-0.447-0.744-1.049-1.191-1.797-1.439c-13.635-3.826-22.427-3.279-26.322,1.74c-1.399,1.639-2.248,3.229-2.499,4.869c-0.301,1.639-0.1,3.178,0.648,4.67h-0.05c0.551,1.143,1.4,2.184,2.499,3.129h0.05c0.898,0.744,1.847,1.342,2.946,1.84c0.748,0.398,2.499,0.645,5.294,0.695c0.552,0.049,1.601,0.049,3.197,0.049c1.4,0.051,2.499,0.051,3.297,0.102h0.05c2.499,0.049,5.033,0.293,5.846,0.543c0.809,0.254,2.234,1.727,2.345,2.389c0.115,0.658,0,0,0,0c0.15,0.396,0.301,0.5,0.157,1.506c-0.146,1.008-0.455,0.828-0.855,1.326v-0.051c-0.451,0.396-1.2,0.693-2.249,0.996c-1.496,0.346-3.297,0.594-5.395,0.643c-2.098,0.051-4.195,0-6.343-0.246c-2.047-0.25-3.844-0.598-5.344-1.045c-0.749-0.248-1.546-0.197-2.248,0.199c-0.749,0.348-1.25,0.945-1.497,1.74c-0.25,0.744-0.15,1.539,0.197,2.283c0.401,0.695,1.002,1.193,1.75,1.443c1.797,0.594,3.945,0.992,6.444,1.293c2.448,0.246,4.843,0.348,7.242,0.297c2.599-0.1,4.847-0.398,6.694-0.846c2.595-0.648,4.396-1.639,5.345-2.932h0.05c0.798-0.994,1.396-1.889,1.747-2.684v-0.051c0.401-0.992,0.602-1.986,0.602-3.029v-0.1c-0.05-0.744,0.014-1.832-0.387-2.879c-0.15-0.543-0.297-0.844-1.099-2.58c-0.806-1.732-2.663-2.838-5.91-3.533h-0.05c-1.597-0.301-3.895-0.547-6.841-0.648c-0.849-0.049-1.998-0.049-3.498-0.1c-1.496,0-2.545,0-3.096-0.051c-1.597-0.045-2.646-0.096-3.046-0.195c-0.552-0.252-1.049-0.549-1.45-0.896c-0.448-0.396-0.798-0.795-0.999-1.191v-0.051c-0.201-0.297-0.25-0.645-0.15-0.994c0.15-0.645,0.501-1.34,1.149-1.986c2.996-2.883,9.69-2.883,20.128,0.1c0.802,0.197,1.55,0.15,2.248-0.297c0.752-0.398,1.25-0.996,1.45-1.791C36.252,165.322,36.152,164.574,35.751,163.83z"/><linearGradient id="SVGID_3_" gradientUnits="userSpaceOnUse" x1="72.104" y1="152.6436" x2="102.8901" y2="121.8574"><stop offset="0" stop-color="#999999"/><stop offset="0.98" stop-color="#F3F3F3"/></linearGradient><path style="&st12;" d="M98.647,123.68c-0.602-0.547-1.299-0.846-2.148-0.846H76.517c-0.798,0-1.546,0.299-2.098,0.846c-0.598,0.594-0.898,1.293-0.898,2.137v24.844c0,0.795,0.301,1.543,0.898,2.088c0.551,0.598,1.299,0.895,2.098,0.895h19.982c0.849,0,1.546-0.297,2.148-0.895c0.548-0.545,0.849-1.293,0.849-2.088c0-0.844-0.301-1.539-0.849-2.137c-0.602-0.545-1.299-0.846-2.148-0.846H79.517v-6.457h12.486c0.849,0,1.546-0.297,2.148-0.895c0.547-0.549,0.849-1.293,0.849-2.088c0-0.844-0.301-1.539-0.849-2.137c-0.602-0.549-1.299-0.846-2.148-0.846H79.517v-6.457h16.982c0.849,0,1.546-0.301,2.148-0.895c0.548-0.549,0.849-1.242,0.849-2.088C99.496,124.973,99.195,124.273,98.647,123.68z"/><linearGradient id="SVGID_4_" gradientUnits="userSpaceOnUse" x1="101.3784" y1="155.9043" x2="135.2655" y2="122.0172"><stop offset="0" stop-color="#999999"/><stop offset="0.98" stop-color="#F3F3F3"/></linearGradient><path style="&st13;" d="M133.141,127.195c-0.15-0.863-0.598-1.561-1.245-2.047c-5.484-3.938-11.491-4.684-17.301-3.666c-2.291,0.537-3.032,0.486-5.534,1.725c-2.499,1.236-4.239,3.533-4.239,3.533c-1.195,1.297-1.843,2.879-2.642,4.977s-0.795,3.139-0.895,5.727s0.247,4.963,0.995,7.225c0.748,2.266,1.894,4.264,3.44,5.936v-0.055c1.496,1.727,3.34,3.072,5.484,3.934c2.144,0.918,4.488,1.404,7.029,1.404c5.982,0,10.321-1.35,13.013-4.045c3.14-2.75,4.436-6.902,3.938-12.457c-0.05-0.863-0.396-1.512-0.948-2.102c-0.598-0.541-1.246-0.809-2.044-0.809H119.23c-0.795,0-1.543,0.32-2.095,0.916c-0.598,0.645-0.895,1.398-0.895,2.318c0,0.863,0.297,1.672,0.895,2.264c0.552,0.646,1.3,0.969,2.095,0.969h9.973c-0.2,1.619-0.849,2.969-1.847,3.992c-1.944,1.672-4.983,2.48-9.122,2.48c-1.746,0-3.39-0.322-4.835-0.916l-0.051-0.053c-1.296-0.541-2.391-1.297-3.34-2.375c-0.948-1.023-1.646-2.266-2.094-3.611c-0.498-1.457-0.698-3.074-0.647-4.801c0.049-1.832,0.25-2.828,0.597-4.066c0.251-0.92,0.648-1.672,1.196-2.266c0,0,0.892-1.385,2.395-2.133c1.504-0.752,2.592-0.971,4.436-1.457h0.05c4.389-1.078,8.577-0.162,12.615,2.803c0.697,0.486,1.445,0.646,2.24,0.486c0.799-0.215,1.446-0.648,1.897-1.402C133.141,128.924,133.291,128.115,133.141,127.195z"/><linearGradient id="SVGID_5_" gradientUnits="userSpaceOnUse" x1="140.3955" y1="157.2148" x2="173.5679" y2="124.0427"><stop offset="0" stop-color="#999999"/><stop offset="0.98" stop-color="#F3F3F3"/></linearGradient><path style="&st14;" d="M170.886,153.406c0.501-0.695,0.697-1.389,0.598-2.234c-3.146-20.723-8.788-30.861-16.982-30.363c-8.19-0.498-13.886,9.293-16.932,29.367c-0.101,0.795,0.05,1.541,0.551,2.189c0.498,0.693,1.149,1.09,1.948,1.191c0.798,0.146,1.546-0.051,2.247-0.549c0.648-0.496,1.049-1.141,1.199-1.936c0.376-2.496,0.788-4.797,1.231-6.91h0.015h19.377c0.505,2.389,0.974,5.023,1.403,7.9c0.15,0.795,0.501,1.443,1.199,1.941c0.647,0.498,1.399,0.693,2.198,0.543C169.736,154.451,170.385,154.055,170.886,153.406z M146.231,138.203c2.185-7.354,4.951-11.162,8.27-11.43c3.219,0.264,5.953,4.076,8.144,11.43H146.231z"/><linearGradient id="SVGID_6_" gradientUnits="userSpaceOnUse" x1="41.5234" y1="197.4736" x2="76.3659" y2="162.6313"><stop offset="0" stop-color="#999999"/><stop offset="0.98" stop-color="#F3F3F3"/></linearGradient><path style="&st15;" d="M43.867,192.836c0.651-0.498,1.052-1.145,1.199-1.939c0.379-2.492,0.791-4.797,1.231-6.906h19.398c0.505,2.389,0.97,5.023,1.399,7.9c0.15,0.795,0.498,1.443,1.199,1.938c0.648,0.496,1.396,0.697,2.198,0.547c0.798-0.1,1.446-0.498,1.947-1.141c0.498-0.699,0.698-1.393,0.598-2.238c-3.146-20.719-8.792-30.857-16.982-30.359c-8.19-0.498-13.835,9.293-16.932,29.367c-0.15,0.795,0.05,1.539,0.548,2.186c0.501,0.697,1.149,1.094,1.951,1.191C42.471,193.531,43.168,193.334,43.867,192.836z M47.783,178.027c2.188-7.35,4.955-11.158,8.273-11.426c3.25,0.26,5.975,4.076,8.151,11.426H47.783z"/><linearGradient id="SVGID_7_" gradientUnits="userSpaceOnUse" x1="65.4248" y1="189.6338" x2="97.9998" y2="157.0588"><stop offset="0" stop-color="#999999"/><stop offset="0.98" stop-color="#F3F3F3"/></linearGradient><path style="&st16;" d="M98.661,162.971c-0.598-0.545-1.299-0.844-2.147-0.844H70.542c-0.802,0-1.55,0.299-2.101,0.844c-0.598,0.598-0.898,1.293-0.898,2.137c0,0.795,0.301,1.539,0.898,2.088c0.551,0.598,1.299,0.895,2.101,0.895h9.988v22.855c0,0.795,0.3,1.543,0.898,2.088c0.551,0.598,1.299,0.895,2.098,0.895c0.852,0,1.55-0.297,2.147-0.895c0.552-0.545,0.853-1.293,0.853-2.088V168.09h9.987c0.848,0,1.55-0.297,2.147-0.895c0.551-0.549,0.849-1.293,0.849-2.088C99.51,164.264,99.212,163.568,98.661,162.971z"/><linearGradient id="SVGID_8_" gradientUnits="userSpaceOnUse" x1="99.4663" y1="192.6514" x2="132.3989" y2="159.7188"><stop offset="0" stop-color="#999999"/><stop offset="0.98" stop-color="#F3F3F3"/></linearGradient><path style="&st17;" d="M133.656,162.377c-0.598-0.598-1.296-0.895-2.147-0.895c-0.799,0-1.547,0.297-2.098,0.895c-0.598,0.543-0.899,1.291-0.899,2.086v14.756c0,1.146-0.2,2.238-0.647,3.232c-0.4,1.041-1.049,1.887-1.801,2.682c-0.798,0.744-1.646,1.393-2.695,1.789c-0.998,0.447-2.098,0.645-3.247,0.645h-4.445c-1.149,0-2.198-0.197-3.247-0.645c-1.049-0.396-1.897-1.045-2.695-1.789c-0.752-0.795-1.35-1.641-1.801-2.635v-0.047c-0.397-0.994-0.647-2.086-0.647-3.232v-14.756c0-0.795-0.301-1.543-0.849-2.086c-0.602-0.598-1.299-0.895-2.148-0.895c-0.798,0-1.55,0.297-2.098,0.895c-0.602,0.543-0.898,1.291-0.898,2.086v14.756c0,1.941,0.397,3.777,1.099,5.566h0.05c0.698,1.74,1.747,3.229,3.046,4.572c1.347,1.291,2.847,2.334,4.593,3.082c1.751,0.744,3.598,1.092,5.596,1.092h4.445c1.998,0,3.845-0.348,5.646-1.092h-0.05c1.747-0.748,3.247-1.791,4.597-3.082c1.295-1.344,2.345-2.832,3.096-4.572v0.051c0.748-1.791,1.099-3.627,1.099-5.617v-14.756C134.508,163.668,134.208,162.92,133.656,162.377z"/><linearGradient id="SVGID_9_" gradientUnits="userSpaceOnUse" x1="136.9629" y1="194.1104" x2="170.1333" y2="160.9399"><stop offset="0" stop-color="#999999"/><stop offset="0.98" stop-color="#F3F3F3"/></linearGradient><path style="&st18;" d="M137.684,162.406c-0.529,0.543-0.849,1.184-0.849,1.971v25.664c0,0.787,0.319,1.527,0.902,2.072c0.638,0.59,1.436,0.887,2.284,0.887c0.905,0,1.646-0.297,2.233-0.887c0.638-0.545,0.956-1.285,0.956-2.072v-22.9c6.852-0.393,12.11-0.047,15.775,0.988c2.76,0.838,4.249,2.219,4.406,4.145c0.055,1.529-0.583,2.617-1.911,3.258c-2.126,0.889-5.259,1.135-9.4,0.691c-0.744-0.051-1.382,0.051-2.019,0.443c-0.638,0.344-1.063,0.838-1.328,1.482c-0.266,0.592-0.266,1.232-0.107,1.873c0.211,0.645,0.637,1.135,1.221,1.531l15.937,10.857c0.691,0.49,1.485,0.691,2.338,0.541c0.902-0.098,1.593-0.494,2.123-1.186c0.479-0.641,0.69-1.381,0.587-2.17c-0.161-0.84-0.587-1.48-1.278-1.975l-8.444-5.725c1.221-0.293,2.283-0.641,3.186-1.084c3.612-1.68,5.42-4.539,5.474-8.539c0.211-4.734-2.764-7.992-8.816-9.771c-4.729-1.479-11.796-1.826-21.196-1.084C138.962,161.467,138.271,161.811,137.684,162.406z"/><linearGradient id="SVGID_10_" gradientUnits="userSpaceOnUse" x1="173.21" y1="193.8428" x2="205.4281" y2="161.6247"><stop offset="0" stop-color="#999999"/><stop offset="0.98" stop-color="#F3F3F3"/></linearGradient><path style="&st19;" d="M174.58,162.92c-0.352,0.498-0.548,1.047-0.548,1.689v25.84c0,0.797,0.297,1.543,0.898,2.086c0.548,0.598,1.296,0.895,2.098,0.895c0.849,0,1.546-0.297,2.147-0.895c0.548-0.543,0.849-1.289,0.849-2.086v-18.432l19.828,20.471c0.451,0.445,0.948,0.746,1.55,0.893c0.598,0.1,1.149,0.049,1.747-0.146c0.551-0.252,0.998-0.598,1.35-1.143c0.351-0.498,0.501-1.045,0.501-1.643v-25.84c0-0.844-0.301-1.539-0.853-2.137c-0.597-0.543-1.295-0.844-2.147-0.844c-0.798,0-1.546,0.301-2.098,0.844c-0.598,0.598-0.898,1.293-0.898,2.137v18.436l-19.777-20.521c-0.451-0.396-0.949-0.695-1.551-0.846c-0.598-0.096-1.199-0.049-1.746,0.201C175.378,162.076,174.881,162.426,174.58,162.92z"/><radialGradient id="SVGID_11_" cx="157.4951" cy="52.9604" r="22.1962" gradientUnits="userSpaceOnUse"><stop offset="0.43" stop-color="#FFFFFF"/><stop offset="0.64" stop-color="#7A7A7A"/><stop offset="0.99" stop-color="#000000"/></radialGradient><path style="&st4;" d="M166.998,46.412c1.59-0.151,2.738-0.154,3.447-0.015v0.104c2.266,1.442,3.504,2.889,3.608,4.536c-0.827,2.577-3.404,5.466-7.528,8.663c-4.947,3.708-11.752,7.524-20.104,11.441c-3.791,1.729-7.782,3.39-11.978,5.004c-4.814,1.854-4.092,14.738-0.559,13.456c6.304-2.284,12.21-4.711,17.69-7.22c9.279-4.332,16.807-8.559,22.478-12.887c7.217-5.57,11.34-10.825,12.06-15.879c1.336-4.886,0.169-9.239-3.536-13.177C181.123,38.891,166.278,46.48,166.998,46.412z"/><radialGradient id="SVGID_12_" cx="50.1055" cy="85.897" r="22.9105" gradientUnits="userSpaceOnUse"><stop offset="0" stop-color="#FFFFFF"/><stop offset="1" stop-color="#000000"/></radialGradient><path style="&st5;" d="M83.412,90.65c-3.623,0.684-7.145,1.281-10.599,1.833l0.104-0.104c-7.009,1.031-13.095,1.546-18.35,1.65h-0.104c-4.535,0-8.043-0.308-10.309-1.135c-1.547-0.619-3.093-0.515-4.64,0.208c-1.65,0.619-2.681,1.854-3.3,3.4c-0.62,1.65-0.516,3.197,0.208,4.744c0.719,1.547,1.854,2.682,3.401,3.301c3.3,1.234,8.144,1.854,14.845,1.854c5.67-0.104,12.271-0.619,19.899-1.754h0.104c3.813-0.529,7.732-1.191,11.749-1.969C90.22,101.947,87.253,89.927,83.412,90.65z"/><radialGradient id="SVGID_13_" cx="61.4419" cy="37.6914" r="52.4934" gradientUnits="userSpaceOnUse"><stop offset="0.8128" stop-color="#FFFFFF"/><stop offset="1" stop-color="#575757"/></radialGradient><path style="&st6;" d="M82.606,24.239c-3.487,1.156-6.888,2.359-10.206,3.601c-7.732,2.993-14.641,5.981-20.827,9.178h0.104c-6.701,3.401-12.164,6.702-16.392,10.206v-0.104c-5.155,4.02-8.659,7.94-10.517,11.648v0.104c-2.885,5.259-3.093,10.106-0.72,14.641c1.443,4.432,5.875,6.805,13.402,7.217c4.328,0.308,10.206-0.312,17.63-1.754c3.73-0.77,7.983-1.826,12.783-3.107c2.892-0.773-0.548-12.679-3.397-11.906c-4.417,1.203-8.352,2.158-11.863,2.849c-6.082,1.235-10.825,1.75-14.433,1.546c-1.443,0-2.474-0.104-2.885-0.104l-0.104-0.104c-0.308-1.031-0.204-2.266,0.516-3.504v-0.104c1.342-2.37,3.712-4.947,7.217-7.628c3.816-2.989,8.559-5.978,14.33-8.867c5.774-3.093,12.271-5.875,19.488-8.659v0.104c2.044-0.77,4.124-1.525,6.232-2.259C88.198,35.415,86.913,22.814,82.606,24.239z"/><path style="&st2;" d="M133.964,24.905c3.981-0.512,7.865-0.87,11.635-1.084c7.424-0.619,14.125-0.516,20,0.104c1.753,0.208,3.196-0.308,4.535-1.339c1.342-1.135,2.063-2.477,2.27-4.124c0.207-1.754-0.309-3.3-1.339-4.539c-1.135-1.339-2.477-2.162-4.124-2.266c-6.601-0.723-14.021-0.723-22.165-0.208c-5.23,0.354-10.65,0.949-16.299,1.787C125.881,13.618,130.327,25.37,133.964,24.905z"/><radialGradient id="SVGID_14_" cx="162.8682" cy="1.0562" r="29.3534" gradientUnits="userSpaceOnUse"><stop offset="0" stop-color="#FFFFFF"/><stop offset="1" stop-color="#000000"/></radialGradient><path style="&st7;" d="M133.964,24.905c3.981-0.512,7.865-0.87,11.635-1.084c7.424-0.619,14.125-0.516,20,0.104c1.753,0.208,3.196-0.308,4.535-1.339c1.342-1.135,2.063-2.477,2.27-4.124c0.207-1.754-0.309-3.3-1.339-4.539c-1.135-1.339-2.477-2.162-4.124-2.266c-6.601-0.723-14.021-0.723-22.165-0.208c-5.23,0.354-10.65,0.949-16.299,1.787C125.881,13.618,130.327,25.37,133.964,24.905z"/><linearGradient id="SVGID_15_" gradientUnits="userSpaceOnUse" x1="53.8833" y1="44.7139" x2="44.9349" y2="37.9131"><stop offset="0" stop-color="#000000"/><stop offset="1" stop-color="#FFFFFF"/></linearGradient><path style="&st8;" d="M31.041,62.116c0,6.684,4.278,6.197,4.271,6.143c0-0.003-0.007-0.003-0.025-0.003l-0.104-0.104c-0.308-1.031-0.204-2.266,0.516-3.504v-0.104c1.342-2.37,3.712-4.947,7.217-7.628c3.816-2.989,8.559-5.978,14.33-8.867c5.774-3.093,12.271-5.875,19.488-8.659v0.104c2.044-0.77,4.124-1.525,6.232-2.259c2.305-0.802,3.347-3.698,3.422-6.562c-2.696-0.369-5.474-0.562-8.316-0.562c-6.143,0-11.996,0.902-17.315,2.531c-3.226,1.428-6.282,2.878-9.182,4.378h0.104c-2.087,1.06-4.052,2.109-5.903,3.157C38.314,45.896,31.041,53.646,31.041,62.116z"/><path style="&st0;" d="M172.403,18.461c0.207-1.754-0.309-3.3-1.339-4.539c-1.135-1.339-2.477-2.162-4.124-2.266c-6.601-0.723-14.021-0.723-22.165-0.208c-7.633,0.516-15.673,1.546-24.229,3.093c-8.146,1.443-16.395,3.404-24.642,5.67c-8.248,2.27-16.08,4.847-23.504,7.628c-7.732,2.993-14.641,5.981-20.827,9.178h0.104c-6.701,3.401-12.164,6.702-16.392,10.206v-0.104c-5.155,4.02-8.659,7.94-10.517,11.648v0.104c-2.885,5.259-3.093,10.106-0.72,14.641c1.443,4.432,5.795,6.485,13.323,6.896c4.328,0.308,10.286,0.009,17.71-1.434c5.978-1.235,13.298-3.197,22.062-5.67c6.39-1.958,14.537-4.535,24.432-7.836l24.539-8.04c8.967-2.989,16.287-5.259,21.958-6.805c6.908-2.062,12.371-3.297,16.495-3.917c2.889-0.412,4.847-0.516,5.878-0.312v0.104c2.266,1.442,3.504,2.889,3.608,4.536c-0.827,2.577-3.404,5.466-7.528,8.663c-4.947,3.708-11.752,7.524-20.104,11.441c-8.144,3.712-17.215,7.116-27.217,10.413h-0.104c-7.732,2.474-15.668,4.64-23.813,6.598c-7.939,1.858-15.364,3.197-22.477,4.332l0.104-0.104c-7.009,1.031-13.095,1.546-18.35,1.65h-0.104c-4.535,0-8.043-0.308-10.309-1.135c-1.547-0.619-3.093-0.515-4.64,0.208c-1.65,0.619-2.681,1.854-3.3,3.4c-0.62,1.65-0.516,3.197,0.208,4.744c0.719,1.547,1.854,2.682,3.401,3.301c3.3,1.234,8.144,1.854,14.845,1.854c5.67-0.104,12.271-0.619,19.899-1.754h0.104c7.421-1.031,15.257-2.576,23.401-4.432h0.104c8.456-2.062,16.703-4.332,24.744-6.909c10.517-3.297,20.104-7.009,28.658-10.925c9.279-4.332,16.807-8.559,22.478-12.887c7.217-5.57,11.34-10.825,12.06-15.879c1.858-6.802-1.131-12.576-9.071-17.626c-2.474-1.962-7.112-2.477-14.125-1.546h-0.1c-4.54,0.719-10.622,2.062-18.146,4.224c-5.773,1.65-13.198,3.919-22.477,7.013l-24.536,8.04c-9.794,3.197-17.734,5.774-24.02,7.628c-8.352,2.478-15.26,4.332-21.035,5.466c-6.082,1.235-10.825,1.75-14.433,1.546c-1.443,0-2.474-0.104-2.885-0.104l-0.104-0.104c-0.308-1.031-0.204-2.266,0.516-3.504v-0.104c1.342-2.37,3.712-4.947,7.217-7.628c3.816-2.989,8.559-5.978,14.33-8.867c5.774-3.093,12.271-5.875,19.488-8.659v0.104c7.113-2.681,14.638-5.155,22.474-7.32c7.94-2.27,15.772-4.124,23.608-5.463c7.939-1.546,15.568-2.477,22.785-2.889c7.424-0.619,14.125-0.516,20,0.104c1.753,0.208,3.196-0.308,4.535-1.339C171.476,21.451,172.196,20.108,172.403,18.461z"/><radialGradient id="SVGID_16_" cx="113.4971" cy="35.6299" r="47.6103" gradientUnits="userSpaceOnUse"><stop offset="0.04" stop-color="#FFFFFF"/><stop offset="0.04" stop-color="#FFFFFF"/><stop offset="0.23" stop-color="#6E93E1"/><stop offset="1" stop-color="#363499"/></radialGradient><circle style="&st3;" cx="104.906" cy="58.155" r="52.579"/><linearGradient id="SVGID_17_" gradientUnits="userSpaceOnUse" x1="110.5596" y1="63.437" x2="106.9759" y2="51.7305"><stop offset="0" stop-color="#000000"/><stop offset="0.9893" stop-color="#FFFFFF"/></linearGradient><path style="&st9;" d="M52.116,66.96c-0.604,0.116-16.489,3.589-19.115,0.964c-0.771-0.771,1.671,1.196,4.16,4.434c0.316,0.411,0.112,1.094-0.257,1.935c-0.084,0.193-0.176,0.253-0.334,0.461c-0.074,0.099-0.096,0.497-0.109,0.598c-0.04,0.322-0.21,0.578-0.257,0.862c-0.15,0.901-0.681,1.62-0.795,2.195c-0.043,0.217,0.281,0.414,0.259,0.592c-0.023,0.191-0.411,0.239-0.398,0.391c0.013,0.152-0.439,0.203-0.4,0.329c0.011,0.035-0.014,0.16,0.067,0.179c0.308,0.071,1.039,0.142,1.141,0.157c0.157,0.022,1.572,0.23,3.602,0.246c2.03,0.015,4.526,0.019,6.712-0.224c1.338-0.148,2.733-0.337,4.045-0.529c1.724-0.253,3.303-0.511,4.416-0.688c1.035-0.164,1.498-0.042,1.644-0.028c5.699-1.242,12.54-3.085,20.604-5.362c6.39-1.958,14.538-4.535,24.432-7.836l24.539-8.04c4.947-1.65,9.394-3.079,13.338-4.289c3.207-0.984,6.078-1.822,8.62-2.517c3.129-0.931,5.957-1.693,8.502-2.309c3.078-0.745,5.734-1.271,7.993-1.607c2.889-0.412,4.847-0.516,5.878-0.312v0.104c0.87,0.555,4.665,0.114,6.583,3.014c3.09,4.668,4.604,13.073,5.863,11.348c1.801-2.466,2.886-4.879,3.222-7.249c1.858-6.802-1.131-12.318-9.07-17.369c-2.474-1.962-7.113-2.478-14.126-1.546h-0.1c-2.75,0.437-6.067,1.103-9.931,2.041c-2.509,0.608-5.251,1.074-8.216,1.926c-2.863,0.82-6.135,1.79-9.837,2.939c-3.758,1.167-7.961,2.513-12.64,4.073l-24.535,8.04c-6.941,2.266-12.948,4.221-18.099,5.828L52.116,66.96z"/><path style="&st1;" d="M153.641,36.196c-2.51,0.609-6.005,1.618-8.97,2.47c-5.773,1.65-13.198,3.919-22.477,7.013l-24.536,8.04c-7.467,2.438-13.784,4.411-19.184,5.987c-2.343,0.684-3.99,1.048-4.832,1.296c-8.151,2.416-28.108,8.23-35.859,7.381"/><path style="&st1;" d="M54.935,78.977c5.699-1.242,14.144-3.394,22.208-5.67c6.39-1.958,14.537-4.535,24.432-7.836l24.539-8.04c8.967-2.989,16.287-5.259,21.958-6.805c3.129-0.931,6.733-1.823,9.278-2.439"/></svg>