<svg enable-background="new 0 0 1888.167 540.525" viewBox="0 0 1888.167 540.525" xmlns="http://www.w3.org/2000/svg"><ellipse cx="270.263" cy="270.263" rx="270.264" ry="270.263" transform="matrix(.7071 -.7071 .7071 .7071 -111.9469 270.2628)"/><path d="m365.737 91.914-43.237 63.037 30.637 66.674 54.037 68.476 41.438 14.399 52.275-63.074-7.2-54.038-54.074-75.676zm39.638 154.912c6.112 3.9 12.6 3.825 18.9 3.75 10.538-.113 20.661-3.413 27.936-11.851 5.889-8.549 6.04-13.876 9.488-23.549 2.025-5.663 4.5-8.888 4.5-8.888s2.025 7.65 1.801 16.687c-.15 6.039-1.237 12.413-4.95 18.452-7.2 11.737-13.987 16.236-18.936 17.137-4.951.899-18.9 2.699-27.902-1.35-7.049-3.188-10.837-10.388-10.837-10.388zm0-90.075 7.236-10.801h9.002s7.649 11.25 7.649 13.052c0 1.8-5.851 10.386-5.851 10.386l-11.738-.449zm-30.6 30.638c-4.763-1.051-9.038-5.4-9.038-5.4l1.801-5.4 5.438-3.6s5.399.448 7.199 1.8c1.801 1.35 3.6 7.2 3.6 7.2l-4.05 3.6s-.9 2.699-4.95 1.8z" fill="#f7b210"/><path d="m54.075 288.264 5.4-144.114 18.001-21.637 70.274 52.276 18.002-106.763 3.6 31.087 9.037-16.238 1.8 14.438 12.601-16.238 2.1 189.489-101.178-77.776s-39.637 94.575-39.637 95.476z" fill="#f7b210"/><path d="m210.788 72.076 121.95-34.237s-24.638 14.436-22.837 14.436c1.799 0 16.199 1.8 16.199 1.8l-28.801 18.001 32.4-1.8-86.475 50.436v3.602l93.713-5.402-93.713 66.676v19.799l70.577-8.699s-23.288 13.237-21.902 12.338c1.353-.938 17.101-.638 17.101-.638l-9.899 6.037h17.1l-103.574 73.838z" fill="#f7b210"/><path d="m201.788 344.139-29.774-65.176s-16.5-14.888-45.788-13.837c-6.451.225-59.738.637-63.151 82.612-3.038 73.313 45.825 107.963 45.825 107.963s23.663 17.475 41.175 28.088c17.512 10.648 49.913 26.1 49.913 26.1l-25.201-160.352-54.075 16.201 10.838 1.801-18.038 14.438 16.199 1.799-10.799 10.801 28.837 1.8 10.8 41.437s-21.975-6.899-40.463-25.273c-15.148-15.075-27.336-39.64-28.011-59.401-.637-19.761 8.624-44.7 36.037-45.037 27.452-.339 75.676 36.036 75.676 36.036z" fill="#1082ce"/><path d="m187.388 389.176 102.675-140.549 64.874 52.275s-8.1-2.065-8.999-1.8c-.9.225 14.399 21.6 14.399 21.6l-19.8-7.201 10.8 14.399-66.675-23.398-5.399 5.399 43.237 72.076-88.275-3.6 48.639 93.674-18.001-3.601 8.476 21.189-15.226-13.239 12.149 22.688z" fill="#1082ce"/><path d="m315.299 407.176-1.799 64.875 28.838 23.438 50.773-10.688 84.338-73.986 5.4-91.914h-97.275zm81.077-34.201-7.202-10.836 7.202-14.4 18.036-1.801 5.401 10.801-5.401 14.438zm37.836 9.002s6.563-2.926 7.2-1.801c.637 1.087 9 1.801 9 1.801v9l-7.2 5.399-9-5.399zm-93.674 48.636 5.4-9 16.199-7.199 12.638 16.199h10.8l14.4-5.4 10.8 23.4-27 12.637h-12.637l-5.401-10.799h-17.999z" fill="#1082ce"/><g fill="#231f20"><path d="m1238.137 409.589h-149.62c-5.313 0-10.431-.197-15.55-.984-4.922-.591-9.449-1.575-13.584-2.756-5.906-1.378-10.237-4.331-12.993-6.691-2.362-2.168-3.544-4.531-3.544-6.893v-25.986c.591-2.165 2.166-4.922 4.725-6.89 2.557-1.969 6.103-3.74 10.237-4.922 4.331-1.181 9.056-2.165 14.371-2.756 5.512-.591 11.221-.984 17.521-.984h148.436v7.875h-148.436c-6.3 0-11.812.197-16.734.787-4.727.591-9.449 1.575-13.781 2.753-5.906 1.775-7.087 3.94-8.268 6.893l-.197 6.1h187.218l.197 8.074h-187.218v8.465c0 2.165 1.575 4.331 9.447 6.497 3.94.987 8.271 1.772 13.193 2.365 4.919.785 9.843.982 14.765.982h149.814v8.071z" transform="translate(412.416 23.1846)"/><path d="m1042.1 409.589h-.394z" transform="translate(299.376 23.1846)"/><path d="m1099.289 340.492h-94.298v50.594h-8.271v-50.594h-94.101v-8.268h196.67z" transform="translate(332.3525 41.6885)"/><path d="m800.986 376.251h-54.531v24.411h-8.268v-24.411h-70.478c-10.631 0-23.818-1.381-23.818-17.13v-17.324h8.659v16.539c0 10.434 10.04 9.447 16.537 9.447h131.309 16.93c6.693 0 16.733.987 16.733-9.447v-16.539h8.268v17.324c0 15.749-13.19 17.13-23.821 17.13z" transform="translate(160.3437 32.1123)"/><path d="m687.859 340.758h-157.492c-7.875 0-14.962 1.381-20.08 3.546-3.937 1.575-6.3 3.347-6.3 4.922s2.362 3.344 6.3 4.919c5.118 1.971 12.206 3.349 20.08 3.349h68.312 54.531c5.906 0 11.615.588 16.34 1.769 2.559.591 4.725 1.378 6.89 2.168 2.166.982 4.134 1.969 5.709 2.953 3.74 2.753 5.906 6.103 5.906 9.84v.2c0 5.315-4.528 9.84-11.615 12.793-6.103 2.362-14.371 3.94-23.23 3.94h-155.325v-8.468h155.326c7.875 0 14.962-1.378 20.08-3.344 3.74-1.772 6.3-3.546 6.3-4.922v-.2c0-.785-.984-1.769-2.362-2.756-1.181-.787-2.559-1.375-3.937-2.165-1.772-.588-3.544-1.178-5.709-1.769-4.134-.984-9.056-1.575-14.371-1.575h-54.531-68.312c-8.859 0-17.127-1.378-23.23-3.94-7.087-2.95-11.615-7.478-11.615-12.793 0-5.515 4.528-10.04 11.615-12.993 6.103-2.365 14.371-3.94 23.23-3.94h157.492v8.466z" transform="translate(95.1118 41.6172)"/><path d="m961.936 340.758h-157.292c-7.875 0-14.962 1.381-20.08 3.546-3.937 1.575-6.3 3.347-6.3 4.922s2.362 3.344 6.3 4.919c5.118 1.971 12.206 3.349 20.08 3.349h68.312 54.529c5.909 0 11.618.588 16.146 1.769 2.557.591 4.725 1.378 6.888 2.168 2.168.982 4.134 1.969 5.712 2.953h-.197c3.937 2.753 6.1 6.103 6.1 9.84v.2c0 5.315-4.528 9.84-11.615 12.793-6.1 2.362-14.172 3.94-23.033 3.94h-155.325v-8.468h155.323c7.877 0 14.768-1.378 19.689-3.344 3.935-1.772 6.497-3.546 6.497-4.922v-.2c0-.785-.984-1.769-2.362-2.756-1.181-.787-2.559-1.375-3.937-2.165-1.772-.588-3.544-1.178-5.512-1.769-4.134-.984-9.056-1.575-14.374-1.575h-54.529-68.312c-8.859 0-17.127-1.378-23.23-3.94-7.087-2.95-11.615-7.478-11.615-12.793 0-5.515 4.331-10.04 11.615-12.993 6.103-2.365 14.371-3.94 23.23-3.94h157.292z" transform="translate(253.1513 41.6172)"/><path d="m1378.235 329.198c2.166 0 4.331 1.575 4.331 4.134v54.728h-8.071v-47.444l-89.377 45.082-1.181.396c-4.922 1.966-6.3 1.575-9.846 0l-1.178-.593-88.592-45.079v47.638h-8.465v-54.925c0-2.559 2.166-3.937 4.134-3.937 1.184 0 1.772.197 2.759.787l92.13 47.447c3.544 1.575 4.137 2.36 8.468.197l81.499-41.538 11.618-6.3c.59-.396 1.375-.593 1.771-.593" transform="translate(493.2002 44.7129)"/><path d="m1120.64-34.306v70.281h-5.512c-6.497-19.293-16.34-33.861-29.527-43.701-12.996-10.043-20.87-15.161-36.423-15.161-14.765 0-27.167 4.331-37.011 12.599-10.043 8.468-16.93 20.08-21.065 35.042s-6.1 30.317-6.1 46.066c0 19.096 2.166 35.829 6.691 50.203 4.528 14.565 11.812 22.24 21.852 28.939 10.04 6.691 18.112 10.037 31.892 10.037 4.922 0 9.843-.394 14.765-1.375 5.121-1.184 9.056-2.562 14.368-4.531v-50.791c0-7.875-.588-12.993-1.572-15.355-1.181-2.166-3.347-4.331-6.693-6.103-3.349-1.969-7.481-2.953-12.402-2.953h-5.119v-5.315h96.857v5.315c-7.284.591-12.402 1.578-15.358 3.15-2.953 1.381-5.118 3.937-6.691 7.481-.787 1.969-1.184 6.497-1.378 13.781l-.394 49.216c-12.602 5.512-24.214 10.237-37.995 13.19-13.781 2.756-28.154 5.116-42.916 5.116-18.899 0-30.908-1.375-43.31-6.494-12.597-5.118-23.427-9.843-33.076-18.114-9.449-8.462-16.928-17.909-22.44-28.346-6.693-13.584-10.237-28.545-10.237-45.478 0-29.921 10.631-55.119 31.695-75.787 20.868-20.674 47.444-30.91 79.336-30.91 14.568 0 27.561 3.74 41.145 8.859 9.646 3.74 15.355 5.512 17.127 5.512 2.756 0 5.119-.984 7.481-2.953s4.528-5.709 6.497-11.418h5.513z" transform="translate(344.664 142.0567)"/><path d="m893.886-16.831c-18.702.197-32.68 9.059-42.326 26.776-8.071 14.371-12.009 35.433-12.009 62.6 0 32.483 5.709 56.894 17.915 72.249 8.662 10.828 21.065 15.946 36.42 15.946v15.159h-.197c-37.798 0-67.131-12.006-87.802-36.023-16.34-18.902-24.608-41.344-24.608-67.33 0-29.136 10.631-53.547 31.892-72.837 21.261-19.492 47.444-28.745 78.549-27.561h2.166zm.394 0h-.394v-11.022c32.483-.787 59.256 8.462 79.73 27.364 20.868 19.487 31.299 43.704 31.299 72.837 0 25.002-7.869 46.854-23.424 65.95-20.671 25.005-49.807 37.601-87.605 37.601v-15.159c10.434 0 19.49-2.756 26.38-7.478 8.859-5.906 14.568-15.555 19.49-28.745 4.922-12.993 8.268-29.727 8.268-50.791 0-25.199-2.559-43.901-7.678-56.303-4.922-12.599-11.418-21.261-19.096-26.574-7.875-5.118-16.93-7.68-26.97-7.68" transform="translate(213.9121 137.377)"/><path d="m756.035-12.258v78.549h4.331c13.584 0 18.899-3.937 25.002-12.009 6.103-7.875 10.04-19.492 11.615-35.042h6.103v104.338h-6.103c-1.181-11.418-3.937-20.674-7.875-27.955-4.134-7.284-8.859-12.206-14.174-14.568-5.315-2.562-8.662-3.74-18.899-3.74v58.469c0 11.024.591 17.718 1.575 20.08.984 2.559 2.756 4.528 5.512 6.103s7.087 2.362 13.387 2.362h12.796c19.883 0 25.592-4.331 37.601-12.993 12.009-8.465 20.277-18.308 25.592-36.026h5.906l-9.253 60.041h-175.012v-5.509h7.284c6.103 0 11.221-.984 14.962-2.953 2.756-1.378 4.922-3.74 6.3-7.087 1.181-2.362 1.772-8.465 1.772-18.505v-131.116c0-8.856-.197-14.371-.787-16.534-.984-3.347-2.953-6.103-5.906-7.877-3.937-2.756-9.449-4.131-16.34-4.131h-7.284v-5.512h179.54v58.86h-5.906c-3.15-14.371-7.284-24.608-12.993-30.902-5.512-6.302-13.19-10.83-23.427-13.783-5.906-1.772-16.93-2.559-33.27-2.559h-22.049z" transform="translate(134.4238 136.1524)"/><path d="m608.445-28.121 110.441 123.631v-85.639c0-12.006-1.772-20.077-5.709-24.214-5.315-5.706-11.615-8.465-24.214-8.266v-5.512h66.737v5.512c-9.449.984-11.024 2.559-14.174 4.131-3.347 1.775-5.906 4.531-7.678 8.468-1.772 3.74-2.756 10.431-2.756 19.881v165.76h-5.512l-151.586-165.76v126.584c0 11.418 2.953 19.099 8.859 23.23 5.906 3.94 12.599 5.909 20.277 5.909h5.315v5.509h-79.533v-5.509c12.402 0 20.868-2.362 25.789-6.693 4.725-4.331 7.284-11.812 7.284-22.445v-140.563l-4.922-5.313c-4.725-5.318-8.859-8.662-12.402-10.437-3.74-1.575-.394-2.557-7.087-2.753v-5.512h70.871z" transform="translate(49.3198 140.4004)"/><path d="m1318.301-16.831c-18.705.197-32.679 9.059-42.326 26.776-8.074 14.371-12.009 35.433-12.009 62.6 0 32.483 5.709 56.894 17.912 72.249 8.662 10.828 21.064 15.946 36.423 15.946v15.159h-.2c-37.798 0-67.131-12.006-87.802-36.023-16.337-18.902-24.608-41.344-24.608-67.33 0-29.136 10.631-53.547 31.892-72.837 21.261-19.492 47.444-28.745 78.552-27.561h2.165v11.021zm.394 0h-.394v-11.022c32.483-.787 59.254 8.462 79.727 27.364 21.065 19.487 31.498 43.704 31.498 72.837 0 25.002-7.872 46.854-23.427 65.95-20.868 25.005-50.004 37.601-87.799 37.601v-15.159c10.431 0 19.49-2.756 26.377-7.478 8.862-5.906 14.571-15.555 19.49-28.745 4.922-12.993 8.271-29.727 8.271-50.791 0-25.199-2.562-43.901-7.68-56.303-4.922-12.599-11.418-21.261-19.093-26.574-7.874-5.118-16.933-7.68-26.97-7.68" transform="translate(458.6406 137.377)"/><path d="m1180.448-12.258v78.549h4.334c13.584 0 18.899-3.937 25.002-12.009 6.1-7.875 10.037-19.492 11.615-35.042h6.103v104.338h-6.103c-1.184-11.418-3.937-20.674-7.875-27.955-4.134-7.284-8.859-12.206-14.174-14.568-5.315-2.562-8.665-3.74-18.902-3.74v58.469c0 11.024.593 17.718 1.578 20.08.984 2.559 2.756 4.528 5.512 6.103s7.087 2.362 13.387 2.362h12.793c19.886 0 25.595-4.331 37.601-12.993 12.011-8.465 20.277-18.308 25.595-36.026h5.906l-9.253 60.041h-175.013v-5.509h7.284c6.1 0 11.221-.984 14.962-2.953 2.753-1.378 4.919-3.74 6.3-7.087 1.178-2.362 1.772-8.465 1.772-18.505v-131.116c0-8.856-.197-14.371-.787-16.534-.984-3.347-2.953-6.103-5.906-7.877-3.94-2.756-9.449-4.131-16.34-4.131h-7.284v-5.512h179.54v58.86h-5.906c-3.153-14.371-7.284-24.608-12.993-30.902-5.512-6.302-13.19-10.83-23.427-13.783-5.909-1.772-16.933-2.559-33.27-2.559h-22.051z" transform="translate(379.1513 136.1524)"/><path d="m981.79 79.694h1.184c11.219 0 20.277 8.856 20.277 19.49 0 10.631-9.058 19.293-20.277 19.293h-1.184c-11.219 0-20.274-8.662-20.274-19.293-.001-10.634 9.055-19.49 20.274-19.49" transform="translate(264.5996 111.5283)"/></g></svg>