<?xml version="1.0" encoding="UTF-8" standalone="no"?>
<!-- Created with Inkscape (http://www.inkscape.org/) -->
<svg xmlns:dc="http://purl.org/dc/elements/1.1/" xmlns:cc="http://creativecommons.org/ns#" xmlns:rdf="http://www.w3.org/1999/02/22-rdf-syntax-ns#" xmlns:svg="http://www.w3.org/2000/svg" xmlns="http://www.w3.org/2000/svg" xmlns:sodipodi="http://sodipodi.sourceforge.net/DTD/sodipodi-0.dtd" xmlns:inkscape="http://www.inkscape.org/namespaces/inkscape" id="svg5822" version="1.1" inkscape:version="0.48.0 r9654" width="500" height="365.26929" xml:space="preserve" sodipodi:docname="Dreamcast.pdf"><metadata id="metadata5828"><rdf:RDF><cc:Work rdf:about=""><dc:format>image/svg+xml</dc:format><dc:type rdf:resource="http://purl.org/dc/dcmitype/StillImage"/><dc:title/></cc:Work></rdf:RDF></metadata><defs id="defs5826"/><sodipodi:namedview pagecolor="#ffffff" bordercolor="#666666" borderopacity="1" objecttolerance="10" gridtolerance="10" guidetolerance="10" inkscape:pageopacity="0" inkscape:pageshadow="2" inkscape:window-width="1366" inkscape:window-height="716" id="namedview5824" showgrid="false" fit-margin-top="0" fit-margin-left="0" fit-margin-right="0" fit-margin-bottom="0" inkscape:zoom="0.97319588" inkscape:cx="243.99619" inkscape:cy="85.359852" inkscape:window-x="0" inkscape:window-y="0" inkscape:window-maximized="1" inkscape:current-layer="g5830"/><g id="g5830" inkscape:groupmode="layer" inkscape:label="Dreamcast" transform="matrix(1.25,0,0,-1.25,-9.4585865,406.23575)"><path inkscape:connector-curvature="0" id="path5836" style="fill:#231f20;fill-opacity:1;fill-rule:evenodd;stroke:none" d="m 398.08779,38.519732 -2.04636,0 0,0.707608 4.87885,0 0,-0.707608 -2.03046,0 0,-5.512057 -0.80203,0 0,5.512057"/><path inkscape:connector-curvature="0" id="path5838" style="fill:#231f20;fill-opacity:1;fill-rule:evenodd;stroke:none" d="m 404.23152,33.007675 -1.69796,5.051265 0,-5.051265 -0.81947,0 0,6.219665 1.13454,0 1.79185,-5.289358 1.79186,5.289358 1.13453,0 0,-6.219665 -0.81998,0 0,5.051265 -1.69744,-5.051265 -0.81793,0"/><path inkscape:connector-curvature="0" id="path5840" style="fill:#231f20;fill-opacity:1;fill-rule:evenodd;stroke:none" d="m 9.4209667,91.937732 c 0,2.160796 -0.4089144,4.956849 -1.3649807,6.133459 6.253788,0 19.759559,-0.04208 25.548296,-0.04208 13.321403,0 33.417833,-7.394223 33.417833,-32.319065 0,-18.496846 -14.185516,-32.281093 -33.417833,-32.281093 -4.217272,0 -20.324825,0.04772 -26.0374128,0.04772 1.1706065,2.164901 1.8540975,5.099499 1.8540975,7.412696 l 0,51.048359 z M 18.998101,39.758944 c 6.149571,-0.795867 11.824034,-1.04063 16.961403,-0.306852 4.97096,0.70966 21.663585,4.305172 21.559419,26.472446 C 57.421,86.930596 44.448185,91.731453 34.452181,92.318475 29.234661,92.625328 24.19956,92.430851 18.998101,91.528766 l 0,-51.769822"/><path inkscape:connector-curvature="0" id="path5842" style="fill:#231f20;fill-opacity:1;fill-rule:evenodd;stroke:none" d="m 72.508003,78.221731 9.570926,1.493212 c 0,-1.958622 0,-7.70518 0,-8.426643 2.455846,6.065213 10.092267,10.942013 20.948591,6.716889 l -2.5436,-6.66301 C 90.545596,76.054777 82.078929,71.919452 82.078929,60.887128 l 0,-22.766099 c 0,-1.082194 0.232961,-3.271212 0.884125,-4.674114 l -9.943972,0 c 1.00625,1.2387 1.469608,3.59192 1.469608,4.674114 l 0,32.842459 c 0,2.381442 -0.48337,6.069317 -1.980687,7.258243"/><path inkscape:connector-curvature="0" id="path5844" style="fill:#231f20;fill-opacity:1;fill-rule:evenodd;stroke:none" d="m 375.1031,73.655375 c 0,-0.623455 0,-27.099493 0,-29.082232 0,-9.123989 6.29202,-11.565468 10.95228,-11.565468 1.97453,-0.09801 4.76237,0.362784 6.71278,0.795867 l 1.20483,5.634695 c -2.27727,-0.868218 -4.91887,-1.074497 -6.5024,-1.074497 -2.92228,0 -5.03741,1.94015 -5.03741,4.974808 0,2.722162 -0.0678,29.412689 0,30.26654 l -0.0297,0 c 0.38894,0 6.45004,0.02207 7.0617,0 1.98994,-0.06979 3.51751,-0.192424 4.83061,-0.71941 l 0.009,5.307831 c 0,0 -11.64552,0.01368 -11.87027,0.01368 l 0.0502,13.610296 -8.82329,-2.437374 c 1.21869,-1.138638 1.61123,-4.469887 1.61123,-6.663011 0,0 -0.004,-4.067079 -0.004,-4.558145 -0.39922,0 -4.87321,-0.0201 -5.61674,-0.0201 l 0,-4.483742 c 0.77996,0 5.45202,0 5.45202,0"/><path inkscape:connector-curvature="0" id="path5846" style="fill:#231f20;fill-opacity:1;fill-rule:evenodd;stroke:none" d="m 336.97693,42.905466 c 3.7905,-2.709847 9.7418,-5.113354 14.10547,-5.113354 6.05546,0 10.38885,2.944861 10.38885,8.488732 0,10.232865 -23.33362,8.541071 -23.33362,21.521755 0,8.779164 7.85142,12.080651 15.33185,12.080651 2.40351,0 7.89145,-0.521341 11.38331,-1.870364 l -0.0282,-5.994913 c -3.0988,2.647758 -7.82936,3.291224 -10.94817,3.291224 -4.95069,0 -8.66525,-2.455333 -8.66525,-7.272097 0,-7.073516 23.3095,-6.66455 23.3095,-21.178984 0,-9.384659 -8.13364,-13.762182 -17.08368,-13.762182 -4.36162,0 -8.90539,0.773802 -12.69384,1.855996 l -1.7662,7.953536"/><path inkscape:connector-curvature="0" id="path5848" style="fill:#231f20;fill-opacity:1;fill-rule:evenodd;stroke:none" d="m 196.15265,73.563011 c 0,0.529552 0.0192,5.285766 0.0192,5.893314 l -9.69151,-1.497317 c 1.16891,-1.224845 2.06278,-5.041003 2.06278,-7.76727 l 0,-31.754107 c 0,-1.082194 -0.46284,-3.70994 -1.46909,-4.946586 l 10.56691,0 c -1.00625,1.236646 -1.46909,3.864392 -1.46909,4.946586 l 0,23.892935 c 0,8.741193 5.40789,11.797916 10.78807,11.797916 4.87065,0 9.27229,-2.108457 9.27229,-11.797916 l 0,-23.892935 c 0,-1.082194 -0.4649,-3.70994 -1.46705,-4.946586 l 10.24416,0 c -1.0042,1.236646 -1.46704,3.864392 -1.46704,4.946586 l 0,23.892935 c 0,9.689459 5.98927,11.797916 10.86401,11.797916 4.87065,0 9.96809,-3.056723 9.96809,-11.797916 l 0,-23.892935 c 0,-1.082194 -0.46541,-3.70994 -1.4696,-4.946586 l 9.86392,0 c -1.0042,1.236646 -1.4691,3.864392 -1.4691,4.946586 l 0,28.426964 c 0,4.846525 -4.94094,12.607637 -16.48639,12.607637 -6.71484,0 -10.59155,-2.986425 -13.53795,-5.558239 -2.50357,2.922283 -6.58039,5.664457 -13.13103,5.664457 -6.38387,0 -10.1523,-3.740214 -11.99239,-6.015439"/><path inkscape:connector-curvature="0" id="path5850" style="fill:#231f20;fill-opacity:1;fill-rule:evenodd;stroke:none" d="m 173.30239,58.666295 c -1.38135,-1.298735 -4.27746,-2.309091 -7.26799,-2.701637 -7.85347,-1.030367 -14.65657,-2.33526 -14.65657,-9.986049 0,-4.536081 4.94299,-8.110041 8.86178,-8.110041 10.38065,0 13.06278,7.486587 13.06278,13.387597 l 0,7.41013 z m -24.51793,18.723137 c 3.96035,1.589681 10.35243,2.317301 14.36152,2.317301 10.23851,0 17.03751,-5.113354 17.03751,-16.989266 l 0,-19.697573 c 0,-3.649903 0.0539,-7.10379 1.35518,-9.528849 l -8.23012,0 -0.29505,5.181087 c -3.11881,-4.02295 -6.83696,-5.824554 -13.15874,-5.824554 -12.46755,0 -15.18971,8.518494 -15.18971,12.615847 0,14.609876 13.90483,14.782288 19.94387,15.642296 3.33946,0.47516 7.64104,1.417269 8.28656,4.549936 1.06629,5.181601 -2.63801,9.066005 -10.20875,9.066005 -5.55413,0 -10.10407,-1.687689 -13.90227,-3.9624 l 0,6.63017 z M 325.66444,58.666295 c -1.38341,-1.298735 -4.27952,-2.309091 -7.27005,-2.701637 -7.85348,-1.030367 -14.65657,-2.33526 -14.65657,-9.986049 0,-4.536081 4.94505,-8.110041 8.86383,-8.110041 10.38065,0 13.06279,7.486587 13.06279,13.387597 l 0,7.41013 z m -24.5205,18.723137 c 3.96291,1.589681 10.35499,2.317301 14.36203,2.317301 10.23851,0 17.0375,-5.113354 17.0375,-16.989266 l 0,-19.697573 c 0,-3.649903 -0.79381,-7.027334 1.35467,-9.528849 l -8.23011,0 -0.29454,5.181087 c -3.11676,-4.02295 -6.83696,-5.824554 -13.15669,-5.824554 -12.46755,0 -15.19176,8.518494 -15.19176,12.615847 0,14.609876 13.90688,14.782288 19.94387,15.642296 3.34151,0.47516 7.64309,1.417269 8.28656,4.549936 1.06834,5.181601 -2.63801,9.066005 -10.2067,9.066005 -5.55413,0 -10.10407,-1.687689 -13.90483,-3.9624 l 0,6.63017"/><path inkscape:connector-curvature="0" id="path5852" style="fill:#231f20;fill-opacity:1;fill-rule:evenodd;stroke:none" d="m 292.38479,71.350389 c -3.08854,1.802117 -7.96123,3.233241 -11.36073,3.233241 -11.9303,0 -17.4008,-7.340344 -17.4008,-17.909824 0,-10.470958 5.34375,-18.488636 17.01595,-18.488636 4.00037,0 9.4488,1.793908 13.67393,4.393944 l -1.72002,-7.703128 c -4.30107,-1.278723 -7.92531,-1.888323 -12.72566,-1.888323 -16.40224,0 -24.08946,11.629609 -24.08946,23.734377 0,13.379387 10.31291,22.786111 24.26547,22.786111 6.10164,0 10.55562,-1.495265 12.35517,-2.008396 l -0.0128,-6.149366"/><path inkscape:connector-curvature="0" id="path5854" style="fill:#231f20;fill-opacity:1;fill-rule:evenodd;stroke:none" d="m 108.78228,56.112953 c 0.006,1.106312 0.15181,2.162336 0.27658,3.180902 l 31.73358,0 c 0,10.910198 -5.45202,20.268688 -18.38036,20.268688 -13.41736,0 -21.38116,-10.49097 -21.38116,-23.872923 0,-12.104255 8.86742,-22.916446 24.05509,-22.916446 4.80239,0 8.81765,1.18482 13.15104,2.700097 l 1.52554,7.739047 c -3.7043,-3.052618 -9.69767,-4.858841 -15.10556,-4.858841 -9.71922,0 -15.91888,7.037597 -15.87475,17.759476 z m 1.27873,8.02127 c 1.03037,5.30783 5.94103,10.715722 11.81998,10.715722 8.9798,0 11.58137,-7.009375 11.58137,-10.717262 0,0 -23.40135,-0.01368 -23.40135,0.0015"/><path inkscape:connector-curvature="0" id="path5856" style="fill:#cf3311;fill-opacity:1;fill-rule:evenodd;stroke:none" d="m 236.13687,322.11923 c 8.81919,-1.3249 17.82516,-4.40574 22.52339,-5.84097 9.46111,-2.89406 24.82478,-11.88207 30.24909,-16.19545 2.56566,-2.03867 7.96123,-7.37832 10.05224,-10.0661 2.03406,-2.618 5.92308,-8.29066 8.40407,-11.78612 3.947,-5.76657 8.597,-14.35792 12.54195,-22.26528 4.40575,-8.8315 4.7085,-11.391 6.03905,-18.77342 l 2.91253,-13.01866 c 0.27247,-2.24905 0.49928,-10.50534 -4.34725,-11.66347 -4.84498,-1.1566 -9.32257,1.08014 -11.43359,4.34519 -2.92228,4.52223 -2.51948,10.94253 -5.82455,18.28852 -2.57798,5.93898 -3.7043,14.56831 -7.82115,20.77566 l -3.2276,5.45818 c -5.71218,8.79148 -11.66553,15.77263 -15.21742,20.32462 -3.12497,3.82283 -8.96543,9.02187 -14.50212,12.72412 -5.119,3.1029 -13.39119,6.64299 -19.3625,8.46461 -1.90218,0.61935 -10.03993,3.01259 -15.0994,3.68634 -6.86673,0.77175 -11.38279,1.85599 -17.90521,2.3173 -8.05411,0.56701 -11.9185,1.28488 -22.36534,0.0641 -3.95676,-1.0745 -10.22876,-1.49937 -15.87115,-3.65811 -4.55815,-1.86011 -10.89584,-4.86295 -17.1078,-8.5108 -6.68251,-3.66632 -16.82917,-11.16061 -23.55581,-17.5609 -6.78103,-7.24592 -10.17232,-11.13238 -14.84694,-20.31692 -2.07254,-4.54583 -6.07702,-11.57521 -7.69082,-16.53822 -1.1022,-5.03741 -3.20707,-14.43387 -2.85198,-18.99818 0.158,-8.17572 -0.55726,-9.86135 0.0579,-16.54438 0.022,-6.01698 1.99659,-10.18822 2.81812,-15.10915 0.7035,-3.40155 3.96702,-15.1656 5.98311,-17.89752 9.17427,-19.7653 21.48737,-28.32433 35.21159,-34.49987 3.86644,-1.96837 15.97121,-5.20777 19.47333,-6.13756 5.9708,-1.07655 13.82838,-1.79596 21.39091,-1.94221 7.95559,-0.1565 18.92377,0.92159 25.57857,3.37128 7.19975,2.64981 15.52992,6.41414 15.43396,6.30997 3.34306,1.84214 8.44256,4.84653 10.03018,6.16938 3.07058,1.96837 4.91888,2.73037 6.73896,4.62434 2.62569,2.29524 4.21281,3.61809 6.20119,6.46238 1.10682,1.60559 2.8643,4.05887 4.57816,6.22941 1.84009,3.01875 2.89868,6.19965 4.69874,10.13229 2.15259,5.82097 1.81803,5.54029 2.22648,11.72198 0.38485,1.79391 -0.0421,7.81346 -0.36638,8.83561 -0.96828,5.55414 -0.62756,10.45711 -1.89858,15.85114 -1.71745,7.29776 -3.14499,12.76209 -5.3376,19.76326 -2.06278,7.88323 -8.11773,15.18561 -12.66202,20.40313 -2.81607,3.23324 -11.54957,10.86966 -23.66819,15.64024 -3.41335,1.1489 -8.99981,2.44969 -12.54555,3.09675 -7.57074,0.79176 -8.80328,0.28479 -16.05126,-0.24631 -2.49382,-0.43513 -8.28861,-1.61944 -10.41708,-2.36707 -6.22582,-2.18697 -8.51695,-3.57807 -14.88286,-7.47684 -2.96436,-1.7195 -5.19751,-3.03671 -8.22601,-5.87689 -2.41941,-2.23879 -4.14508,-6.03904 -6.1037,-8.27014 -2.68367,-3.6499 -5.6701,-8.52054 -7.67285,-13.77039 -2.1726,-5.22368 -2.872,-12.57788 -2.54359,-17.30997 0,-3.60629 0.98213,-10.20875 1.37314,-11.65373 0.38895,-1.44703 1.36287,-5.92923 1.57531,-6.82927 0.21252,-0.89798 2.54359,-5.64239 2.8643,-6.32793 1.31515,-2.79811 3.83258,-6.82106 8.07412,-10.92611 3.12856,-3.41951 9.17582,-6.77283 13.7042,-8.07156 4.05887,-2.22904 10.90763,-2.60568 14.69608,-2.61389 1.86421,0.11246 6.62658,0.40691 9.11424,1.00214 5.0369,1.20894 5.96926,1.24281 11.16471,3.49802 4.66026,2.16233 7.82321,2.94024 11.06825,5.3376 0,0 4.45808,3.49391 6.48444,6.04725 1.06834,1.34902 2.90022,7.77343 2.57335,11.75379 -0.1518,5.44997 0.64142,8.54107 -0.47259,13.02276 -1.11247,4.4822 -3.01106,9.67971 -5.06717,12.88268 -2.08486,3.24093 -6.56655,6.40182 -11.66604,8.91771 -2.85404,1.41111 -9.61917,2.71754 -12.48757,3.05672 -5.45407,0.645 -10.01376,-1.82624 -12.7821,-4.65667 -2.40146,-2.74576 -7.14792,-8.4446 -5.25549,-14.3374 1.70975,-5.33195 3.77408,-11.01437 11.77379,-10.5936 5.48846,-1.14223 11.83641,0.51724 13.94897,-0.45669 3.14088,-1.7821 4.34571,-5.71679 3.20296,-8.4605 -0.79586,-5.29193 -5.86303,-5.92718 -11.27093,-6.32794 -4.84037,-0.81023 -17.12986,1.55735 -19.83355,3.58166 -1.80981,1.07655 -4.58637,3.66427 -6.54037,5.40994 -1.40547,1.25666 -2.99669,4.05887 -4.08094,6.07137 -1.33311,2.47329 -2.00839,4.29337 -2.35116,5.90512 -0.40692,1.91192 -1.24486,5.56439 -0.92826,9.21635 0.21449,2.46354 0.87386,3.51187 1.53119,7.11354 1.30694,4.08298 2.93049,7.19205 5.54438,10.73163 3.4036,3.45542 7.72724,7.56868 11.94621,9.47907 3.72226,1.96632 10.24056,2.68778 16.13952,2.34296 4.78495,-0.45669 10.44736,-1.03806 14.18962,-2.29472 6.40388,-2.28754 8.23422,-2.74423 13.49382,-6.05957 4.44372,-2.74987 8.9136,-7.80729 11.40486,-12.0006 5.30783,-10.85581 8.3507,-22.93441 6.13756,-39.19657 -0.18002,-2.74782 -1.03601,-5.43149 -2.74987,-9.06754 -1.58147,-3.35742 -4.35546,-7.44042 -8.51695,-10.51715 -1.67538,-1.55171 -4.31954,-3.46005 -6.47008,-4.57816 -3.05467,-1.85446 -5.10719,-2.81863 -8.29631,-4.42011 -2.7981,-1.31465 -6.06162,-2.81812 -10.31496,-4.00089 -4.60792,-1.82161 -8.14802,-1.89807 -13.94281,-2.76167 -5.70859,-1.43112 -21.32266,-0.40897 -30.62522,3.69403 -6.34795,2.66982 -13.47175,7.37421 -18.88785,13.11102 -3.00849,3.15063 -5.95078,8.87359 -6.81695,10.04199 -4.30568,8.2804 -5.14927,16.06717 -5.83892,17.70303 -0.94006,2.22289 -1.40495,7.20796 -2.03457,10.6172 -0.70966,3.82078 -0.26836,19.85203 3.58987,30.14288 2.17722,4.09684 3.44978,7.74879 4.92093,9.66893 2.64776,3.76433 3.92494,6.1155 6.17759,8.78532 3.3918,4.11532 5.86304,7.47273 9.16812,9.83776 8.42305,6.85133 15.45654,10.46121 24.97307,14.98343 11.82409,4.8142 15.37393,3.81821 26.56481,3.63964 5.03485,-0.044 12.35929,-1.6256 15.96096,-2.28087 6.68918,-0.88977 10.52124,-2.50151 15.04552,-3.76433 4.83678,-1.34902 7.63488,-3.50571 11.60139,-5.90511 3.26916,-2.11051 7.11148,-5.00098 9.65148,-7.34804 6.49625,-4.76238 9.63302,-9.77156 13.61389,-15.92298 0.72146,-1.03242 5.45202,-11.10878 6.20581,-13.91664 0.34842,-1.40546 1.41676,-5.44022 2.10435,-7.79754 0.88208,-3.74022 1.31105,-7.05351 2.29524,-11.27298 0.88413,-4.34725 2.38298,-12.55735 3.03466,-20.23021 1.09246,-6.58091 -0.65937,-20.01828 -1.69385,-24.1413 -2.30088,-7.69081 -6.32588,-17.07598 -14.27531,-26.11582 -3.37743,-4.00088 -6.96525,-7.10533 -11.11443,-10.47096 -3.1732,-2.6457 -5.89126,-4.18715 -10.79217,-7.11148 -6.65634,-3.97113 -11.71941,-6.50651 -21.04814,-10.15231 -3.7982,-1.22074 -8.58315,-2.82222 -13.74012,-3.89108 -9.99221,-0.92158 -20.25894,-1.80776 -31.46778,-0.47464 -11.20833,1.33055 -22.43513,4.4899 -29.06786,6.52805 -3.66017,1.37314 -10.74959,4.34572 -13.72216,5.9472 -1.93451,0.98419 -8.41844,5.4161 -9.5191,6.48444 -4.44372,2.74782 -14.38975,12.10272 -20.81004,20.81774 -1.40701,2.69394 -6.46597,10.77576 -7.56253,14.31791 -2.916643,5.98875 -4.950696,13.23315 -6.145779,16.32579 -1.260764,7.22181 -3.38718,11.87643 -4.221018,19.128 0.096,1.70616 -0.34072,5.72295 -0.729673,7.94584 0.56701,4.963 -0.190286,9.63917 0.795867,15.0409 0.865652,4.5602 2.010448,6.46443 2.282921,10.58539 0.266828,1.76415 2.535382,7.06582 3.140877,9.42468 1.83034,3.88697 2.284975,7.08994 4.676165,11.42949 3.44363,6.76872 7.0417,14.55395 12.57377,21.35499 1.57942,2.1064 6.05957,7.16793 7.58511,8.92181 3.60783,3.60372 5.72449,4.17484 9.81928,7.79498 0.42487,0.26683 3.12908,3.35126 5.95951,4.40985 4.69002,3.62374 8.7453,4.95275 13.20697,8.25013 8.94747,4.45603 12.20688,5.95899 21.09021,9.65508 5.13132,1.83239 12.2895,2.84223 14.86696,3.84284 4.90297,0.30428 9.87983,1.86985 15.03526,1.55735 5.79069,0.056 11.62551,-0.35868 17.44236,-0.88618 3.95265,-0.2463 9.07011,-0.43667 16.01535,-1.9422"/></g></svg>