<?xml version="1.0" encoding="utf-8"?>
<!-- Generator: Adobe Illustrator 25.0.0, SVG Export Plug-In . SVG Version: 6.00 Build 0)  -->
<svg version="1.1" id="Layer_1" xmlns="http://www.w3.org/2000/svg" xmlns:xlink="http://www.w3.org/1999/xlink" x="0px" y="0px"
	 viewBox="0 0 3840 525.5" style="enable-background:new 0 0 3840 525.5;" xml:space="preserve">
<style type="text/css">
	.st0{fill:#929497;}
	.st1{fill:#231F20;}
	.st2{fill:#FFFFFF;}
</style>
<g>
	<g>
		<g>
			<path class="st2" d="M45.7,66.5c0,0,0,180,0,182.7c-2.5,0-43.2,0-45.7,0C0,246.5,0,5.3,0,2.6c2.6,0,37.8,0,39,0l184.9,179.7
				c0,0,0-176.9,0-179.7c2.5,0,36.6,0,36.6,0s6.5,0,8.5,0c0,2.7,0,243.9,0,246.6c-2.5,0-34.4,0-35.7,0L45.7,66.5z"/>
			<path class="st2" d="M503.4,66.5c0,0,0,180,0,182.7c-2.5,0-43.2,0-45.7,0c0-2.7,0-243.9,0-246.6c2.6,0,37.8,0,39,0l184.9,179.7
				c0,0,0-176.9,0-179.7c2.5,0,36.6,0,36.6,0s6.5,0,8.5,0c0,2.7,0,243.9,0,246.6c-2.5,0-34.5,0-35.7,0L503.4,66.5z"/>
			<path class="st2" d="M1452.2,66.5c0,0,0,180,0,182.7c-2.5,0-43.2,0-45.7,0c0-2.7,0-243.9,0-246.6c2.5,0,37.8,0,39,0l184.9,179.7
				c0,0,0-176.9,0-179.7c2.5,0,36.6,0,36.6,0s6.5,0,8.5,0c0,2.7,0,243.9,0,246.6c-2.5,0-34.4,0-35.6,0L1452.2,66.5z"/>
			<path class="st2" d="M377.7,2.6c0,0,6.5,0,8.5,0c0,2.7,0,243.9,0,246.6c-2.4,0-43.2,0-45.7,0c0-2.7,0-243.9,0-246.6
				C343,2.6,377.7,2.6,377.7,2.6z"/>
			<path class="st2" d="M1037.7,2.6c0,0,6.4,0,8.4,0c0,2.5,0,40,0,42.5c-2.6,0-110.1,0-110.1,0s0,201.4,0,204.2
				c-2.5,0-44.9,0-47.5,0c0-2.7,0-204.2,0-204.2s-107.4,0-110,0c0-2.4,0-39.9,0-42.5C781.2,2.6,1037.7,2.6,1037.7,2.6z"/>
			<path class="st2" d="M1330.2,2.6c0,0,6.6,0,8.5,0c0,2.5,0,40,0,42.5c-2.6,0-195.7,0-195.7,0v55.3c0,0,148.8,0,151.4,0
				c0,2.5,0,39.9,0,42.4c-2.6,0-151.4,0-151.4,0v64c0,0,193.1,0,195.7,0c0,2.5,0,40,0,42.5c-2.6,0-238.3,0-240.9,0
				c0-2.7,0-243.9,0-246.6C1100.5,2.6,1330.2,2.6,1330.2,2.6z"/>
			<path class="st2" d="M2004.3,38.6C1986.4,15.1,1960,2.6,1928,2.6c0,0-180.3,0-182.9,0c0,2.7,0,243.9,0,246.7
				c2.7,0,182.9,0,182.9,0c31.9,0,58.4-12.5,76.2-36c16.7-21.9,25.5-52,25.5-87.3C2029.8,90.7,2020.9,60.5,2004.3,38.6z
				 M1929.4,206.8h-140.3V45h1.3h138.9c43.8,0,59.5,43.6,59.5,80.8C1988.9,163.2,1973.2,206.8,1929.4,206.8z"/>
			<path class="st2" d="M2328.3,2.6h-199c-28.8,0-52.3,23.6-52.3,52.3v142c0,28.8,23.4,52.3,52.3,52.3h199
				c28.8,0,52.3-23.5,52.3-52.3v-142C2380.7,26.2,2357.2,2.6,2328.3,2.6z M2336.8,196.6c0,5.6-4.6,10.1-10.3,10.1h-195.5
				c-5.7,0-10.2-4.6-10.2-10.1V55.2c0-5.6,4.6-10.1,10.2-10.1h195.5c5.7,0,10.3,4.6,10.3,10.1V196.6z"/>
			<path class="st0" d="M2328.3,279h-199c-28.8,0-52.3,23.6-52.3,52.3v142c0,28.7,23.4,52.2,52.3,52.2h199
				c28.8,0,52.3-23.5,52.3-52.2v-142C2380.7,302.5,2357.2,279,2328.3,279z M2336.8,473c0,5.6-4.6,10.2-10.3,10.2h-195.5
				c-5.7,0-10.2-4.6-10.2-10.2V331.6c0-5.6,4.6-10.2,10.2-10.2h195.5c5.7,0,10.3,4.5,10.3,10.2V473z"/>
		</g>
		<g>
			<path class="st2" d="M3157.3,421.4c47.4,18.7,147.3,33.9,225.3,33.9c85.3,0,120.8-29.3,120.8-66.1c0-33-32.9-52.4-127.2-87
				c-126-46.6-218.5-83.3-218.5-166.1C3157.7,50.5,3269,0,3438.6,0c91.1,0,122.4,5.8,180.2,16.4l0.4,81.3
				c-56.7-10.7-107.1-29.3-185.4-29.3c-83.8,0-119.5,26.6-119.5,54c0,39.9,54.9,58.9,151.5,93.3c134.3,48.1,209.1,85.2,209.1,166.2
				c0,83.4-93.6,143.6-304.7,143.6c-86.7,0-146.5-5.7-213-16.4V421.4z"/>
			<g>
				<path class="st2" d="M2977.6,487.7c-49.7,22.5-143.7,36.8-225.9,36.8h-314V1.1h314c82.2,0,176.2,14.5,226,36.9
					c120.9,54.6,160.4,142,160.4,224.8C3138.1,345.7,3099,433,2977.6,487.7z M2707.9,71.9h-100.5v380.3h100.5
					c154.2,0,251.5-66,251.5-189.4C2959.4,139.4,2862.2,71.9,2707.9,71.9z"/>
			</g>
		</g>
		<g>
			<path class="st2" d="M3732.1,520.9h-15.5v-60.5h-22.1v-13h59.7v13h-22.1V520.9z"/>
			<path class="st2" d="M3840,520.9h-14.2v-61.5h-0.2l-13.8,61.5h-15l-13.4-61.5h-0.2v61.5h-14.3v-73.5h22.2l13.3,57.8h0.2
				l13.1-57.8h22.2V520.9z"/>
		</g>
	</g>
</g>
</svg>
