<svg xmlns="http://www.w3.org/2000/svg" width="750.54327" height="115.8307" version="1">
  <path fill="#929497" d="M458.943463 98.496592c0 1.07926-.88502 2.05058-1.9751 2.05058h-37.79667c-1.10087 0-1.98589-.97132-1.98589-2.05058v-27.30603c0-1.07926.88502-1.94271 1.98589-1.94271h37.79667c1.09008 0 1.9751.86345 1.9751 1.94271v27.30603zm-1.64052-37.45129h-38.47662c-5.56913 0-10.11293 4.533-10.11293 10.14526v27.41389c0 5.5044 4.5438 10.14535 10.11293 10.14535h38.47662c5.57992 0 10.11293-4.64095 10.11293-10.14535v-27.41389c0-5.61226-4.53301-10.14526-10.11293-10.14526"/>
  <path fill="#221f1f" d="M15.917269 20.032332v35.29269H7.088691v-47.7045h7.544221l35.756819 34.75307V7.620522h8.70985v47.7045h-6.89665l-36.285662-35.29269"/>
  <path fill="#221e1f" d="M104.429693 20.032332v35.29269h-8.82858v-47.7045h7.53342l35.75682 34.75307V7.620522h8.72066v47.7045h-6.89666l-36.28566-35.29269m183.4466 0v35.29269h-8.82858v-47.7045h7.53343l35.75682 34.75307V7.620522h8.72065v47.7045h-6.88586l-36.29646-35.29269M80.124113 7.620522h1.62973v47.7045h-8.82858v-47.7045h7.19885m127.61503 0h1.61893v8.20255h-21.28355v39.50195h-9.17396v-39.50195h-21.28356v-8.20255h50.12214m56.55471 0h1.6513v8.20255h-37.83984v10.68497h29.2703v8.20263h-29.2703v12.4118h37.83984v8.20255h-46.58207v-47.7045h44.93077m115.85078 39.50195h-27.11172v-31.2994h27.11172c8.4832 0 11.49442 8.41843 11.49442 15.64966 0 7.12337-3.01122 15.64974-11.49442 15.64974zm14.48405-32.4866c-3.45372-4.64095-8.55876-7.01535-14.73228-7.01535h-35.37907v47.7045h35.37907c6.17352 0 11.27856-2.48235 14.73228-7.01535 3.23786-4.20926 4.95393-10.0374 4.95393-16.83694 0-6.79946-1.71607-12.6276-4.95393-16.83686m64.31478 30.54389c0 .97131-.88502 1.94271-1.9751 1.94271h-37.79667c-1.10087 0-1.98589-.9714-1.98589-1.94271v-27.41398c0-1.07925.88502-1.94271 1.98589-1.94271h37.79667c1.09008 0 1.9751.86346 1.9751 1.94271v27.41398zm-1.64052-37.55924h-38.47662c-5.56913 0-10.11293 4.53301-10.11293 10.14526v27.41398c0 5.61226 4.5438 10.14526 10.11293 10.14526h38.47662c5.57992 0 10.11293-4.533 10.11293-10.14526v-27.41398c0-5.61225-4.53301-10.14526-10.11293-10.14526m160.27429 80.94662c9.15236 3.66954 28.48239 6.58365 43.57084 6.58365 16.51311 0 23.34504-5.61234 23.34504-12.73563 0-6.47571-6.34627-10.14534-24.57542-16.83686-24.38113-8.95814-42.26491-16.08143-42.26491-32.16286 0-16.51303 21.52103-26.33454 54.32058-26.33454 17.61397 0 23.658 1.07925 34.83942 3.12991l.08635 15.7576c-10.98721-2.05065-20.72237-5.61234-35.8432-5.61234-16.21087 0-23.11836 5.18057-23.11836 10.46909 0 7.663 10.6418 11.33254 29.30272 18.02414 25.97842 9.28189 40.43009 16.40517 40.43009 32.05483 0 16.18938-18.09962 27.84567-58.9183 27.84567-16.76139 0-28.32053-1.07926-41.17485-3.23786v-16.9448m-86.88269-67.5635h-19.42719v73.60752h19.42719c29.82072 0 48.63272-12.84357 48.63272-36.69586 0-23.8522-18.812-36.91166-48.63272-36.91166zm52.1404 80.40698c-9.60566 4.3172-27.78087 7.12329-43.66799 7.12329h-60.72076V7.296702h60.72076c15.88712 0 34.06233 2.80617 43.68958 7.12328 23.38818 10.57703 31.00795 27.52192 31.00795 43.49532 0 15.97349-7.55501 32.91829-31.02954 43.49532m140.93344-7.98674h-3.89623v-1.40309h9.48698v1.40309h-3.91781v11.33254h-1.67294v-11.33254m17.75428 5.72029c-.09714-1.72692-.205-3.88543-.205-5.50441h-.04318c-.45336 1.51103-.9714 3.12992-1.61897 4.85683l-2.25575 6.25983h-1.25197l-2.09374-6.15197c-.60448-1.83477-1.10094-3.45366-1.45706-4.96469h-.04318c-.03238 1.61898-.12953 3.77749-.23747 5.61226l-.34533 5.5044h-1.5758l.89584-12.73563h2.10463l2.1801 6.15198c.52884 1.61897.94982 3.02197 1.29515 4.3172h.03238c.34542-1.29523.79869-2.69823 1.3707-4.3172l2.27734-6.15198h2.10454l.79869 12.73563h-1.62968l-.30224-5.61225"/>
</svg>
