<?xml version="1.0" encoding="UTF-8" standalone="no"?>
<!-- Created with Inkscape (http://www.inkscape.org/) -->

<svg
   xmlns:dc="http://purl.org/dc/elements/1.1/"
   xmlns:cc="http://creativecommons.org/ns#"
   xmlns:rdf="http://www.w3.org/1999/02/22-rdf-syntax-ns#"
   xmlns:svg="http://www.w3.org/2000/svg"
   xmlns="http://www.w3.org/2000/svg"
   xmlns:inkscape="http://www.inkscape.org/namespaces/inkscape"
   version="1.1"
   width="577.28748"
   height="235.66251"
   id="svg2"
   xml:space="preserve"><metadata
     id="metadata8"><rdf:RDF><cc:Work
         rdf:about=""><dc:format>image/svg+xml</dc:format><dc:type
           rdf:resource="http://purl.org/dc/dcmitype/StillImage" /></cc:Work></rdf:RDF></metadata><defs
     id="defs6" /><g
     transform="matrix(1.25,0,0,-1.25,0,235.6625)"
     id="g10"><g
       transform="scale(0.1,0.1)"
       id="g12"><path
         d="m 1647.08,448.309 c 0,0 -75.98,-132.571 -242.8,-116.911 -195.86,20.082 -218.94,192.114 -218.94,192.114 0,0 -26.8,126.597 93.83,236.828 122.14,102.781 249.49,87.148 249.49,87.148 0,0 85.64,-8.199 129.61,-149.699 56.58,-180.238 -11.19,-249.48 -11.19,-249.48 z m 295.66,356.722 c -24.57,74.457 -89.38,145.215 -89.38,145.215 0,0 -97.53,126.624 -288.94,169.784 -163.85,34.28 -292.7,-37.97 -292.7,-37.97 0,0 -116.89,-46.91 -204.8,-143.728 C 926.918,803.551 886.684,606.93 886.684,606.93 c 0,0 -53.594,-171.289 31.289,-306.84 L 1010.32,188.391 C 1140.65,79.6406 1279.93,68.4883 1279.93,68.4883 c 0,0 112.46,-25.3281 243.53,8.9219 114.67,23.0898 198.11,79.7108 198.11,79.7108 0,0 189.9,104.981 242.03,319.469 l -20.86,328.441"
         inkscape:connector-curvature="0"
         id="path14"
         style="fill:#4e4ba8;fill-opacity:1;fill-rule:nonzero;stroke:none" /><path
         d="M 3266.88,409.559 C 3056.12,282.961 2923.56,421.5 2923.56,421.5 c 0,0 -58.83,38.711 -71.5,156.379 -8.93,136.293 126.6,207.031 126.6,207.031 0,0 71.52,43.949 160.88,37.25 89.39,-6.699 117.65,-0.738 189.9,-54.371 68.49,-61.82 64.06,-107.23 64.06,-107.23 0,0 24.55,-153.438 -126.62,-251 z m 356.7,434.929 c -130.27,212.982 -359.65,245.012 -359.65,245.012 0,0 -73.01,24.59 -229.39,3.75 -293.42,-55.86 -395.47,-281.52 -395.47,-281.52 0,0 -105.02,-165.332 -63.3,-365.66 l 128.1,-253.211 C 2798.44,104.25 2837.15,104.25 2843.13,99 c 125.12,-56.5898 270.33,-23.8086 270.33,-23.8086 0,0 183.21,17.8672 350.78,148.1996 134.05,98.3 192.17,242.769 192.17,242.769 l -32.83,378.328"
         inkscape:connector-curvature="0"
         id="path16"
         style="fill:#daac06;fill-opacity:1;fill-rule:nonzero;stroke:none" /><path
         d="m 3939.42,796.832 -14.18,194.371 c 0,0 136.27,2.988 192.89,-6.699 111.74,-17.129 105.72,-48.418 105.72,-48.418 0,0 -3.69,-39.453 -88.59,-78.207 -92.36,-44.66 -195.84,-61.047 -195.84,-61.047 z M 3656.41,466.148 c 0,0 4.43,-119.128 -14.18,-148.187 -25.33,-54.352 -21.6,-107.242 -21.6,-107.242 0,0 -17.13,-160.8596 169.08,-187.6799 128.09,0.7617 143.73,107.2699 145.94,152.6799 7.46,35.742 4.47,201.832 4.47,201.832 L 4106.2,242 c 0,0 120.68,-101.281 191.4,-160.1289 73.81,-58.0703 92.33,-68.5 92.33,-68.5 0,0 15.7,-18.60938 72.22,-11.91016 45.51,-0.781252 87.19,40.21096 87.19,40.21096 0,0 52.85,38.707 66.21,106.4881 16.41,80.43 -46.09,119.899 -46.09,119.899 0,0 -230.86,186.191 -387.27,314.3 104.96,57.321 155.63,96.813 155.63,96.813 0,0 146.01,96.797 177.26,245 43.25,163.108 -79.68,227.148 -79.68,227.148 0,0 -76.72,55.12 -141.55,84.18 -163.08,79.67 -314.98,63.3 -314.98,63.3 0,0 -215.99,14.88 -356.76,-158.65 -64.76,-84.14 -24.55,-194.377 -24.55,-194.377 0,0 8.03,-17.675 26.02,-101.285 36.25,-168.168 32.83,-378.34 32.83,-378.34"
         inkscape:connector-curvature="0"
         id="path18"
         style="fill:#00938a;fill-opacity:1;fill-rule:nonzero;stroke:none" /><path
         d="m 2575.77,446.051 c -62.76,13.789 -163.11,-11.903 -163.11,-11.903 0,0 -139.98,-51.378 -161.62,-50.636 -8.16,11.886 -26.04,240.547 -20.82,332.148 2.99,161.602 -10.43,293.43 -10.43,293.43 0,0 -6.7,155.65 -90.14,247.99 -98.3,99.04 -166.81,56.6 -206.27,32.78 -94.61,-84.91 -50.66,-188.4 -50.66,-188.4 l 49.16,-139.3 c 0,0 23.85,-59.57 20.86,-157.129 L 1963.6,476.59 c 0,-43.942 35.74,-339.59 35.74,-339.59 0,0 3.71,-96.0898 96.08,-113.1992 94.57,-15.62111 187.65,31.2695 227.14,49.8594 39.46,18.6406 91.62,35.0198 91.62,35.0198 0,0 43.17,9.672 86.35,13.422 101.31,9.687 137.8,27.539 137.8,27.539 0,0 39.23,5.898 65.54,43.218 26.31,37.313 58.19,212.25 -128.1,253.192"
         inkscape:connector-curvature="0"
         id="path20"
         style="fill:#6eb122;fill-opacity:1;fill-rule:nonzero;stroke:none" /><path
         d="m 917.973,300.129 c -66.524,19.883 -142.969,6.703 -142.969,6.703 0,0 -215.996,-20.844 -328.438,2.969 C 272.289,340.332 278.227,528 278.227,528 c 0,0 -5.938,124.379 99.082,292.68 129.57,207.79 272.558,245.03 272.558,245.03 0,0 35.762,13.38 69.278,-4.47 20.839,-120.642 137.753,-119.9 137.753,-119.9 0,0 168.342,-11.192 160.122,192.85 -19.36,167.6 -180.981,190.69 -248.754,206.31 -203.301,36.5 -335.118,-72.23 -335.118,-72.23 0,0 -136.289,-73.75 -299.375,-330.661 C 22.7773,778.238 9.39844,653.121 9.39844,653.121 9.39844,653.121 -4,623.309 1.19531,490.738 -1.75391,387.238 36.957,312.039 36.957,312.039 c 0,0 58.8477,-178.039 245.02,-251.0078 113.183,-46.9218 278.535,-46.1718 278.535,-46.1718 0,0 160.117,2.2226 282.988,8.9414 67.031,-5.211 99.062,29.789 99.062,29.789 0,0 75.198,49.1402 67.758,134.8012 0,0 -14.574,88.461 -92.347,111.738"
         inkscape:connector-curvature="0"
         id="path22"
         style="fill:#b80a41;fill-opacity:1;fill-rule:nonzero;stroke:none" /><path
         d="m 756.059,1629.89 -17.969,92.74 -41.465,-92.74 59.434,0 z m 651.051,-235.74 -98.2,0 -13.12,295.76 -127.68,-295.76 -65.49,0 -54.55,267.39 -85.136,-267.39 -166.973,0 -25.117,142.95 -113.496,0 -64.395,-142.95 -102.598,0 210.645,478.01 121.133,0 64.394,-386.35 125.513,386.35 97.11,0 48.02,-261.93 111.35,261.93 117.87,0 20.72,-478.01"
         inkscape:connector-curvature="0"
         id="path24"
         style="fill:#2e3192;fill-opacity:1;fill-rule:nonzero;stroke:none" /><path
         d="m 1688.7,1394.15 16.38,102.58 -171.36,0 13.59,85.14 149.02,0 16.39,102.58 -150.63,0 13.11,85.13 171.31,0 16.39,102.58 -271.74,0 -76.41,-478.01 273.95,0"
         inkscape:connector-curvature="0"
         id="path26"
         style="fill:#2e3192;fill-opacity:1;fill-rule:nonzero;stroke:none" /><path
         d="m 2964.52,1872.16 -114.61,0 -97.13,-156.05 -61.1,156.05 -112.42,0 115.69,-252.09 -35.65,-225.92 98.24,0 30.16,199.71 176.82,278.3"
         inkscape:connector-curvature="0"
         id="path28"
         style="fill:#2e3192;fill-opacity:1;fill-rule:nonzero;stroke:none" /><path
         d="m 2381.29,1485.17 c 51.96,-23.24 115.59,22.36 142.09,101.85 26.47,79.52 5.86,162.84 -46.09,186.08 -51.97,23.26 -115.55,-22.35 -142.07,-101.88 -26.5,-79.53 -5.86,-162.79 46.07,-186.05 z m -148.65,189.1 c 30.51,132.17 143.46,218.91 252.29,193.75 108.86,-25.16 172.38,-152.66 141.89,-284.82 -30.49,-132.15 -143.46,-218.89 -252.28,-193.74 -108.87,25.16 -172.39,152.68 -141.9,284.81"
         inkscape:connector-curvature="0"
         id="path30"
         style="fill:#2e3192;fill-opacity:1;fill-rule:nonzero;stroke:none" /><path
         d="M 280.824,1829.58 C 187.23,1771.67 142.211,1683.37 154.203,1563.31 168.129,1424.05 348.48,1336.3 501.273,1424.7 c 13.36,7.73 8.145,6.5 13.106,10.92 l 30.566,194.27 -182.285,0 -13.965,-89.49 76.172,0 -8.75,-48.04 c -43.633,-17.45 -117.851,-10.9 -149.492,45.85 -20.039,35.94 -38.613,116.16 45.859,189.91 68.711,60.02 187.696,70.92 256.465,39.27 0,0 8.731,50.2 15.254,97.15 -132.051,45.82 -234.648,7.62 -303.379,-34.96"
         inkscape:connector-curvature="0"
         id="path32"
         style="fill:#2e3192;fill-opacity:1;fill-rule:nonzero;stroke:none" /><path
         d="m 1912.39,1869.5 -75.8,-474.41 c 0,0 157.05,0 220.93,0 90.98,0 224.03,134.1 102.91,243.69 124.54,128.89 1.06,229.61 -65,230.72 -53.06,0.88 -184.1,0 -184.1,0 l 1.06,0 z m 54.16,-287.03 c 0,0 20.58,0 82.3,0 78.01,0 75.84,-95.31 -10.82,-95.31 -54.12,0 -86.64,0 -86.64,0 l 15.16,95.31 z m 30.31,186.29 c 0,0 2.17,0 63.93,0 69.31,0 55.25,-88.81 -10.8,-88.81 -54.18,0 -68.27,0 -68.27,0 l 15.14,88.81"
         inkscape:connector-curvature="0"
         id="path34"
         style="fill:#2e3192;fill-opacity:1;fill-rule:nonzero;stroke:none" /><path
         d="m 2846.06,1350.3 -18.54,0 15.53,66.04 -26.78,0 3.34,14.2 72.09,0 -3.34,-14.2 -26.77,0 -15.53,-66.04"
         inkscape:connector-curvature="0"
         id="path36"
         style="fill:#231f20;fill-opacity:1;fill-rule:nonzero;stroke:none" /><path
         d="m 2968.89,1350.3 -17.28,0 15.76,67.06 -0.24,0 -32.28,-67.06 -18.17,0 -0.43,67.06 -0.23,0 -15.76,-67.06 -17.29,0 18.85,80.24 27.01,0 1.21,-63.26 0.26,0 30.64,63.26 26.82,0 -18.87,-80.24"
         inkscape:connector-curvature="0"
         id="path38"
         style="fill:#231f20;fill-opacity:1;fill-rule:nonzero;stroke:none" /></g></g></svg>