<svg xmlns="http://www.w3.org/2000/svg" viewBox="0 0 324.071 35.224"><path d="M207.881 23.493c.6-.539 1.281-.857 2.051-.936a4.246 4.246 0 0 1 2.109.27c.627.279 1.134.694 1.481 1.3.359.579.445 1.27.263 2.079-.229.81-.667 1.553-1.302 2.244a23.54 23.54 0 0 1-1.914 1.898c-1.455 1.378-3.072 2.388-4.854 3.052a14.792 14.792 0 0 1-5.393.936 14.305 14.305 0 0 1-5.331-1.167c-1.737-.74-3.306-1.847-4.69-3.318a15.665 15.665 0 0 1-2.082-2.786 13.173 13.173 0 0 1-1.287-3.071 16.04 16.04 0 0 1-.607-4.948c.027-1.704.327-3.371.895-4.986a17.437 17.437 0 0 1 2.381-4.565 14.93 14.93 0 0 1 3.789-3.648 28.09 28.09 0 0 1 3.286-1.928 45.332 45.332 0 0 1 3.513-1.511c.711-.258 1.435-.52 2.185-.78.752-.249 1.52-.433 2.305-.587a11.99 11.99 0 0 1 2.358-.144 8.106 8.106 0 0 1 2.308.452c.522.205 1.05.492 1.571.839.52.357 1.012.752 1.454 1.202.46.461.847.934 1.187 1.437a6.2 6.2 0 0 1 .73 1.471c.106.435.142.887.082 1.333a2.788 2.788 0 0 1-.441 1.238c-.248.368-.584.674-1 .936a3.621 3.621 0 0 1-1.398.473c-.865.106-1.519.017-1.989-.241a3.655 3.655 0 0 1-1.128-1.021l-.816-1.175c-.254-.397-.627-.666-1.107-.839-.31 0-.539.01-.686.05-1.279.3-2.561.723-3.84 1.243a18.302 18.302 0 0 0-3.592 1.887 13.494 13.494 0 0 0-2.899 2.57 9.385 9.385 0 0 0-1.802 3.284 11.544 11.544 0 0 0-.499 4.383c.106 1.482.56 2.868 1.348 4.175a6.68 6.68 0 0 0 1.79 2.022 8.066 8.066 0 0 0 2.482 1.292 6.746 6.746 0 0 0 2.746.298 6.496 6.496 0 0 0 2.688-.875 9.102 9.102 0 0 0 2.028-1.74 28.472 28.472 0 0 0 1.627-2.098z" fill="#ff004f"/><path d="M243.016 19.657a30.85 30.85 0 0 1-2.264 5.106 19.752 19.752 0 0 1-3.352 4.466 16.098 16.098 0 0 1-4.613 3.179c-1.75.809-3.754 1.213-6.007 1.213-1.452-.059-2.597-.184-3.456-.357a10.87 10.87 0 0 1-2.463-.771c-1.436-.372-2.648-.972-3.67-1.798a11.415 11.415 0 0 1-2.58-2.872 13.998 13.998 0 0 1-1.59-3.477c-.365-1.228-.607-2.415-.701-3.57a18.061 18.061 0 0 1 .577-6.173 18.63 18.63 0 0 1 2.645-5.768 18.192 18.192 0 0 1 4.574-4.535c1.852-1.262 3.949-2.078 6.297-2.482 1.227-.191 2.448-.258 3.697-.191 1.254.057 2.467.277 3.639.653.974.307 1.871.664 2.711 1.069.834.404 1.624.928 2.393 1.549a12.385 12.385 0 0 1 2.555 2.803 11.995 11.995 0 0 1 1.502 3.312c.385 1.461.547 2.908.519 4.343a29.924 29.924 0 0 1-.413 4.301zm-13.48 7.881a9.577 9.577 0 0 0 2.743-1.619 12.994 12.994 0 0 0 2.051-2.217 13.617 13.617 0 0 0 1.472-2.589c.404-.922.763-1.839 1.07-2.782a21.69 21.69 0 0 0 .34-3.637 7.47 7.47 0 0 0-.851-3.554c-.491-.936-1.223-1.723-2.213-2.41a9.452 9.452 0 0 0-3.258-1.386 9.783 9.783 0 0 0-3.561-.171c-1.193.156-2.264.575-3.195 1.259-1.331.996-2.389 2.11-3.207 3.342a14.733 14.733 0 0 0-1.85 4.085 15.387 15.387 0 0 0-.568 3.735c-.027 1.308.191 2.551.686 3.735.365.873.932 1.676 1.682 2.386a8.486 8.486 0 0 0 2.522 1.684c.94.404 1.94.638 2.997.686a7.773 7.773 0 0 0 3.14-.547z" fill="#7942ba"/><path d="M295.326 19.795a32.336 32.336 0 0 1-2.426 5.466 20.924 20.924 0 0 1-3.583 4.776 17.25 17.25 0 0 1-4.931 3.392c-1.858.865-4.006 1.298-6.422 1.298-1.551-.059-2.782-.194-3.697-.365a14.811 14.811 0 0 1-2.635-.829c-1.523-.404-2.836-1.042-3.923-1.936a12.345 12.345 0 0 1-2.753-3.06 14.355 14.355 0 0 1-1.694-3.729 18.835 18.835 0 0 1-.751-3.821c-.192-2.156.011-4.362.607-6.588a19.656 19.656 0 0 1 2.839-6.161c1.29-1.887 2.929-3.492 4.903-4.851 1.962-1.348 4.197-2.232 6.719-2.665 1.298-.196 2.609-.273 3.949-.196 1.338.061 2.637.302 3.898.695 1.033.326 2.003.711 2.888 1.156a11.93 11.93 0 0 1 2.563 1.638 13.045 13.045 0 0 1 2.712 2.995 12.206 12.206 0 0 1 1.617 3.549c.408 1.561.588 3.113.551 4.641a30.389 30.389 0 0 1-.431 4.595zm-14.412 8.431c1.115-.44 2.087-1.008 2.926-1.721a14.699 14.699 0 0 0 2.205-2.379 14.912 14.912 0 0 0 1.576-2.772c.434-.974.803-1.975 1.137-2.976.22-1.26.34-2.561.354-3.88a7.857 7.857 0 0 0-.901-3.804c-.521-1-1.31-1.858-2.371-2.569a10.153 10.153 0 0 0-3.463-1.5 10.853 10.853 0 0 0-3.825-.174 7.151 7.151 0 0 0-3.419 1.357c-1.4 1.061-2.551 2.242-3.416 3.56a15.584 15.584 0 0 0-1.977 4.372 15.338 15.338 0 0 0-.616 4 9.595 9.595 0 0 0 .728 3.983c.404.943 1.01 1.792 1.809 2.551a8.926 8.926 0 0 0 5.89 2.522 8.335 8.335 0 0 0 3.363-.57z" fill="#f9e52d"/><path d="M303.297 31.951a3.106 3.106 0 0 1-1.183 2.06 5.112 5.112 0 0 1-2.196 1.04c-.789.144-1.503.066-2.156-.22-.654-.31-1.002-.915-1.047-1.832a251.696 251.696 0 0 1-.273-12.024V8.592c-.597-.192-1.058-.499-1.348-.905a2.66 2.66 0 0 1-.539-1.329 3.318 3.318 0 0 1 .191-1.503c.203-.499.475-.932.861-1.308.4-.404.961-.767 1.663-1.1a20.874 20.874 0 0 1 2.337-.932c.84-.281 1.68-.539 2.507-.73a33.508 33.508 0 0 1 2.077-.461c2.36-.446 4.729-.425 7.129.025 2.393.453 4.492 1.273 6.313 2.438 1.818 1.185 3.176 2.713 4.073 4.6.895 1.892.995 4.037.278 6.463a15.066 15.066 0 0 1-.836 2.014c-.34.662-.732 1.291-1.174 1.866a11.364 11.364 0 0 1-2.254 2.31 22.44 22.44 0 0 1-2.81 1.869c.71.674 1.396 1.378 2.022 2.117a15.122 15.122 0 0 0 2.136 2.023c.299.233.74.6 1.32 1.1a21.856 21.856 0 0 1 1.686 1.626c.537.568 1.02 1.126 1.436 1.685.404.549.596 1.01.556 1.386a3.304 3.304 0 0 1-.589 1.733c-.356.53-.787.922-1.289 1.213-.5.289-1.057.433-1.652.433-.6 0-1.197-.192-1.805-.557A11.9 11.9 0 0 1 316.825 33a50.483 50.483 0 0 0-1.742-1.76 206.875 206.875 0 0 1-3.616-3.652 111.703 111.703 0 0 0-3.633-3.618c-.742.146-1.503.239-2.27.289-.763.045-1.523.106-2.266.172v7.52zm10.054-24.419c-1.501-.799-3.15-1.248-4.921-1.358a13.96 13.96 0 0 0-5.133.658v11.396a41.989 41.989 0 0 0 4.959-.584 11.08 11.08 0 0 0 4.516-1.877 7.064 7.064 0 0 0 1.84-1.908c.461-.713.74-1.456.839-2.215a4.21 4.21 0 0 0-.34-2.213c-.32-.723-.904-1.36-1.76-1.899z" fill="#00b3dd"/><path d="M265.284 26.19c.897.308 1.581.713 2.069 1.253.502.539.752 1.1.791 1.685.02.596-.173 1.166-.605 1.726-.426.554-1.108 1.008-2.063 1.348-.365.145-.875.228-1.549.306-.674.066-1.608.155-2.795.241-1.191.095-2.705.22-4.543.364-1.83.135-4.08.347-6.76.588-.662.085-1.357.154-2.066.21-.717.057-1.348-.114-1.9-.509-.479-.298-.847-.782-1.107-1.463a10.172 10.172 0 0 1-.559-2.138 25.465 25.465 0 0 1-.238-2.274 84.566 84.566 0 0 0-.117-1.885c-.078-1.004-.163-2.16-.25-3.466-.084-1.302-.176-2.65-.249-4.009-.099-1.356-.192-2.686-.298-3.992-.098-1.302-.193-2.467-.271-3.47a158.03 158.03 0 0 1-.281-4.305c-.047-1.095-.036-1.953.051-2.581.078-.632.249-1.103.53-1.402.278-.308.674-.587 1.185-.841.421-.2.914-.294 1.463-.275.551 0 1.048.095 1.539.268.482.184.896.454 1.255.818.335.357.528.772.564 1.234.408 4.024.716 8.01.955 11.969.233 3.965.513 7.913.818 11.871 2.348-.192 4.701-.388 7.03-.625 2.319-.233 4.677-.473 7.056-.732l.345.086z" fill="#aae000"/><g fill="#3b3e8a"><path d="M175.818 31.397c.348 0 .657-.024.657-.441 0-.335-.303-.397-.59-.397h-.557v.838h.49m-.49 1.52h-.41v-2.703h1.031c.637 0 .953.235.953.768 0 .483-.302.695-.7.746l.771 1.189h-.46l-.714-1.172h-.471v1.172m.496.603c1.061 0 1.898-.833 1.898-1.961 0-1.11-.838-1.948-1.898-1.948-1.074 0-1.911.838-1.911 1.948 0 1.128.837 1.961 1.911 1.961m-2.382-1.961c0-1.345 1.092-2.339 2.383-2.339 1.277 0 2.369.994 2.369 2.339 0 1.357-1.092 2.352-2.369 2.352-1.292 0-2.383-.994-2.383-2.352M39.622 17.963l-1.181-6.09-2.721 6.09h3.902m42.722 15.469h-6.445l-.859-19.409-8.38 19.409h-4.296L58.78 15.886l-5.585 17.546H42.237l-1.647-9.381h-7.449l-4.225 9.381h-6.733L36.007 2.063h7.949l4.226 25.352 8.235-25.352h6.375l3.151 17.188L73.25 2.063h7.734l1.36 31.369M100.822 33.432l1.077-6.732H90.652l.893-5.585h9.779l1.077-6.734h-9.886l.86-5.586h11.242l1.077-6.732H87.86l-5.014 31.369h17.976M184.547 2.063h-7.521l-6.374 10.241-4.011-10.241h-7.376l7.591 16.543-2.338 14.826h6.446l1.98-13.107 11.603-18.262"/><path d="M146.276 27.459c3.409 1.526 7.584-1.467 9.32-6.684 1.739-5.218.387-10.686-3.023-12.213-3.408-1.525-7.582 1.469-9.322 6.687-1.739 5.219-.386 10.684 3.025 12.21m-9.756-12.412c2-8.669 9.412-14.364 16.558-12.712 7.143 1.65 11.311 10.019 9.31 18.689-2.002 8.673-9.414 14.365-16.559 12.715-7.143-1.651-11.312-10.018-9.309-18.692M8.433 4.857C2.292 8.657-.662 14.455.125 22.33c.914 9.14 12.748 14.898 22.775 9.099.876-.509.534-.429.859-.719l2.006-12.747h-11.96l-.916 5.871h4.998l-.572 3.153c-2.865 1.147-7.735.717-9.814-3.009-1.314-2.357-2.534-7.623 3.01-12.462 4.511-3.939 12.318-4.654 16.83-2.575 0 0 .573-3.297 1.002-6.377-8.666-3.007-15.398-.501-19.91 2.293"/><path d="M115.504 2.24l-4.977 31.131h14.5c5.971 0 14.701-8.802 6.753-15.994 8.173-8.457.071-15.068-4.265-15.137-3.482-.059-12.084 0-12.084 0h.073m3.553 18.834h5.401c5.118 0 4.978 6.254-.71 6.254h-5.686l.995-6.254m1.99-12.226h4.194c4.548 0 3.624 5.829-.712 5.829h-4.478l.996-5.829"/></g></svg>