<?xml version="1.0" encoding="utf-8"?>
<!-- Generator: Adobe Illustrator 26.0.3, SVG Export Plug-In . SVG Version: 6.00 Build 0)  -->
<svg version="1.1" id="Layer_1" xmlns="http://www.w3.org/2000/svg" xmlns:xlink="http://www.w3.org/1999/xlink" x="0px" y="0px"
	 viewBox="0 0 3839 682.7" style="enable-background:new 0 0 3839 682.7;" xml:space="preserve">
<style type="text/css">
	.st0{fill:#FFFFFF;}
	.st1{fill:#E31E26;}
	.st2{fill:#30308F;}
	.st3{fill:#C6C6C6;}
</style>
<g>
	<g>
		<g>
			<g>
				<path class="st2" d="M824.2,348.7l-24.6-126.6L743,348.8h81.2 M1713,670.5H1579L1561,266.8l-174.4,403.7h-89.4l-74.6-365
					l-116.3,365H878.6l-34.3-195.2h-155l-87.9,195.2h-140L749,17.9h165.4l88,527.5l171.4-527.5h132.6l65.5,357.5l151.8-357.5h161
					L1713,670.5"/>
				<polyline class="st2" points="2097.5,670.5 2119.8,530.5 1885.7,530.5 1904.4,414.2 2107.9,414.2 2130.3,274.1 1924.6,274.1 
					1942.4,158 2176.3,158 2198.6,17.9 1827.6,17.9 1723.5,670.5 2097.5,670.5 				"/>
				<polyline class="st2" points="3839,17.9 3682.7,17.9 3550.1,231 3466.5,17.9 3313.1,17.9 3471,362 3422.4,670.5 3556.5,670.5 
					3597.7,397.8 3839,17.9 				"/>
				<path class="st2" d="M3042.9,546.3c71,31.8,157.8-30.5,194-139.1c36.2-108.5,8-222.3-63-254c-70.9-31.8-157.7,30.6-194,139.1
					C2943.9,400.8,2972,514.6,3042.9,546.3 M2840,288.1c41.7-180.4,195.9-298.7,344.4-264.5C3333.1,58,3419.7,232,3378.1,412.3
					c-41.7,180.5-195.9,298.7-344.4,264.5S2798.3,468.6,2840,288.1"/>
				<path class="st2" d="M175.3,76C47.7,155.2-13.8,275.6,2.6,439.6c19,190.2,265.2,309.9,473.9,189.4c18.2-10.5,11.1-9,17.9-15
					l41.8-265.1h-249L268.1,471h104l-11.9,65.6c-59.6,23.8-160.9,14.9-204-62.7c-27.3-49.1-52.7-158.7,62.7-259.2
					c93.9-82,256.2-96.8,350.1-53.6c0,0,11.9-68.6,20.9-132.7C409.3-34.2,269.2,17.9,175.3,76"/>
				<path class="st2" d="M2402.7,21.6l-103.6,647.6c0,0,214.4,0,301.6,0c124.3,0,305.8-183.1,140.5-332.7
					c170.1-176,1.5-313.4-88.7-314.9c-72.5-1.3-251.4,0-251.4,0L2402.7,21.6 M2476.7,413.4c0,0,28.1,0,112.3,0
					c106.4,0,103.6,130.2-14.8,130.2c-73.9,0-118.4,0-118.4,0L2476.7,413.4 M2518.2,159.2c0,0,3,0,87.2,0
					c94.6,0,75.4,121.3-14.8,121.3c-73.9,0-93.1,0-93.1,0L2518.2,159.2"/>
			</g>
		</g>
	</g>
</g>
</svg>
