<?xml version="1.0" encoding="utf-8"?>
<!-- Generator: Adobe Illustrator 26.0.3, SVG Export Plug-In . SVG Version: 6.00 Build 0)  -->
<svg version="1.1" id="Layer_1" xmlns="http://www.w3.org/2000/svg" xmlns:xlink="http://www.w3.org/1999/xlink" x="0px" y="0px"
	 viewBox="0 0 3839 1091.3" style="enable-background:new 0 0 3839 1091.3;" xml:space="preserve">
<style type="text/css">
	.st0{fill:#FFFFFF;}
	.st1{fill:#00439B;}
</style>
<g>
	<g>
		<path class="st0" d="M1041,966.9h39.3c12,0,26.7-5.9,26.7-25.2c0-20.4-12.2-25.4-26.4-25.4H1041V966.9z M1014.1,895.1h67.6
			c44.2,0,51.9,27.4,51.9,46.9c0,18.9-7.7,46.9-51.9,46.8H1041v58.5h-26.9V895.1"/>
	</g>
	<g>
		<rect x="1150" y="895.1" class="st0" width="24.7" height="152.1"/>
	</g>
	<g>
		<path class="st0" d="M1269.4,992c-7.5,4.5-18.7,4.5-29.5,6.4c-10.6,1.7-20.1,5.7-20.1,18.5c0,11.1,14.1,14.4,22.7,14.4
			c10.9,0,27-5.7,27-21.1V992z M1294.1,1022.9c0,5.9,1.5,8.3,5.9,8.3c1.4,0,3.7,0,6.2-0.6v16.6c-3.8,1.3-11.6,2.9-15.7,2.9
			c-9.9,0-17.3-3.6-19-13.3c-9.8,8.9-25.1,13.3-38.2,13.3c-20.1,0-38.4-10.9-38.4-32.2c0-27.6,22.5-32.1,43-34.6
			c17.6-3.4,33.1-1.4,33.1-15.3c0-12.7-13.1-15.1-22.5-15.1c-13.9,0-23.6,5.5-24.6,17.8h-24.6c1.5-28.8,26.1-37.2,50.7-37.2
			c21.4,0,44.1,8.7,44.1,32.4V1022.9"/>
	</g>
	<g>
		<path class="st0" d="M1304.7,936.7h26.6l29.1,82.6h0.2l27.9-82.6h25.5l-42.7,116.6c-8.2,20-13.8,38-39.5,38
			c-5.8,0-11.5-0.4-16.7-1.2v-20.7c3.7,0.5,7.4,1.6,11.2,1.6c11.4,0,14.3-6,17.5-15.6l2.8-8.6L1304.7,936.7z"/>
	</g>
	<g>
		<path class="st0" d="M1444.5,996.3c0,23.6,17.1,33.1,38.7,33.1c23.3,0,31.7-11.6,31.7-23.5c0-11.8-6.2-16.5-12.4-18.6
			c-10.1-4.2-24.1-7.2-45.4-12.7c-25.8-7-33.5-22.8-33.5-39c0-29.7,27.7-44.2,55.9-44.2c31.1,0,58.2,17.2,58.2,48.3h-27
			c-1.4-20-13.7-27.4-32.2-27.4c-12.5,0-28.3,4.8-28.3,20.3c0,10.6,7.2,16.8,18.1,19.7c2.6,0.7,36.2,9.4,43.6,11.9
			c20.4,5.9,30,23.1,30,38.6c0,34.5-30.4,47.9-60.1,47.9c-35.2,0-63.4-16.3-64-54.5H1444.5z"/>
	</g>
	<g>
		<path class="st0" d="M1550.6,936.7h18.7v-32.6h24.3v32.6h22V955h-22v58.9c0,10,0.8,15.5,11.6,15.5c3.6,0,7,0,10.4-1.2v18.8
			c-5.4,0.3-10.6,1.3-15.9,1.3c-25.6,0-30-9.8-30.4-28V955h-18.7V936.7z"/>
	</g>
	<g>
		<path class="st0" d="M1703.2,992c-7.2,4.5-19,4.5-29.6,6.4c-10.7,1.7-20.3,5.7-20.3,18.5c0,11.1,14.1,14.4,22.8,14.4
			c10.9,0,27.1-5.7,27.1-21.1V992z M1727.8,1022.9c0,5.9,1.3,8.3,5.8,8.3c1.5,0,3.5,0,6.1-0.6v16.6c-3.6,1.3-11.5,2.9-15.4,2.9
			c-9.9,0-17-3.6-19-13.3c-9.4,8.9-25.2,13.3-38.3,13.3c-20,0-37.6-10.9-37.6-32.2c0-27.6,21.6-32.1,42.3-34.6
			c17.9-3.4,33.1-1.4,33.1-15.3c0-12.7-12.7-15.1-22.5-15.1c-13.9,0-23.7,5.5-24.9,17.8h-23.8c1.3-28.8,25.5-37.2,50-37.2
			c21.5,0,44.4,8.7,44.4,32.4V1022.9"/>
	</g>
	<g>
		<path class="st0" d="M1742.2,936.7h18.3v-32.6h24.5v32.6h22.3V955h-22.3v58.9c0,10,0.9,15.5,11.9,15.5c3.5,0,7,0,10.4-1.2v18.8
			c-5.5,0.3-10.5,1.3-16.1,1.3c-25.9,0-30.4-9.8-30.7-28V955h-18.3V936.7z"/>
	</g>
	<g>
		<path class="st0" d="M1827.9,936.7h24.6v110.4h-24.6V936.7z M1827.9,895.1h24.6v22.4h-24.6V895.1z"/>
	</g>
	<g>
		<path class="st0" d="M1958.2,992c0-18.7-9.4-38.9-31.1-38.9c-22.1,0-32,20.2-32,38.9c0,19.2,9.9,39.3,32,39.3
			C1948.8,1031.3,1958.2,1011.2,1958.2,992 M1871,992c0-33.7,20-58.3,56-58.3c35.2,0,55.8,24.6,55.8,58.3
			c0,34.2-20.6,58.3-55.8,58.3C1891,1050.3,1871,1026.1,1871,992"/>
	</g>
	<g>
		<path class="st0" d="M2001.3,936.7h22.8v16.4l0.6,0.3c7.2-12.4,19.9-19.7,34.6-19.7c22.3,0,37.4,12.7,37.4,38v75.5h-22.5v-69.7
			c-0.4-17-7.3-24.5-21.7-24.5c-16.5,0-27.2,13-27.2,28.8v65.3h-24.1V936.7z"/>
	</g>
	<g>
		<polygon class="st0" points="2173,894.9 2200.9,894.9 2239,1015.1 2239.6,1015.1 2278.5,894.9 2305.7,894.9 2253.8,1046.9 
			2223.8,1046.9 		"/>
	</g>
	<g>
		<path class="st0" d="M2320.4,894.9h24.1v22.5h-24.1V894.9z M2320.4,936.6h24.1v110.3h-24.1V936.6z"/>
	</g>
	<g>
		<path class="st0" d="M2360,936.6h18.5v-32.5h24.2v32.5h22.3v18.1h-22.3v58.9c0,10,0.8,15.4,11.9,15.4c3.6,0,6.8,0,10.4-1.1v18.6
			c-5.6,0.4-10.7,1.1-16.2,1.1c-25.1,0-30-9.6-30.4-27.9v-65.2H2360V936.6z"/>
	</g>
	<g>
		<path class="st0" d="M2534.8,1022.5c0,5.9,1.5,8.3,5.8,8.3c1.5,0,3.6,0,6-0.3v16.5c-3.7,1.3-11.4,3-15.4,3
			c-9.9,0-16.5-3.6-18.3-13.4c-9.9,9.2-25.6,13.4-38.8,13.4c-19.8,0-37.7-10.9-37.7-32.2c0-27.6,21.9-32.3,42.4-34.4
			c17.8-3.3,33.6-1.5,33.6-15.5c0-12.7-13.2-15.2-23.1-15.2c-13.8,0-23.8,5.7-24.8,17.8h-24.1c1.8-28.4,25.6-37.1,50.4-37.1
			c21.7,0,43.8,9,43.8,32.5V1022.5z M2510.9,991.7c-7.5,4.6-19.4,4.5-30.2,6.5c-10.6,1.7-19.9,5.6-19.9,18.4
			c0,11,13.9,14.3,22.6,14.3c10.7,0,27.5-5.5,27.5-21.1V991.7z"/>
	</g>
	<g>
		<polygon class="st0" points="3735.3,549.5 3713.3,549.5 3713.3,542 3766.6,542 3766.6,549.5 3744,549.5 3744,609.8 3735.3,609.8 
					"/>
	</g>
	<g>
		<polygon class="st0" points="3802.7,609.8 3784.2,554.8 3784.2,609.8 3775.2,609.8 3775.2,542 3787.7,542 3807.2,599.5 
			3826.4,542 3839,542 3839,609.8 3830,609.8 3830,554.8 3811.6,609.8 		"/>
	</g>
	<g>
		<path class="st0" d="M0,424.7v183c0,2.5,2.2,4.5,4.3,4.5h117.7c2.3,0,4.3-2,4.3-4.5v-183c0-53.2,28-90.4,67.4-90.4h310.5
			c99,0,160.3-63.5,160.3-166.8c0-103-61.4-167.4-160.3-167.4H4.5C2.2,0.2,0,2.2,0,4.7v66.7C0,73.8,2.2,76,4.5,76h460.8
			c45.1,0,71.2,33.2,71.2,91.5c0,58.2-26.1,91.8-71.2,91.8H135C58.7,259.2,0,330.1,0,424.7"/>
	</g>
	<g>
		<path class="st0" d="M1090.8,76H1326c2.6,0,4.8-2.1,4.8-4.6V4.7c0-2.7-2.3-4.7-4.8-4.7l-274,0.2c-99,0-160.2,64.1-160.2,167.2V445
			c0,58.3-25.3,91.5-71,91.5H579.3c-2.5,0-4.5,2.3-4.5,4.7v66.5c0,2.5,2,4.5,4.5,4.5h281c98.3,0,159.5-64.1,159.5-167.1V167.4
			C1019.8,109,1045.9,76,1090.8,76"/>
	</g>
	<g>
		<path class="st0" d="M2224.7,607.7c0,2.5,2.1,4.5,4.5,4.5h119.1c2.4,0,4.3-2,4.3-4.5V5c0-2.8-1.9-4.6-4.3-4.6h-119.1
			c-2.4,0-4.5,1.8-4.5,4.6V607.7z"/>
	</g>
	<g>
		<path class="st0" d="M1852.7,544.8L2140.1,5.4c1.4-2.7,0-5.4-2.5-5.4H2064c-2.5,0-5.2,1.9-6.5,4.1l-232.3,432.1
			c-16.7,32.1-45.5,35.8-62.9,3.9l-233.7-436c-1-2.3-4.2-4.1-6.7-4.1h-130.3c-3.1,0-4.2,2.8-2.7,5.7l287.7,539.1
			c16.7,30.9,36.7,51.2,58,60.6c34,15.9,71.2,4.2,100.9-34.2C1841.6,563.3,1847.2,554.7,1852.7,544.8"/>
	</g>
	<g>
		<path class="st0" d="M3034.8,0.4h-594.3c-2.7,0-4.5,1.8-4.5,4.6v65.8c0,2.3,1.8,4.4,4.5,4.4h226.1c4.3,0,8.1,3.6,8.1,8.2v524.3
			c0,2.5,2,4.5,4.5,4.5h116.6c2.8,0,4.8-2,4.8-4.5V83.4c0-4.6,3.5-8.2,8.1-8.2h226c2.6,0,4.7-2.2,4.7-4.4V5
			C3039.5,2.2,3037.4,0.4,3034.8,0.4"/>
	</g>
	<g>
		<path class="st0" d="M3678,606.9L3390.8,67.8c-16.5-31.1-37-51.2-58.1-61.1c-34.3-15.4-71-3.9-101.1,34.5
			c-6.2,7.6-11.9,16.7-16.9,26.6l-290,539.6c-1.3,2.6,0,5.1,3.1,5.1h75.7c2.3,0,5.4-1.7,6.6-4l62-115.5l0.1-0.3
			c2-3.9,7.3-7.2,11.8-7.2h378.5c4.2,0,9.1,3.1,11.7,6.8l0.2,0.5l62,115.6c0.9,2.2,4.1,4,6.5,4h132.7
			C3678.7,612.5,3679.4,609.6,3678,606.9 M3421.1,410.5h-295.8c-5.2,0-7.2-3.6-5-7.9h0.1l121.3-226.5c17.3-31.7,45.6-35.6,63-3.9
			l121.7,231.3C3428,407.3,3426,410.5,3421.1,410.5"/>
	</g>
</g>
</svg>
