<svg xmlns="http://www.w3.org/2000/svg" viewBox="9.6 187.5 399.99999 177.31662">
  <path fill="#999" d="M78.22544 364.20022c-7.47894-2.05465-14.75242-8.95829-17.91658-17.05362-2.13684-5.42429-9.86234-32.58681-36.90159-129.85412l-4.06821-14.58804 18.28642-.12328c10.0678-.0411 18.4097.0411 18.57407.20546.16437.16437 7.02691 26.66941 15.20444 58.92747l14.91678 58.59873 7.1091-27.16252c16.84817-64.51613 19.72468-74.91268 21.86152-79.39183 2.87652-6.04068 7.88987-10.31436 13.80727-11.8759 3.12308-.82186 10.35546-.82186 13.47853 0 6.5749 1.72591 11.67044 6.45162 14.50586 13.39635 1.72591 4.23258 5.42429 17.87549 19.23156 70.88555 4.64352 17.8344 8.58845 32.79228 8.75282 33.16212.20547.45202 5.9585-21.45059 15.28663-58.02343l14.99897-58.7631h18.57407c14.67023 0 18.53298.12328 18.4097.49312-.0822.28765-4.06822 14.46476-8.79392 31.55948-22.64228 81.52867-30.53215 108.93775-32.75118 113.74564-3.78056 8.21861-10.1089 13.88946-17.62893 15.86192-3.16417.82187-9.98562.82187-13.10869 0-4.35587-1.1506-6.82145-2.62995-10.56092-6.36942-2.91761-2.91761-3.82166-4.1915-5.42429-7.39676-2.58886-5.301-5.09554-13.93055-21.03965-72.52928-3.73947-13.80727-6.94473-25.35442-7.06801-25.68317-.12328-.32874-3.98603 13.14979-8.58845 29.95685-10.1089 36.94268-15.451 56.05096-17.09472 61.26978-3.5751 11.3006-10.1089 18.49188-18.65626 20.71091-3.04089.82186-10.51983.82186-13.39634.0411zm192.47996-56.70844v-56.09205h34.92912v112.1841H270.7054v-56.09205zm70.26916 0v-56.09205h34.92912v112.1841h-34.92912v-56.09205zm48.0789 50.54448v-5.54756h-2.05465c-1.93138 0-2.05466-.0822-2.05466-1.02733v-1.02733h10.6842v1.02733c0 .94514-.12328 1.02733-2.05465 1.02733h-2.05465V363.58383H389.05346v-5.54757zm7.39676-1.02732v-6.5749H400.14859l1.23279 4.06822c.69859 2.21902 1.2328 4.31477 1.2328 4.60242 0 1.27389.82186-.49311 2.01356-4.43805l1.27388-4.23259H409.6v13.14979h-2.46558l-.0411-4.64352c-.0411-5.01336 0-5.01336-1.80809 1.06842-1.06842 3.61619-1.06842 3.61619-2.3834 3.49291-1.27389-.12328-1.31498-.20546-2.54777-4.43805l-1.23279-4.31477-.12328 4.43805-.12328 4.43805H396.40912v-6.61598zM283.23879 232.04489c-7.93096-1.60263-14.46476-8.38299-15.82083-16.35504-1.64373-9.69797 4.84898-19.47812 14.58804-22.02589 4.97226-1.31498 11.34169-.6164 15.90302 1.68482 2.71214 1.39716 6.86254 5.3421 8.25971 7.88987 4.76679 8.79391 1.93137 20.25888-6.32834 25.55989-4.56133 2.9587-11.42387 4.31477-16.6016 3.24635zm70.26916 0c-10.23217-2.09574-17.50565-12.28683-15.86193-22.31354 1.27389-7.6844 7.10911-14.09492 14.62914-16.06739 4.97226-1.31498 11.34169-.6164 15.90302 1.68482 2.71214 1.39716 6.57489 5.05444 8.13643 7.76659 4.93117 8.67064 2.13684 20.38216-6.16396 25.68317-4.60243 2.9587-11.46497 4.31477-16.6427 3.24635zM9.6000004 187.5"/>
</svg>
