<svg enable-background="new 0 0 401.675 46.76" viewBox="0 0 401.675 46.76" xmlns="http://www.w3.org/2000/svg"><path d="m141.075.902c5.1 0 8.2 2.2 11.2 5.8 1.1-1 2.2-1.9 3.5-2.7 3.1-2 6.6-3 10.1-3h47l-3.1 4.9 59-.1 5.4 9.3 4.8-9.2h39.2l9.7 7.6v-7.6h73.8v35.3h-68.1l-9.9-7.7v7.7h-55.2l-3.7-6.1c-3 3.4-8.4 6.1-17.3 6.1h-49c-1.6 1.6-3.3 1.8-5.3 1.7l-.5 3.2h-18.9l.4-2.7c-.2.1-.4.3-.6.4-4.4 2.7-9.4 3.6-14.1 2.5-3.6-.8-6.8-2.8-9.2-5.4-3.2 3.1-7.5 5.2-11.6 5.2l-92.9.1-1.5-8.5-3.8 8.5h-15.5c-4.9.8-9.8.1-14.2-2.1-6-3.2-10-8.8-10.6-15.1-1.1-10.5 3-18.9 11.6-24.2 8.3-5.1 17.1-6.2 26.2-3l1.7.6.6-1.4h17.4l1.3 7.8 2.6-7.9z" fill="#1f00cc"/><g fill="#fff"><path d="m246.375 29.602h-6.2v-12.6h8.8c4.7 0 7 1.9 7 6 0 5-2.5 6.6-9.6 6.6m43.3-17.9h-7.2l-.2.4-8.1 14.9-8.7-14.9-.2-.3h-7.7l.6 1 1.5 2.4c-2.4-2.3-6-3.5-10.7-3.5h-15.5v19.4l-11.5-19-.2-.3h-5.9l-.2.3-13.1 22-.6 1h5.1 11.4v-5.2h-6.7l6.7-12.1 9.5 16.9.2.3h7.6 11.7c10.1 0 15.3-4 15.3-11.8 0-1.4-.2-2.6-.5-3.7l9.2 15.2.2.3h4.5l.2-.3 12.7-22z"/><path d="m334.375 11.702h-.7v13.9l-17.5-13.7-.2-.2h-4.6v19.4l-11.5-19-.2-.4h-5.9l-.2.4-13.1 21.9-.6 1.1h7 9.6v-5.2h-6.7l6.7-12.1 9.5 16.9.2.4h7.6 3.8v-14.1l17.5 13.9.2.2h4.6v-23.4z"/><path d="m362.075 11.702h-13.7c-4.8 0-6.4 1.5-6.4 5.9v11.6c0 4.4 1.6 5.9 6.4 5.9h13.7c4.8 0 6.4-1.5 6.4-5.9v-3.3h-.7-5.4-.7v3.6h-13.1v-12.3h13.1v3.2h.7 6.1v-2.8c0-4.5-1.6-5.9-6.4-5.9"/><path d="m395.175 29.602h-17.8v-4.1h10.7v-5.1h-10.7v-3.4h18.2v-5.3h-24.9v23.4h25.2v-5.5z"/><path d="m43.775 23.602 2.9-6.5 1.3 6.5zm39.9-16.9-7.8 18.3-3.3-18.3h-6.8l-8.8 27-4.5-27h-8.4l-12.8 29 1.9-12.1h-12.7l-1 6.2h5.3l-.6 3.3c-3 1.3-8.2.9-10.4-3.1-1.4-2.5-2.7-8.1 3.2-13.2 4.8-4.2 13.1-4.9 17.9-2.7 0 0 .6-3.5 1.1-6.8-9.2-3.2-16.4-.5-21.2 2.4-6.5 4-9.6 10.2-8.8 18.6 1 9.7 13.5 15.8 24.2 9.7.1-.1.2-.1.2-.1l-1 2.3h7.2l4.5-10h7.9l1.7 10h11.6l5.9-18.6 3.8 18.6h4.6l8.9-20.6.9 20.6h6.8l-1.3-33.5h-8.2"/><path d="m93.875 40.102h19.1l1.1-7.2h-12l1-5.9h10.4l1.1-7.2h-10.5l.9-5.9h12l1.1-7.2h-18.9z"/><path d="m187.075 17.602-4.2-10.9h-7.9l8.1 17.6-2.5 15.8h6.9l2.1-14 12.3-19.4h-8z"/><path d="m171.075 26.602c-1.8 5.5-6.3 8.7-9.9 7.1s-5-7.4-3.2-13c1.8-5.5 6.3-8.7 9.9-7.1 3.7 1.7 5.1 7.5 3.2 13m-2.6-19.6c-7.6-1.7-15.5 4.3-17.6 13.5s2.3 18.1 9.9 19.9 15.5-4.3 17.6-13.5-2.4-18.1-9.9-19.9"/><path d="m138.075 20.102c-3.8 0-4.8 0-4.8 0l1.1-6.2h4.4c4.9 0 4 6.2-.7 6.2m-.8 13.5c-3.8 0-6 0-6 0l1.1-6.6h5.7c5.4-.1 5.3 6.6-.8 6.6m4-26.7c-3.7-.1-12.8 0-12.8 0h.1l-5.3 33.1h15.4c6.3 0 15.6-9.3 7.2-17 8.6-9 0-16-4.6-16.1"/><path d="m193.275 36.902v-1.3h1.1c.5 0 .9.1.9.6 0 .8-.8.7-1.3.7zm1.3.4c.7 0 1.2-.3 1.2-1.1 0-.3-.2-.7-.4-.8-.3-.2-.6-.2-.9-.2h-1.7v3.9h.5v-1.7h.8l1.1 1.7h.6zm-.4 3.3c1.9 0 3.5-1.5 3.5-3.5 0-1.9-1.5-3.4-3.5-3.4-1.9 0-3.5 1.5-3.5 3.4 0 2 1.5 3.5 3.5 3.5m0-.6c-1.6 0-2.9-1.2-2.9-2.9 0-1.6 1.3-2.9 2.9-2.9s2.9 1.3 2.9 2.9c-.1 1.7-1.3 2.9-2.9 2.9"/></g></svg>