<?xml version="1.0" encoding="utf-8"?>
<!-- Generator: Adobe Illustrator 25.0.0, SVG Export Plug-In . SVG Version: 6.00 Build 0)  -->
<svg version="1.1" id="Layer_1" xmlns="http://www.w3.org/2000/svg" xmlns:xlink="http://www.w3.org/1999/xlink" x="0px" y="0px"
	 viewBox="0 0 3839 876" style="enable-background:new 0 0 3839 876;" xml:space="preserve">
<style type="text/css">
	.st0{fill:#C2C3C4;}
	.st1{fill:url(#SVGID_1_);}
	.st2{fill:url(#SVGID_2_);}
	.st3{fill:none;stroke:#000000;stroke-width:8.0596;stroke-miterlimit:10;}
	.st4{fill:url(#SVGID_3_);}
	.st5{fill:url(#SVGID_4_);}
	.st6{fill:url(#SVGID_5_);}
	.st7{fill:url(#SVGID_6_);}
	.st8{fill:url(#SVGID_7_);}
	.st9{fill:url(#SVGID_8_);}
	.st10{fill:url(#SVGID_9_);}
	.st11{opacity:0.7;fill:url(#SVGID_10_);enable-background:new    ;}
	.st12{opacity:0.7;fill:url(#SVGID_11_);enable-background:new    ;}
	.st13{opacity:0.7;}
	.st14{opacity:0.7;fill:url(#SVGID_12_);enable-background:new    ;}
	.st15{opacity:0.7;fill:url(#SVGID_13_);enable-background:new    ;}
	.st16{fill:url(#SVGID_14_);}
	.st17{fill:url(#SVGID_15_);}
	.st18{opacity:0.7;fill:url(#SVGID_16_);enable-background:new    ;}
	.st19{opacity:0.7;fill:url(#SVGID_17_);enable-background:new    ;}
	.st20{opacity:0.7;fill:url(#SVGID_18_);enable-background:new    ;}
	.st21{opacity:0.7;fill:url(#SVGID_19_);enable-background:new    ;}
	.st22{opacity:0.7;fill:url(#SVGID_20_);enable-background:new    ;}
	.st23{opacity:0.7;fill:url(#SVGID_21_);enable-background:new    ;}
	.st24{opacity:0.7;fill:url(#SVGID_22_);enable-background:new    ;}
	.st25{fill:url(#SVGID_23_);}
	.st26{fill:url(#SVGID_24_);}
	.st27{fill:none;stroke:#000000;stroke-width:8.0815;stroke-miterlimit:10;}
	.st28{fill:url(#SVGID_25_);}
	.st29{fill:url(#SVGID_26_);}
	.st30{fill:url(#SVGID_27_);}
	.st31{fill:url(#SVGID_28_);}
	.st32{fill:url(#SVGID_29_);}
	.st33{fill:url(#SVGID_30_);}
	.st34{fill:url(#SVGID_31_);}
	.st35{opacity:0.7;fill:url(#SVGID_32_);enable-background:new    ;}
	.st36{opacity:0.7;fill:url(#SVGID_33_);enable-background:new    ;}
	.st37{opacity:0.7;fill:url(#SVGID_34_);enable-background:new    ;}
	.st38{opacity:0.7;fill:url(#SVGID_35_);enable-background:new    ;}
	.st39{fill:url(#SVGID_36_);}
	.st40{fill:url(#SVGID_37_);}
	.st41{opacity:0.7;fill:url(#SVGID_38_);enable-background:new    ;}
	.st42{opacity:0.7;fill:url(#SVGID_39_);enable-background:new    ;}
	.st43{opacity:0.7;fill:url(#SVGID_40_);enable-background:new    ;}
	.st44{opacity:0.7;fill:url(#SVGID_41_);enable-background:new    ;}
	.st45{opacity:0.7;fill:url(#SVGID_42_);enable-background:new    ;}
	.st46{opacity:0.7;fill:url(#SVGID_43_);enable-background:new    ;}
	.st47{opacity:0.7;fill:url(#SVGID_44_);enable-background:new    ;}
	.st48{fill:url(#SVGID_45_);}
	.st49{fill:url(#SVGID_46_);}
	.st50{fill:none;stroke:#000000;stroke-width:4.2135;stroke-miterlimit:10;}
	.st51{fill:url(#SVGID_47_);}
	.st52{fill:url(#SVGID_48_);}
	.st53{fill:url(#SVGID_49_);}
	.st54{fill:url(#SVGID_50_);}
	.st55{fill:url(#SVGID_51_);}
	.st56{fill:url(#SVGID_52_);}
	.st57{fill:url(#SVGID_53_);}
	.st58{opacity:0.7;fill:url(#SVGID_54_);enable-background:new    ;}
	.st59{opacity:0.7;fill:url(#SVGID_55_);enable-background:new    ;}
	.st60{opacity:0.7;fill:url(#SVGID_56_);enable-background:new    ;}
	.st61{opacity:0.7;fill:url(#SVGID_57_);enable-background:new    ;}
	.st62{fill:url(#SVGID_58_);}
	.st63{fill:url(#SVGID_59_);}
	.st64{opacity:0.7;fill:url(#SVGID_60_);enable-background:new    ;}
	.st65{opacity:0.7;fill:url(#SVGID_61_);enable-background:new    ;}
	.st66{opacity:0.7;fill:url(#SVGID_62_);enable-background:new    ;}
	.st67{opacity:0.7;fill:url(#SVGID_63_);enable-background:new    ;}
	.st68{opacity:0.7;fill:url(#SVGID_64_);enable-background:new    ;}
	.st69{opacity:0.7;fill:url(#SVGID_65_);enable-background:new    ;}
	.st70{opacity:0.7;fill:url(#SVGID_66_);enable-background:new    ;}
	.st71{fill:url(#SVGID_67_);}
	.st72{fill:url(#SVGID_68_);}
	.st73{fill:none;stroke:#000000;stroke-width:4.3485;stroke-miterlimit:10;}
	.st74{fill:url(#SVGID_69_);}
	.st75{fill:url(#SVGID_70_);}
	.st76{fill:url(#SVGID_71_);}
	.st77{fill:url(#SVGID_72_);}
	.st78{fill:url(#SVGID_73_);}
	.st79{fill:url(#SVGID_74_);}
	.st80{fill:url(#SVGID_75_);}
	.st81{opacity:0.7;fill:url(#SVGID_76_);enable-background:new    ;}
	.st82{opacity:0.7;fill:url(#SVGID_77_);enable-background:new    ;}
	.st83{opacity:0.7;fill:url(#SVGID_78_);enable-background:new    ;}
	.st84{opacity:0.7;fill:url(#SVGID_79_);enable-background:new    ;}
	.st85{fill:url(#SVGID_80_);}
	.st86{fill:url(#SVGID_81_);}
	.st87{opacity:0.7;fill:url(#SVGID_82_);enable-background:new    ;}
	.st88{opacity:0.7;fill:url(#SVGID_83_);enable-background:new    ;}
	.st89{opacity:0.7;fill:url(#SVGID_84_);enable-background:new    ;}
	.st90{opacity:0.7;fill:url(#SVGID_85_);enable-background:new    ;}
	.st91{opacity:0.7;fill:url(#SVGID_86_);enable-background:new    ;}
	.st92{opacity:0.7;fill:url(#SVGID_87_);enable-background:new    ;}
	.st93{opacity:0.7;fill:url(#SVGID_88_);enable-background:new    ;}
	.st94{fill:#FFFFFF;}
	.st95{fill:url(#SVGID_89_);}
	.st96{fill:url(#SVGID_90_);}
	.st97{fill:url(#SVGID_91_);}
	.st98{fill:url(#SVGID_92_);}
	.st99{fill:url(#SVGID_93_);}
	.st100{fill:url(#SVGID_94_);}
	.st101{fill:url(#SVGID_95_);}
	.st102{fill:url(#SVGID_96_);}
	.st103{fill:url(#SVGID_97_);}
	.st104{opacity:0.7;fill:url(#SVGID_98_);enable-background:new    ;}
	.st105{opacity:0.7;fill:url(#SVGID_99_);enable-background:new    ;}
	.st106{opacity:0.7;fill:url(#SVGID_100_);enable-background:new    ;}
	.st107{opacity:0.7;fill:url(#SVGID_101_);enable-background:new    ;}
	.st108{fill:url(#SVGID_102_);}
	.st109{fill:url(#SVGID_103_);}
	.st110{opacity:0.7;fill:url(#SVGID_104_);enable-background:new    ;}
	.st111{opacity:0.7;fill:url(#SVGID_105_);enable-background:new    ;}
	.st112{opacity:0.7;fill:url(#SVGID_106_);enable-background:new    ;}
	.st113{opacity:0.7;fill:url(#SVGID_107_);enable-background:new    ;}
	.st114{opacity:0.7;fill:url(#SVGID_108_);enable-background:new    ;}
	.st115{opacity:0.7;fill:url(#SVGID_109_);enable-background:new    ;}
	.st116{opacity:0.7;fill:url(#SVGID_110_);enable-background:new    ;}
	.st117{fill:url(#SVGID_111_);}
	.st118{fill:url(#SVGID_112_);}
	.st119{fill:url(#SVGID_113_);}
	.st120{fill:url(#SVGID_114_);}
	.st121{fill:url(#SVGID_115_);}
	.st122{fill:url(#SVGID_116_);}
	.st123{fill:url(#SVGID_117_);}
	.st124{fill:url(#SVGID_118_);}
	.st125{fill:url(#SVGID_119_);}
	.st126{opacity:0.7;fill:url(#SVGID_120_);enable-background:new    ;}
	.st127{opacity:0.7;fill:url(#SVGID_121_);enable-background:new    ;}
	.st128{opacity:0.7;fill:url(#SVGID_122_);enable-background:new    ;}
	.st129{opacity:0.7;fill:url(#SVGID_123_);enable-background:new    ;}
	.st130{fill:url(#SVGID_124_);}
	.st131{fill:url(#SVGID_125_);}
	.st132{opacity:0.7;fill:url(#SVGID_126_);enable-background:new    ;}
	.st133{opacity:0.7;fill:url(#SVGID_127_);enable-background:new    ;}
	.st134{opacity:0.7;fill:url(#SVGID_128_);enable-background:new    ;}
	.st135{opacity:0.7;fill:url(#SVGID_129_);enable-background:new    ;}
	.st136{opacity:0.7;fill:url(#SVGID_130_);enable-background:new    ;}
	.st137{opacity:0.7;fill:url(#SVGID_131_);enable-background:new    ;}
	.st138{opacity:0.7;fill:url(#SVGID_132_);enable-background:new    ;}
	.st139{fill:url(#SVGID_133_);}
	.st140{fill:url(#SVGID_134_);}
	.st141{fill:url(#SVGID_135_);}
	.st142{fill:url(#SVGID_136_);}
	.st143{fill:url(#SVGID_137_);}
	.st144{fill:url(#SVGID_138_);}
	.st145{fill:url(#SVGID_139_);}
	.st146{fill:url(#SVGID_140_);}
	.st147{fill:url(#SVGID_141_);}
	.st148{opacity:0.7;fill:url(#SVGID_142_);enable-background:new    ;}
	.st149{opacity:0.7;fill:url(#SVGID_143_);enable-background:new    ;}
	.st150{opacity:0.7;fill:url(#SVGID_144_);enable-background:new    ;}
	.st151{opacity:0.7;fill:url(#SVGID_145_);enable-background:new    ;}
	.st152{fill:url(#SVGID_146_);}
	.st153{fill:url(#SVGID_147_);}
	.st154{opacity:0.7;fill:url(#SVGID_148_);enable-background:new    ;}
	.st155{opacity:0.7;fill:url(#SVGID_149_);enable-background:new    ;}
	.st156{opacity:0.7;fill:url(#SVGID_150_);enable-background:new    ;}
	.st157{opacity:0.7;fill:url(#SVGID_151_);enable-background:new    ;}
	.st158{opacity:0.7;fill:url(#SVGID_152_);enable-background:new    ;}
	.st159{opacity:0.7;fill:url(#SVGID_153_);enable-background:new    ;}
	.st160{opacity:0.7;fill:url(#SVGID_154_);enable-background:new    ;}
	.st161{fill:url(#SVGID_155_);}
	.st162{fill:url(#SVGID_156_);}
	.st163{fill:url(#SVGID_157_);}
	.st164{fill:url(#SVGID_158_);}
	.st165{fill:url(#SVGID_159_);}
	.st166{fill:url(#SVGID_160_);}
	.st167{fill:url(#SVGID_161_);}
	.st168{fill:url(#SVGID_162_);}
	.st169{fill:url(#SVGID_163_);}
	.st170{opacity:0.7;fill:url(#SVGID_164_);enable-background:new    ;}
	.st171{opacity:0.7;fill:url(#SVGID_165_);enable-background:new    ;}
	.st172{opacity:0.7;fill:url(#SVGID_166_);enable-background:new    ;}
	.st173{opacity:0.7;fill:url(#SVGID_167_);enable-background:new    ;}
	.st174{fill:url(#SVGID_168_);}
	.st175{fill:url(#SVGID_169_);}
	.st176{opacity:0.7;fill:url(#SVGID_170_);enable-background:new    ;}
	.st177{opacity:0.7;fill:url(#SVGID_171_);enable-background:new    ;}
	.st178{opacity:0.7;fill:url(#SVGID_172_);enable-background:new    ;}
	.st179{opacity:0.7;fill:url(#SVGID_173_);enable-background:new    ;}
	.st180{opacity:0.7;fill:url(#SVGID_174_);enable-background:new    ;}
	.st181{opacity:0.7;fill:url(#SVGID_175_);enable-background:new    ;}
	.st182{opacity:0.7;fill:url(#SVGID_176_);enable-background:new    ;}
</style>
<g>
	<g>
		<polyline points="1460.7,424.4 1290.7,720 1503.4,720 1503.4,652.9 1408.5,652.9 1496.3,506.1 1615.1,720 1703.4,720 
			1531.7,424.4 1460.7,424.4 		"/>
		<polyline points="1896.2,720 1987.1,562.1 1987.1,720 2060.3,720 2060.5,424.4 1987.4,424.4 1866.8,633.7 1746,424.4 
			1673.2,424.4 1673.3,720 1746.2,720 1746.2,562.1 1837.4,720 1896.2,720 		"/>
		<path d="M1300.2,542.1h-184.7v62.4h107.1v48.5h-191.1V488.5h265.5v-64.1h-267.9c-58,0-76.8,17.8-76.8,73.5v148.6
			c0,55.9,18.7,73.7,76.8,73.7h194.5c58.1,0,76.7-17.8,76.7-73.7L1300.2,542.1"/>
		<path d="M2708,424.4h-173.8c-58.3,0-76.8,17.8-76.8,73.5v148.5c0,55.9,18.5,73.6,76.8,73.6H2708c58.1,0,76.9-17.7,76.9-73.6v-53.9
			h-79.5v60.5h-168.7V488.6h168.7v53.5h79.5v-44.2C2784.9,442.2,2766.1,424.4,2708,424.4"/>
		<path d="M3068.9,652.9H2896V424.4h-79.4v222c0,55.9,18.7,73.7,76.8,73.7h178.1c58.2,0,76.9-17.8,76.9-73.7v-222H3069L3068.9,652.9
			"/>
		<path d="M3429.8,636.8c0,14.2-3.2,18.1-24.7,18.1h-142.6v-57.1h142.6c21.5,0,24.7,4,24.7,18V636.8 M3262.6,483.8h142.4
			c22,0,23,4.8,23,13.3V524c0,8.5-1,13.4-23,13.4h-142.4V483.8z M3471.8,568.1c19.1-9.1,29.6-25.9,29.6-47.8v-34.6
			c0-41.9-22.4-61.3-70.4-61.3h-247.8V720h230.6c60.1,0,90.3-20.8,90.3-62.5v-35.9C3504,596.5,3492.6,577.9,3471.8,568.1z"/>
		<polyline points="3613.4,597.6 3743.3,597.6 3743.3,535.6 3613.4,535.6 3613.4,486.6 3836.3,486.6 3836.3,424.4 3533.9,424.4 
			3533.9,720 3839,720 3839,652.9 3613.4,652.9 3613.4,597.6 		"/>
		<polyline points="2174.8,597.6 2304.8,597.6 2304.8,535.6 2174.8,535.6 2174.8,486.6 2397.8,486.6 2397.8,424.4 2095.6,424.4 
			2095.6,720 2400.5,720 2400.5,652.9 2174.8,652.9 2174.8,597.6 		"/>
		<polyline class="st0" points="3016.1,342.7 3016.1,115.6 2972.8,115.6 2972.8,260.4 2899.3,115.6 2841.1,115.6 2841.1,342.7 
			2884.2,342.7 2884.2,165.7 2973.2,342.7 3016.1,342.7 		"/>
		<polyline class="st0" points="1763.9,165.7 1853,342.7 1895.9,342.7 1895.9,115.6 1852.7,115.6 1852.7,260.4 1779.1,115.6 
			1720.8,115.6 1720.8,342.7 1763.9,342.7 1763.9,165.7 		"/>
		<polyline class="st0" points="1055.9,165.7 1144.9,342.7 1187.6,342.7 1187.6,115.6 1144.4,115.6 1144.4,260.4 1071,115.6 
			1012.7,115.6 1012.7,342.7 1055.9,342.7 1055.9,165.7 		"/>
		<rect x="1429.8" y="115.6" class="st0" width="48.7" height="227.2"/>
		<polyline class="st0" points="2162.8,342.7 2209.1,342.7 2209.1,151.8 2282,151.8 2282,115.7 2089.8,115.7 2089.8,151.8 
			2162.8,151.8 2162.8,342.7 		"/>
		<path class="st0" d="M3270.9,150.5h61c14.9,0,30.3,11.4,30.3,25.2v107.3c0,14.7-15.8,24.9-30.3,24.9h-61V150.5 M3333.2,342.7
			c39.8,0,71.9-26.3,71.9-58.6V174.4c0-32.5-32.1-58.8-71.9-58.8h-105.1v227.2L3333.2,342.7L3333.2,342.7z"/>
		<path class="st0" d="M3741.1,284.6c0,13.7-15.5,25-30.3,25h-36c-14.9,0-30.3-11.3-30.3-25V173.9c0-14.1,15.4-25.1,30.3-25.1h36
			c14.8,0,30.3,11,30.3,25.1V284.6 M3784,172.6c0-32.4-32.4-58.6-71.9-58.6h-38.8c-39.6,0-71.8,26.3-71.8,58.6v113.2
			c0,32.5,32.2,58.7,71.8,58.7h38.8c39.5,0,71.9-26.2,71.9-58.7V172.6z"/>
		<path class="st0" d="M2460.7,284.3c0,31.6,30.5,57.1,68.6,58.4h100.1v-36h-95.8c-15,0-30.3-9.8-30.3-23.6V242h126.1v-36.4h-126.1
			v-30.4c0-13.7,15.3-23.7,30.3-23.7h95.8v-35.9h-98.6c-38.8,0.8-70.1,26.6-70.1,58.5L2460.7,284.3"/>
	</g>
	<g>
		<g>
			
				<linearGradient id="SVGID_1_" gradientUnits="userSpaceOnUse" x1="548.8735" y1="-7439.5205" x2="662.5837" y2="-7439.5205" gradientTransform="matrix(1 0 0 1 0 7645.3281)">
				<stop  offset="0" style="stop-color:#3C4DA1"/>
				<stop  offset="0.9932" style="stop-color:#45495F"/>
			</linearGradient>
			<polygon class="st1" points="662.6,163.5 662.6,182.4 548.9,248.1 548.9,229.2 			"/>
			
				<linearGradient id="SVGID_2_" gradientUnits="userSpaceOnUse" x1="246.5065" y1="-7063.4438" x2="246.5065" y2="-6900.6475" gradientTransform="matrix(1 0 0 1 0 7645.3281)">
				<stop  offset="3.680000e-02" style="stop-color:#F7FBFF"/>
				<stop  offset="0.8957" style="stop-color:#E7ECFE"/>
			</linearGradient>
			<polygon class="st2" points="130.1,581.9 113.7,591.3 379.3,744.7 379.3,725.8 			"/>
			<g>
				<path class="st73" d="M113.7,284.6l265.6-153.3"/>
			</g>
			<path class="st73" d="M379.3,131.3l169.6,97.9"/>
			
				<linearGradient id="SVGID_3_" gradientUnits="userSpaceOnUse" x1="636.7234" y1="-7054.0352" x2="636.7234" y2="-7218.0679" gradientTransform="matrix(1 0 0 1 0 7645.3281)">
				<stop  offset="3.680000e-02" style="stop-color:#ADC1EA"/>
				<stop  offset="0.8957" style="stop-color:#7185B8"/>
			</linearGradient>
			<polygon class="st4" points="628.6,436.7 628.6,581.9 644.9,591.3 644.9,427.3 			"/>
			
				<linearGradient id="SVGID_4_" gradientUnits="userSpaceOnUse" x1="379.3028" y1="-6982.0454" x2="644.8954" y2="-6982.0454" gradientTransform="matrix(1 0 0 1 0 7645.3281)">
				<stop  offset="3.680000e-02" style="stop-color:#F7FBFF"/>
				<stop  offset="0.8957" style="stop-color:#6F83B9"/>
			</linearGradient>
			<polygon class="st5" points="628.6,581.9 379.3,725.8 379.3,744.7 644.9,591.3 			"/>
			<g>
				<g>
					
						<linearGradient id="SVGID_5_" gradientUnits="userSpaceOnUse" x1="883.6135" y1="-4258.9849" x2="1262.9164" y2="-4258.9849" gradientTransform="matrix(1 0 0 1 -883.6135 4806.4336)">
						<stop  offset="0" style="stop-color:#617CC6"/>
						<stop  offset="0.9932" style="stop-color:#91B0D7"/>
					</linearGradient>
					<path class="st6" d="M203.2,336.3v203.3l176.1,101.7V438L203.2,336.3z M113.7,284.6L0,219v438l379.3,219V744.6L113.7,591.3
						V284.6z"/>
				</g>
			</g>
			
				<linearGradient id="SVGID_6_" gradientUnits="userSpaceOnUse" x1="246.5065" y1="-7514.0371" x2="246.5065" y2="-7054.0352" gradientTransform="matrix(1 0 0 1 0 7645.3281)">
				<stop  offset="1.491781e-07" style="stop-color:#4C5794"/>
				<stop  offset="1" style="stop-color:#424873"/>
			</linearGradient>
			<polygon class="st7" points="113.7,284.6 113.7,284.6 113.7,591.3 130.1,581.9 130.1,294.1 130.1,294.1 379.3,150.2 379.3,131.3 
							"/>
			
				<linearGradient id="SVGID_7_" gradientUnits="userSpaceOnUse" x1="419.3703" y1="-7247.4365" x2="718.5113" y2="-6948.2954" gradientTransform="matrix(1 0 0 1 0 7645.3281)">
				<stop  offset="7.458905e-08" style="stop-color:#3F578E"/>
				<stop  offset="0.1523" style="stop-color:#435A92"/>
				<stop  offset="0.3057" style="stop-color:#4F639D"/>
				<stop  offset="0.4593" style="stop-color:#6373B0"/>
				<stop  offset="0.5006" style="stop-color:#6A78B6"/>
				<stop  offset="0.8998" style="stop-color:#6F83C1"/>
				<stop  offset="1" style="stop-color:#7187C4"/>
			</linearGradient>
			<polygon class="st8" points="379.3,876 379.3,744.7 644.9,591.3 644.9,427.3 555.4,478.9 555.4,539.6 379.3,641.3 379.3,438 
				758.6,219 758.6,656.9 757.1,657.9 			"/>
			<g>
				<g>
					
						<linearGradient id="SVGID_8_" gradientUnits="userSpaceOnUse" x1="1262.9164" y1="-4806.4336" x2="1262.9164" y2="-4368.4746" gradientTransform="matrix(1 0 0 1 -883.6135 4806.4336)">
						<stop  offset="0" style="stop-color:#9AA8D4"/>
						<stop  offset="6.100000e-02" style="stop-color:#A2AFD7"/>
						<stop  offset="0.2422" style="stop-color:#B6BFDF"/>
						<stop  offset="0.4249" style="stop-color:#C2C9E3"/>
						<stop  offset="0.6099" style="stop-color:#C6CCE5"/>
						<stop  offset="1" style="stop-color:#F2F1F7"/>
					</linearGradient>
					<path class="st9" d="M548.9,229.2l113.7-65.6L379.3,0L0,219l113.7,65.6l265.6-153.3L548.9,229.2z M742.3,209.6L539,326.9
						l-159.7-92.2L203.2,336.3L379.3,438l379.3-219L742.3,209.6z"/>
				</g>
			</g>
			
				<linearGradient id="SVGID_9_" gradientUnits="userSpaceOnUse" x1="379.3028" y1="-7455.6499" x2="548.8735" y2="-7455.6499" gradientTransform="matrix(1 0 0 1 0 7645.3281)">
				<stop  offset="3.680000e-02" style="stop-color:#8792C3"/>
				<stop  offset="1" style="stop-color:#5C6D99"/>
			</linearGradient>
			<polygon class="st10" points="379.3,131.3 379.3,150.2 548.9,248.1 548.9,229.2 			"/>
			
				<linearGradient id="SVGID_10_" gradientUnits="userSpaceOnUse" x1="357.0984" y1="-7112.0996" x2="379.3028" y2="-7112.0996" gradientTransform="matrix(1 0 0 1 0 7645.3281)">
				<stop  offset="0.5313" style="stop-color:#ACC3D6;stop-opacity:0"/>
				<stop  offset="1" style="stop-color:#ACC3D6"/>
			</linearGradient>
			<polygon class="st11" points="357.1,425.2 357.1,628.5 379.3,641.3 379.3,438 			"/>
			
				<linearGradient id="SVGID_11_" gradientUnits="userSpaceOnUse" x1="357.0984" y1="-6841.4268" x2="379.3028" y2="-6841.4268" gradientTransform="matrix(1 0 0 1 0 7645.3281)">
				<stop  offset="0.5313" style="stop-color:#ACC3D6;stop-opacity:0"/>
				<stop  offset="1" style="stop-color:#ACC3D6"/>
			</linearGradient>
			<polygon class="st12" points="357.1,731.8 357.1,863.1 379.3,876 379.3,744.7 			"/>
			<g class="st13">
				
					<linearGradient id="SVGID_12_" gradientUnits="userSpaceOnUse" x1="14424.9863" y1="-12585.9238" x2="14447.2031" y2="-12585.9238" gradientTransform="matrix(0.5 -0.866 0.866 0.5 3738.1646 19059.3359)">
					<stop  offset="0.6232" style="stop-color:#47588B;stop-opacity:0"/>
					<stop  offset="1" style="stop-color:#47588B"/>
				</linearGradient>
				<polygon class="st14" points="0,244.6 113.7,310.3 113.7,284.6 0,219 				"/>
				
					<linearGradient id="SVGID_13_" gradientUnits="userSpaceOnUse" x1="14424.9863" y1="-12315.251" x2="14447.2021" y2="-12315.251" gradientTransform="matrix(0.5 -0.866 0.866 0.5 3738.1646 19059.3359)">
					<stop  offset="0.6232" style="stop-color:#47588B;stop-opacity:0"/>
					<stop  offset="1" style="stop-color:#47588B"/>
				</linearGradient>
				<polygon class="st15" points="203.2,361.9 379.3,463.6 379.3,438 203.2,336.3 				"/>
			</g>
			
				<linearGradient id="SVGID_14_" gradientUnits="userSpaceOnUse" x1="306.2902" y1="-7342.8711" x2="295.1877" y2="-7362.1011" gradientTransform="matrix(1 0 0 1 0 7645.3281)">
				<stop  offset="2.290950e-07" style="stop-color:#DBDDE8;stop-opacity:0"/>
				<stop  offset="0.1847" style="stop-color:#D8DAE6;stop-opacity:3.690000e-02"/>
				<stop  offset="0.3247" style="stop-color:#CED1DF;stop-opacity:6.490000e-02"/>
				<stop  offset="0.4499" style="stop-color:#BEC1D4;stop-opacity:9.000000e-02"/>
				<stop  offset="0.5666" style="stop-color:#A7ABC4;stop-opacity:0.1133"/>
				<stop  offset="0.6774" style="stop-color:#898EB0;stop-opacity:0.1355"/>
				<stop  offset="0.7836" style="stop-color:#656A97;stop-opacity:0.1567"/>
				<stop  offset="0.8864" style="stop-color:#3A4079;stop-opacity:0.1773"/>
				<stop  offset="0.9839" style="stop-color:#091157;stop-opacity:0.1968"/>
				<stop  offset="1" style="stop-color:#000851;stop-opacity:0.2"/>
			</linearGradient>
			<polygon class="st16" points="395,243.8 225.4,349.1 203.2,336.3 379.3,234.7 			"/>
			
				<linearGradient id="SVGID_15_" gradientUnits="userSpaceOnUse" x1="23300.6602" y1="-6981.6885" x2="23294.7695" y2="-6991.8911" gradientTransform="matrix(-1 0 0 1 23548.7637 7645.3281)">
				<stop  offset="2.290950e-07" style="stop-color:#DBDDE8;stop-opacity:0"/>
				<stop  offset="0.312" style="stop-color:#D9DBE7;stop-opacity:6.240000e-02"/>
				<stop  offset="0.4549" style="stop-color:#D1D4E1;stop-opacity:9.100000e-02"/>
				<stop  offset="0.5633" style="stop-color:#C5C7D9;stop-opacity:0.1127"/>
				<stop  offset="0.6543" style="stop-color:#B3B6CC;stop-opacity:0.1309"/>
				<stop  offset="0.7345" style="stop-color:#9B9FBC;stop-opacity:0.1469"/>
				<stop  offset="0.807" style="stop-color:#7E82A8;stop-opacity:0.1614"/>
				<stop  offset="0.8737" style="stop-color:#5B6190;stop-opacity:0.1747"/>
				<stop  offset="0.9359" style="stop-color:#333974;stop-opacity:0.1872"/>
				<stop  offset="0.9924" style="stop-color:#070E56;stop-opacity:0.1985"/>
				<stop  offset="1" style="stop-color:#000851;stop-opacity:0.2"/>
			</linearGradient>
			<polygon class="st17" points="118.3,588.7 379.3,736.2 379.3,725.8 130.1,581.9 			"/>
			<g class="st13">
				
					<linearGradient id="SVGID_16_" gradientUnits="userSpaceOnUse" x1="14159.4033" y1="-12213.5898" x2="14181.6045" y2="-12213.5898" gradientTransform="matrix(0.5 -0.866 0.866 0.5 3738.1646 19059.3359)">
					<stop  offset="0.6232" style="stop-color:#47588B;stop-opacity:0"/>
					<stop  offset="1" style="stop-color:#47588B"/>
				</linearGradient>
				<polygon class="st18" points="113.7,591.3 201.7,652.3 379.3,770.3 379.3,744.7 				"/>
			</g>
			<g class="st13">
				
					<linearGradient id="SVGID_17_" gradientUnits="userSpaceOnUse" x1="25559.8633" y1="7525.6333" x2="25582.0723" y2="7525.6333" gradientTransform="matrix(-0.5 -0.866 -0.866 0.5 19820.3867 19059.3359)">
					<stop  offset="0.7598" style="stop-color:#3B4D86;stop-opacity:0"/>
					<stop  offset="1" style="stop-color:#3B4D86"/>
				</linearGradient>
				<polygon class="st19" points="644.9,616.9 490.3,684.3 379.3,744.7 493.2,678.9 644.9,591.3 				"/>
			</g>
			<g>
				
					<linearGradient id="SVGID_18_" gradientUnits="userSpaceOnUse" x1="26134.582" y1="7525.6572" x2="26113.1445" y2="7525.6572" gradientTransform="matrix(-0.5 -0.866 -0.866 0.5 19820.3867 19059.3359)">
					<stop  offset="0.6232" style="stop-color:#E8F2F3;stop-opacity:0"/>
					<stop  offset="0.9975" style="stop-color:#E8F2F3"/>
				</linearGradient>
				<polygon class="st20" points="379.3,131.4 113.7,284.6 92.4,272.3 379.3,106.8 				"/>
			</g>
			<g class="st13">
				
					<linearGradient id="SVGID_19_" gradientUnits="userSpaceOnUse" x1="14703.6543" y1="-12328.1445" x2="14682.252" y2="-12328.1445" gradientTransform="matrix(0.5 -0.866 0.866 0.5 3799.0386 19059.3359)">
					<stop  offset="0.6232" style="stop-color:#E8F2F3;stop-opacity:0"/>
					<stop  offset="0.9975" style="stop-color:#E8F2F3"/>
				</linearGradient>
				<polygon class="st21" points="379.3,131.4 548.9,229.2 570.2,216.9 379.3,106.8 				"/>
			</g>
			<g class="st13">
				
					<linearGradient id="SVGID_20_" gradientUnits="userSpaceOnUse" x1="-2320.1506" y1="-2442.3833" x2="-2298.7825" y2="-2442.3833" gradientTransform="matrix(0.5 0.866 0.866 -0.5 3864.8667 969.0223)">
					<stop  offset="0.6232" style="stop-color:#E8F2F3;stop-opacity:0"/>
					<stop  offset="0.9975" style="stop-color:#E8F2F3"/>
				</linearGradient>
				<polygon class="st22" points="527.5,216.9 641.2,151.2 662.6,163.5 548.9,229.2 				"/>
			</g>
			<g>
				
					<linearGradient id="SVGID_21_" gradientUnits="userSpaceOnUse" x1="22940.4238" y1="11928.3408" x2="22962.6289" y2="11928.3408" gradientTransform="matrix(-1 0 0 -1 23607.5254 12431.1924)">
					<stop  offset="0.7598" style="stop-color:#3B4D86;stop-opacity:0"/>
					<stop  offset="1" style="stop-color:#3B4D86"/>
				</linearGradient>
				<polygon class="st23" points="667.1,578.5 667.1,414.4 644.9,427.3 644.9,591.3 				"/>
			</g>
			
				<linearGradient id="SVGID_22_" gradientUnits="userSpaceOnUse" x1="656.3083" y1="-7046.7051" x2="644.5748" y2="-7053.4795" gradientTransform="matrix(1 0 0 1 0 7645.3281)">
				<stop  offset="0.7598" style="stop-color:#3B4D86;stop-opacity:0"/>
				<stop  offset="1" style="stop-color:#3B4D86"/>
			</linearGradient>
			<polygon class="st24" points="644.9,618.4 644.9,591.3 667.1,578.5 			"/>
		</g>
	</g>
</g>
</svg>
